<?xml version="1.0" encoding="UTF-8"?>
<svg id="Layer_1" data-name="Layer 1" xmlns="http://www.w3.org/2000/svg" viewBox="0 0 164 68.92">
  <defs>
    <style>
      .cls-1 {
        fill: #717988;
        stroke-width: 0px;
      }
    </style>
  </defs>
  <path class="cls-1" d="m151.92,5.17h-42.07c-4.65,0-8.32,4.14-8.32,9.38v38.82c0,5.24,3.67,9.38,8.32,9.38h41.83c4.65,0,8.32-4.14,8.32-9.38V14.55c.25-5.24-3.42-9.38-8.07-9.38Zm-30.08,7.34c3.92,0,6.85,3.18,6.85,6.85,0,3.92-3.18,6.85-6.85,6.85s-6.85-2.93-6.85-6.85c0-3.67,3.18-6.85,6.85-6.85Zm-12.24,26.41c.98-3.92,4.16-7.34,8.07-8.56,1.22.49,2.69.73,4.15.73s2.94-.25,4.16-.73c1.95.49,3.42,1.71,4.89,2.93,1.47,1.47,2.69,3.42,3.18,5.62.49,1.71-.73,3.42-2.45,3.42h-19.57c-1.71,0-2.93-1.72-2.45-3.42h0Zm40.83,15.34h-38.89c-1.26,0-2.26-1.02-2.26-2.26s1.02-2.26,2.26-2.26h38.89c1.26,0,2.26,1.02,2.26,2.26s-1.02,2.26-2.26,2.26Zm.52-20.73h-9.79c-1.22,0-2.45-1.22-2.45-2.45,0-1.47,1.22-2.45,2.45-2.45h9.79c1.47,0,2.45.98,2.45,2.45,0,1.22-1.22,2.45-2.45,2.45Zm0-9.79h-9.79c-1.22,0-2.45-.98-2.45-2.45,0-1.22,1.22-2.45,2.45-2.45h9.79c1.47,0,2.45,1.22,2.45,2.45,0,1.47-1.22,2.45-2.45,2.45Z"/>
  <g>
    <path class="cls-1" d="m10.96,27.22c-1.16,0-2.18-.2-3.04-.6-.86-.4-1.58-.96-2.15-1.68-.57-.72-1-1.55-1.29-2.5-.29-.95-.43-1.98-.43-3.1,0-.43.02-.86.07-1.3s.12-.86.22-1.3l3.02.58c-.07.34-.12.67-.14,1.01-.02.34-.04.67-.04,1.01,0,.92.13,1.7.39,2.34.26.64.67,1.11,1.22,1.43.56.32,1.28.48,2.17.48s1.64-.16,2.24-.48c.61-.32,1.06-.8,1.38-1.44s.47-1.44.47-2.38v-3.92h3.13v3.92c0,1.13-.16,2.17-.47,3.13s-.78,1.8-1.4,2.52c-.62.72-1.37,1.28-2.27,1.68-.89.4-1.92.6-3.09.6Zm9.29-4.18c-.64,0-1.25-.15-1.83-.44-.58-.29-1.07-.75-1.46-1.38-.39-.62-.6-1.42-.64-2.38l1.75-.83c.02.49.19.87.5,1.12.31.26.65.39,1.01.39.38,0,.73-.13,1.04-.41.31-.27.46-.68.46-1.23v-3.42h3.13v4.07c0,1.03-.2,1.88-.58,2.55s-.88,1.16-1.49,1.48c-.6.32-1.23.48-1.89.48Zm5.98,0c-.64,0-1.25-.15-1.83-.44-.58-.29-1.07-.75-1.46-1.38-.39-.62-.6-1.42-.64-2.38l1.75-.83c.02.49.19.87.5,1.12.31.26.65.39,1.01.39.38,0,.73-.13,1.03-.41.31-.27.46-.68.46-1.23v-4.3h3.13v4.95c0,1.03-.19,1.88-.58,2.55-.38.67-.88,1.16-1.49,1.48-.61.32-1.24.48-1.9.48Z"/>
    <path class="cls-1" d="m37.15,23.04c-1.08,0-2.02-.22-2.81-.67-.79-.44-1.41-1.04-1.84-1.77-.44-.74-.66-1.55-.66-2.44,0-.72.14-1.38.41-1.98.28-.6.66-1.12,1.14-1.57.49-.45,1.05-.8,1.69-1.05s1.33-.38,2.08-.38,1.42.11,2.11.32c.68.21,1.29.43,1.82.67l-1.26,3.22c-1.01-.6-1.9-.9-2.66-.9-.46,0-.85.08-1.17.25s-.58.38-.76.64c-.18.26-.27.53-.27.8,0,.25.08.5.24.74s.41.44.73.58c.32.15.73.23,1.21.23h2.95v3.31h-2.95Zm-4.5,5.24v-3.64h3.08c.86,0,1.45-.12,1.77-.37.32-.25.48-.59.48-1.04v-9.07h3.11v9.07c0,1.03-.22,1.93-.66,2.68-.44.76-1.06,1.34-1.86,1.75-.8.41-1.75.61-2.84.61h-3.08Z"/>
    <path class="cls-1" d="m41.87,24.79c.62-.02,1.11-.1,1.45-.22.34-.12.58-.29.72-.51.14-.22.21-.5.21-.84v-9.63h3.13v9.63c0,.98-.2,1.84-.6,2.57-.4.73-.97,1.31-1.7,1.73-.73.42-1.61.66-2.63.72l-.58-3.46Z"/>
    <path class="cls-1" d="m48.89,23.04v-3.64h8.69v3.64h-8.69Zm6.71,0c-.01-1.27-.23-2.4-.65-3.38-.42-.98-1.03-1.81-1.84-2.48s-1.79-1.14-2.95-1.41l.67-3.38c1.62.37,3.02,1.05,4.19,2.04,1.17.99,2.08,2.22,2.73,3.68.65,1.46.98,3.11.99,4.93h-3.13Zm1.03,0v-3.64h3.46v3.64h-3.46Zm3.46,0v-3.64c.1,0,.18.17.25.5.07.33.11.76.11,1.3s-.04,1-.11,1.33c-.07.34-.16.5-.25.5Z"/>
    <path class="cls-1" d="m60.08,23.04c-.11,0-.2-.17-.26-.5-.07-.34-.1-.78-.1-1.33s.03-.97.1-1.3c.07-.33.15-.5.26-.5v3.64Zm0,0v-3.64h4.23v3.64h-4.23Zm4.23,0v-3.64c.11,0,.19.17.26.5.07.33.1.76.1,1.3s-.03,1-.1,1.33c-.07.34-.15.5-.26.5Z"/>
    <path class="cls-1" d="m64.31,23.04c-.11,0-.2-.17-.26-.5-.07-.34-.1-.78-.1-1.33s.03-.97.1-1.3c.07-.33.15-.5.26-.5v3.64Zm0,0v-3.64h4.23v3.64h-4.23Zm4.23,0v-3.64c.11,0,.19.17.26.5.07.33.1.76.1,1.3s-.03,1-.1,1.33c-.07.34-.15.5-.26.5Z"/>
    <path class="cls-1" d="m68.54,23.04c-.11,0-.2-.17-.26-.5-.07-.34-.1-.78-.1-1.33s.03-.97.1-1.3c.07-.33.15-.5.26-.5v3.64Zm0,0v-3.64h4.23v3.64h-4.23Zm4.23,0v-3.64c.11,0,.19.17.26.5.07.33.1.76.1,1.3s-.03,1-.1,1.33c-.07.34-.15.5-.26.5Z"/>
    <path class="cls-1" d="m72.77,23.04c-.11,0-.2-.17-.26-.5-.07-.34-.1-.78-.1-1.33s.03-.97.1-1.3c.07-.33.15-.5.26-.5v3.64Zm0,0v-3.64h4.23v3.64h-4.23Zm4.23,0v-3.64c.11,0,.19.17.26.5.07.33.1.76.1,1.3s-.03,1-.1,1.33c-.07.34-.15.5-.26.5Z"/>
    <path class="cls-1" d="m77,23.04c-.11,0-.2-.17-.26-.5-.07-.34-.1-.78-.1-1.33s.03-.97.1-1.3c.07-.33.15-.5.26-.5v3.64Zm0,0v-3.64h4.23v3.64h-4.23Zm4.23,0v-3.64c.11,0,.19.17.26.5.07.33.1.76.1,1.3s-.03,1-.1,1.33c-.07.34-.15.5-.26.5Z"/>
    <path class="cls-1" d="m81.23,23.04c-.11,0-.2-.17-.26-.5-.07-.34-.1-.78-.1-1.33s.03-.97.1-1.3c.07-.33.15-.5.26-.5v3.64Zm0,0v-3.64h2.65V7.13h3.11v15.91h-5.76Z"/>
    <path class="cls-1" d="m89.23,23.04V7.13h3.13v15.91h-3.13Z"/>
    <path class="cls-1" d="m9.45,54.04c-1.03,0-1.93-.15-2.69-.44-.76-.29-1.39-.7-1.88-1.21-.49-.51-.86-1.08-1.1-1.73-.24-.64-.36-1.32-.36-2.03,0-.65.1-1.3.3-1.96.2-.66.49-1.29.87-1.89l2.41,1.1c-.19.4-.34.78-.43,1.14s-.14.72-.14,1.05c0,.46.1.86.31,1.21.2.35.52.63.96.82s.99.29,1.67.29h7.63v-5.81h3.11v9.45h-10.66Zm.76-10.3c-.4,0-.72-.13-.98-.38-.26-.25-.39-.58-.39-.97s.13-.74.39-1c.26-.26.58-.39.98-.39s.74.13,1,.39c.26.26.39.59.39,1s-.13.72-.39.97c-.26.25-.59.38-1,.38Zm3.13,0c-.4,0-.72-.13-.98-.38-.26-.25-.39-.58-.39-.97s.13-.74.39-1c.26-.26.58-.39.98-.39s.74.13.99.39c.25.26.38.59.38,1s-.13.72-.38.97-.58.38-.99.38Z"/>
    <path class="cls-1" d="m22.52,54.04v-15.91h3.13v15.91h-3.13Zm2.99,0v-3.64h2.09v3.64h-2.09Zm2.09,0v-3.64c.1,0,.18.17.25.5s.11.76.11,1.3-.04,1-.11,1.33-.16.5-.25.5Z"/>
    <path class="cls-1" d="m27.59,54.04c-.11,0-.2-.17-.26-.5-.07-.34-.1-.78-.1-1.33s.03-.97.1-1.3c.07-.33.15-.5.26-.5v3.64Zm0,0v-3.64h4.23v3.64h-4.23Zm4.23,0v-3.64c.11,0,.19.17.26.5.07.33.1.76.1,1.3s-.03,1-.1,1.33c-.07.34-.15.5-.26.5Z"/>
    <path class="cls-1" d="m31.82,54.04c-.11,0-.2-.17-.26-.5-.07-.34-.1-.78-.1-1.33s.03-.97.1-1.3c.07-.33.15-.5.26-.5v3.64Zm0,0v-3.64h1.03c.46,0,.8-.04,1.04-.14.24-.09.41-.24.5-.46.1-.22.14-.52.14-.92v-4.3h3.13v4.3c0,1.07-.19,1.99-.58,2.75-.39.77-.94,1.36-1.66,1.76-.71.41-1.58.62-2.58.63h-1.03Zm4.05,5.44c-.5,0-.92-.16-1.24-.49-.32-.32-.49-.74-.49-1.24s.16-.92.49-1.24c.32-.32.74-.49,1.24-.49s.93.16,1.25.49.48.74.48,1.24-.16.92-.48,1.24-.74.49-1.25.49Zm3.49-5.44c-1.01,0-1.87-.2-2.59-.61-.72-.41-1.27-1-1.66-1.77-.38-.77-.58-1.7-.58-2.76h3.13c0,.4.04.7.14.92.09.22.26.37.5.46.25.09.6.14,1.05.14h.61v3.64h-.61Zm.61,0v-3.64c.11,0,.19.17.26.5.07.33.1.76.1,1.3s-.03,1-.1,1.33c-.07.34-.15.5-.26.5Z"/>
    <path class="cls-1" d="m39.98,54.04c-.11,0-.2-.17-.26-.5-.07-.34-.1-.78-.1-1.33s.03-.97.1-1.3c.07-.33.15-.5.26-.5v3.64Zm0,0v-3.64h11.74l-.67,3.64h-11.07Zm7.97-2.41v-2.43c0-.38-.12-.73-.36-1.03-.24-.3-.59-.54-1.04-.71s-1.02-.26-1.69-.26c-.47,0-.95.05-1.44.16-.49.11-.92.23-1.28.38l-1.37-3.02c.62-.38,1.28-.67,1.98-.86.7-.19,1.4-.29,2.12-.29.82,0,1.59.12,2.33.37.74.25,1.4.61,1.99,1.09.59.48,1.05,1.07,1.39,1.76s.5,1.5.5,2.41v2.43h-3.13Zm-2.36,7.85c-.5,0-.92-.16-1.24-.49s-.49-.74-.49-1.24.16-.92.49-1.24.74-.49,1.24-.49.93.16,1.25.49c.32.32.48.74.48,1.24s-.16.92-.48,1.24c-.32.32-.74.49-1.25.49Z"/>
    <path class="cls-1" d="m53.82,54.04v-15.91h3.13v15.91h-3.13Z"/>
    <path class="cls-1" d="m64.28,54.04c-1.08,0-2.02-.22-2.81-.67-.79-.44-1.41-1.04-1.84-1.77-.44-.74-.66-1.55-.66-2.44,0-.72.14-1.38.41-1.98.28-.6.66-1.12,1.14-1.57.49-.45,1.05-.8,1.69-1.05s1.33-.38,2.08-.38,1.42.11,2.11.32c.68.21,1.29.43,1.82.67l-1.26,3.22c-1.01-.6-1.9-.9-2.66-.9-.46,0-.85.08-1.17.25s-.58.38-.76.64c-.18.26-.27.53-.27.8,0,.25.08.5.24.74s.41.44.73.58c.32.15.73.23,1.21.23h2.95v3.31h-2.95Zm-4.5,5.24v-3.64h3.08c.86,0,1.45-.12,1.77-.37.32-.25.48-.59.48-1.04v-9.07h3.11v9.07c0,1.03-.22,1.93-.66,2.68-.44.76-1.06,1.34-1.86,1.75-.8.41-1.75.61-2.84.61h-3.08Zm7.79-5.24v-3.64h2.74v3.64h-2.74Zm2.74,0v-3.64c.11,0,.2.17.26.5.07.33.1.76.1,1.3s-.03,1-.1,1.33c-.07.34-.15.5-.26.5Z"/>
    <path class="cls-1" d="m70.31,54.04c-.11,0-.2-.17-.26-.5-.07-.34-.1-.78-.1-1.33s.03-.97.1-1.3c.07-.33.15-.5.26-.5v3.64Zm0,0v-3.64h2.65v-12.28h3.11v15.91h-5.76Z"/>
    <path class="cls-1" d="m78.3,54.04v-15.91h3.13v15.91h-3.13Z"/>
    <path class="cls-1" d="m88.76,54.04c-1.08,0-2.02-.22-2.81-.67-.79-.44-1.41-1.04-1.84-1.77-.44-.74-.66-1.55-.66-2.44,0-.72.14-1.38.41-1.98.28-.6.66-1.12,1.14-1.57.49-.45,1.05-.8,1.69-1.05s1.33-.38,2.08-.38,1.42.11,2.11.32c.68.21,1.29.43,1.82.67l-1.26,3.22c-1.01-.6-1.9-.9-2.66-.9-.46,0-.85.08-1.17.25s-.58.38-.76.64c-.18.26-.27.53-.27.8,0,.25.08.5.24.74s.41.44.73.58c.32.15.73.23,1.21.23h2.95v3.31h-2.95Zm-4.5,5.24v-3.64h3.08c.86,0,1.45-.12,1.77-.37.32-.25.48-.59.48-1.04v-9.07h3.11v9.07c0,1.03-.22,1.93-.66,2.68-.44.76-1.06,1.34-1.86,1.75-.8.41-1.75.61-2.84.61h-3.08Z"/>
  </g>
</svg>