<?xml version="1.0" encoding="UTF-8"?>
<svg id="Layer_1" data-name="Layer 1" xmlns="http://www.w3.org/2000/svg" viewBox="0 0 172 68.92">
  <defs>
    <style>
      .cls-1 {
        fill: #717988;
        stroke-width: 0px;
      }
    </style>
  </defs>
  <g>
    <path class="cls-1" d="m11.55,28.96c-.73,0-1.43-.11-2.11-.31-.68-.21-1.29-.52-1.83-.94-.54-.41-.97-.92-1.28-1.51s-.48-1.29-.48-2.08c0-.65.13-1.28.4-1.9.27-.62.66-1.19,1.19-1.69.53-.5,1.19-.91,1.99-1.21.8-.3,1.73-.45,2.78-.45v3.43c-.7,0-1.31.09-1.82.26s-.9.4-1.17.68c-.27.28-.41.56-.41.86,0,.24.1.46.31.68.2.21.51.39.92.53s.91.2,1.51.2c.29,0,.58-.01.87-.04.28-.03.56-.07.82-.13l1.05,3.09c-.43.18-.88.31-1.34.4-.46.08-.93.13-1.39.13Zm1.95-8.94v-2.29c0-.36-.11-.69-.34-.97s-.56-.51-1-.67c-.44-.16-.97-.25-1.61-.25-.44,0-.89.05-1.35.15-.46.1-.86.22-1.2.36l-1.29-2.86c.58-.36,1.2-.63,1.86-.82.66-.18,1.33-.27,2-.27.77,0,1.51.12,2.21.35.7.23,1.33.58,1.88,1.03.55.45.98,1.01,1.3,1.67.32.66.48,1.42.48,2.28v2.29h-2.94Zm-1.29,2.28v-3.43h4.85l-.65,3.43h-4.2Zm2.18,4.33c-.48,0-.87-.15-1.17-.46-.31-.31-.46-.7-.46-1.17s.15-.87.46-1.17c.3-.31.7-.46,1.17-.46s.88.15,1.18.46c.3.31.45.7.45,1.17s-.15.87-.45,1.17-.69.46-1.18.46Zm1.82-4.33v-3.43h2.21v3.43h-2.21Zm2.21,0v-3.43c.1,0,.18.16.25.47.06.31.09.72.09,1.23s-.03.94-.09,1.26-.14.48-.25.48Z"/>
    <path class="cls-1" d="m17.74,22.3c-.1,0-.18-.16-.25-.48s-.09-.74-.09-1.26.03-.92.09-1.23c.06-.31.14-.47.25-.47v3.43Zm0,0v-3.43h4v3.43h-4Zm4,0v-3.43c.1,0,.18.16.25.47.06.31.09.72.09,1.23s-.03.94-.09,1.26c-.06.32-.14.48-.25.48Z"/>
    <path class="cls-1" d="m21.74,22.3c-.1,0-.18-.16-.25-.48-.06-.32-.09-.74-.09-1.26s.03-.92.09-1.23c.06-.31.14-.47.25-.47v3.43Zm0,0v-3.43h4v3.43h-4Zm4,0v-3.43c.1,0,.18.16.25.47.06.31.09.72.09,1.23s-.03.94-.09,1.26-.14.48-.25.48Z"/>
    <path class="cls-1" d="m25.73,22.3c-.1,0-.18-.16-.25-.48s-.09-.74-.09-1.26.03-.92.09-1.23c.06-.31.14-.47.25-.47v3.43Zm0,0v-3.43h4v3.43h-4Zm4,0v-3.43c.1,0,.18.16.25.47.06.31.09.72.09,1.23s-.03.94-.09,1.26-.14.48-.25.48Z"/>
    <path class="cls-1" d="m29.73,22.3c-.1,0-.18-.16-.25-.48s-.09-.74-.09-1.26.03-.92.09-1.23c.06-.31.14-.47.25-.47v3.43Zm0,0v-3.43h4v3.43h-4Zm4,0v-3.43c.1,0,.18.16.25.47.06.31.09.72.09,1.23s-.03.94-.09,1.26-.14.48-.25.48Z"/>
    <path class="cls-1" d="m33.72,22.3c-.1,0-.18-.16-.25-.48s-.09-.74-.09-1.26.03-.92.09-1.23c.06-.31.14-.47.25-.47v3.43Zm8.53.03c-.87,0-1.74-.14-2.6-.41s-1.65-.66-2.35-1.17c-.71-.51-1.27-1.13-1.7-1.87-.43-.74-.64-1.58-.64-2.52,0-.8.16-1.54.48-2.21.32-.67.76-1.2,1.31-1.61s1.17-.6,1.84-.6c.52,0,1.01.12,1.46.35.45.23.85.55,1.2.94.35.4.62.85.82,1.37s.3,1.06.3,1.62c0,.79-.2,1.55-.6,2.28s-.97,1.37-1.72,1.95-1.65,1.02-2.72,1.35c-1.07.33-2.27.49-3.62.49v-3.43c.93-.01,1.77-.1,2.52-.27s1.4-.39,1.95-.65.96-.56,1.25-.87.43-.61.43-.91c0-.24-.06-.45-.17-.65-.11-.19-.26-.35-.45-.46-.19-.11-.39-.17-.62-.17s-.41.05-.59.16c-.18.11-.33.26-.43.45-.11.19-.16.41-.16.66,0,.37.12.76.37,1.15.24.39.59.75,1.04,1.08.45.33.98.59,1.59.79s1.27.3,1.98.3c.5,0,.9-.05,1.19-.15.29-.1.51-.25.64-.44.13-.19.2-.41.2-.66,0-.59-.26-1.1-.77-1.53-.52-.43-1.32-.82-2.41-1.16s-2.51-.68-4.24-.99c-.09.16-.18.25-.27.27-.09.02-.18.01-.28-.03-.1-.04-.2-.07-.3-.08-.31-.06-.63-.11-.97-.16-.34-.05-.69-.1-1.05-.16l.37-3.11c1.92.26,3.66.55,5.23.86s2.93.7,4.07,1.17c1.14.47,2.03,1.08,2.65,1.83s.93,1.68.93,2.81c0,.78-.14,1.45-.42,2.01s-.67,1.01-1.16,1.37c-.49.36-1.04.62-1.65.79s-1.25.25-1.92.25Z"/>
    <path class="cls-1" d="m49.34,22.3V7.27h2.96v15.03h-2.96Zm2.82,0v-3.43h1.97v3.43h-1.97Zm1.97,0v-3.43c.09,0,.17.16.24.47.07.31.1.72.1,1.23s-.03.94-.1,1.26c-.07.32-.15.48-.24.48Z"/>
    <path class="cls-1" d="m54.14,22.3c-.1,0-.18-.16-.25-.48s-.09-.74-.09-1.26.03-.92.09-1.23c.06-.31.14-.47.25-.47v3.43Zm0,0v-3.43h4v3.43h-4Zm4,0v-3.43c.1,0,.18.16.25.47.06.31.09.72.09,1.23s-.03.94-.09,1.26-.14.48-.25.48Z"/>
    <path class="cls-1" d="m58.13,22.3c-.1,0-.18-.16-.25-.48s-.09-.74-.09-1.26.03-.92.09-1.23c.06-.31.14-.47.25-.47v3.43Zm0,0v-3.43h4v3.43h-4Zm4,0v-3.43c.1,0,.18.16.25.47.06.31.09.72.09,1.23s-.03.94-.09,1.26-.14.48-.25.48Z"/>
    <path class="cls-1" d="m62.13,22.3c-.1,0-.18-.16-.25-.48s-.09-.74-.09-1.26.03-.92.09-1.23c.06-.31.14-.47.25-.47v3.43Zm0,0v-3.43h4v3.43h-4Zm4,0v-3.43c.1,0,.18.16.25.47.06.31.09.72.09,1.23s-.03.94-.09,1.26-.14.48-.25.48Z"/>
    <path class="cls-1" d="m66.12,22.3c-.1,0-.18-.16-.25-.48s-.09-.74-.09-1.26.03-.92.09-1.23c.06-.31.14-.47.25-.47v3.43Zm0,0v-3.43h4v3.43h-4Zm4,0v-3.43c.1,0,.18.16.25.47.06.31.09.72.09,1.23s-.03.94-.09,1.26-.14.48-.25.48Z"/>
    <path class="cls-1" d="m70.12,22.3c-.1,0-.18-.16-.25-.48s-.09-.74-.09-1.26.03-.92.09-1.23c.06-.31.14-.47.25-.47v3.43Zm0,0v-3.43h.97c.43,0,.76-.04.99-.13s.38-.23.48-.43.14-.49.14-.87v-4.06h2.96v4.06c0,1.01-.18,1.88-.55,2.6s-.89,1.28-1.56,1.67c-.67.38-1.49.58-2.44.59h-.97Zm3.83-10.79c-.48,0-.87-.15-1.17-.46-.31-.31-.46-.7-.46-1.17s.15-.87.46-1.17c.31-.31.7-.46,1.17-.46s.88.15,1.18.46c.3.31.45.7.45,1.17s-.15.87-.45,1.17c-.3.31-.69.46-1.18.46Zm3.3,10.79c-.95,0-1.77-.19-2.45-.58-.68-.38-1.2-.94-1.56-1.67-.36-.73-.54-1.6-.54-2.61h2.96c0,.37.04.66.13.87s.24.35.48.43c.23.08.56.13.99.13h.58v3.43h-.58Zm.58,0v-3.43c.1,0,.18.16.25.47.06.31.09.72.09,1.23s-.03.94-.09,1.26-.14.48-.25.48Z"/>
    <path class="cls-1" d="m77.82,22.3c-.1,0-.18-.16-.25-.48s-.09-.74-.09-1.26.03-.92.09-1.23c.06-.31.14-.47.25-.47v3.43Zm0,0v-3.43c.45,0,.84-.06,1.16-.19.32-.12.63-.33.91-.62s.58-.67.9-1.13c.29-.41.61-.82.95-1.24.34-.42.72-.81,1.14-1.16.42-.36.89-.64,1.4-.86.52-.22,1.1-.32,1.76-.32s1.22.14,1.73.41c.51.27.94.65,1.3,1.13.36.48.63,1.05.82,1.71.19.66.28,1.38.28,2.16,0,.66-.08,1.35-.24,2.08-.16.73-.38,1.4-.66,2.01l-2.86-1.14c.26-.45.46-.93.6-1.44.14-.5.2-1.01.2-1.52,0-.7-.11-1.22-.32-1.54-.22-.32-.52-.48-.9-.48-.26,0-.54.08-.84.25-.3.16-.62.41-.94.74-.33.33-.67.75-1.04,1.26-.54.78-1.08,1.42-1.61,1.9-.53.49-1.09.85-1.68,1.08s-1.28.35-2.07.35Zm11.29-2.89l.17,3.43c-1.17.07-2.18.06-3.03-.03-.86-.08-1.6-.24-2.24-.45-.64-.22-1.21-.49-1.71-.83-.5-.34-.96-.74-1.39-1.19l1.92-2.02c.37.38.84.67,1.4.84.56.18,1.24.28,2.05.3s1.75,0,2.84-.05Zm2.58,2.89c-.91,0-1.69-.19-2.34-.58-.65-.38-1.16-.94-1.51-1.67-.36-.73-.54-1.6-.54-2.61v-.29l2.62.2.17.39c.03.28.1.51.2.68.1.17.26.29.48.35s.53.09.92.09h.58v3.43h-.58Zm.58,0v-3.43c.1,0,.18.16.25.47.06.31.09.72.09,1.23s-.03.94-.09,1.26-.14.48-.25.48Z"/>
    <path class="cls-1" d="m92.27,22.3c-.1,0-.18-.16-.25-.48s-.09-.74-.09-1.26.03-.92.09-1.23c.06-.31.14-.47.25-.47v3.43Zm0,0v-3.43h2.5V7.27h2.94v15.03h-5.44Z"/>
    <path class="cls-1" d="m99.82,22.3V7.27h2.96v15.03h-2.96Z"/>
    <path class="cls-1" d="m9.99,53.3c-.97,0-1.82-.14-2.54-.42-.72-.28-1.31-.66-1.78-1.14-.46-.48-.81-1.03-1.04-1.63s-.34-1.24-.34-1.91c0-.61.09-1.23.28-1.85.19-.62.46-1.22.83-1.79l2.28,1.04c-.18.37-.32.73-.41,1.08-.09.35-.14.68-.14.99,0,.43.1.81.29,1.15s.5.59.91.77c.41.18.94.27,1.57.27h7.21v-5.49h2.94v8.92h-10.06Zm.71-9.72c-.37,0-.68-.12-.93-.36s-.37-.54-.37-.92.12-.7.37-.94.55-.37.93-.37.7.12.94.37c.24.24.37.56.37.94s-.12.68-.37.92c-.24.24-.56.36-.94.36Zm2.96,0c-.38,0-.68-.12-.93-.36s-.37-.54-.37-.92.12-.7.37-.94.55-.37.93-.37.7.12.93.37c.24.24.36.56.36.94s-.12.68-.36.92c-.24.24-.55.36-.93.36Z"/>
    <path class="cls-1" d="m22.33,53.3v-15.03h2.96v15.03h-2.96Zm2.82,0v-3.43h1.97v3.43h-1.97Zm1.97,0v-3.43c.09,0,.17.16.24.47.07.31.1.72.1,1.23s-.04.94-.1,1.26c-.07.32-.15.48-.24.48Z"/>
    <path class="cls-1" d="m27.13,53.3c-.1,0-.18-.16-.25-.48s-.09-.74-.09-1.26.03-.92.09-1.23c.06-.31.14-.47.25-.47v3.43Zm0,0v-3.43h.97c.43,0,.76-.04.99-.13s.38-.23.48-.43.14-.49.14-.87v-3.23h2.96v3.23c0,1.01-.18,1.88-.55,2.61-.37.73-.89,1.29-1.56,1.67-.67.39-1.49.58-2.44.58h-.97Zm7.12,0c-.77,0-1.43-.19-1.98-.58-.55-.38-.97-.94-1.25-1.67-.28-.73-.42-1.6-.42-2.61h2.06c0,.37.04.66.13.87s.24.35.48.43c.23.08.56.13.99.13h11.42v3.43h-11.42Zm8.47,0v-4.4c0-.58-.11-1.06-.32-1.44-.21-.38-.51-.66-.89-.85-.38-.19-.81-.28-1.3-.28-.45,0-.92.08-1.39.25-.48.17-.93.41-1.36.71-.43.31-.82.69-1.16,1.14-.34.45-.61.96-.81,1.53s-.3,1.18-.3,1.85h-2.46c0-.52.05-1.09.14-1.72.1-.62.26-1.27.49-1.93.23-.66.53-1.3.89-1.91.36-.61.81-1.16,1.35-1.65s1.17-.88,1.9-1.17c.73-.29,1.56-.43,2.49-.43s1.82.16,2.52.48,1.29.75,1.76,1.3c.46.55.81,1.18,1.04,1.88s.35,1.45.35,2.23v4.4h-2.96Zm1.56,0v-3.43h3.35v3.43h-3.35Zm3.35,0v-3.43c.1,0,.18.16.25.47.06.31.09.72.09,1.23s-.03.94-.09,1.26c-.06.32-.14.48-.25.48Z"/>
    <path class="cls-1" d="m47.63,53.3c-.1,0-.18-.16-.25-.48s-.09-.74-.09-1.26.03-.92.09-1.23c.06-.31.14-.47.25-.47v3.43Zm0,0v-3.43h11.08l-.63,3.43h-10.46Zm7.53-2.28v-2.29c0-.36-.11-.69-.34-.97-.23-.28-.56-.51-.99-.67-.43-.16-.96-.25-1.6-.25-.44,0-.9.05-1.36.15-.46.1-.87.22-1.21.36l-1.29-2.86c.59-.36,1.21-.63,1.87-.82.66-.18,1.33-.27,2.01-.27.77,0,1.5.12,2.2.35.7.23,1.32.58,1.88,1.03.55.45.99,1.01,1.31,1.67s.48,1.42.48,2.28v2.29h-2.96Zm-2.92-9.47c-.48,0-.87-.15-1.17-.46-.31-.31-.46-.7-.46-1.17s.15-.87.46-1.17.7-.46,1.17-.46.88.15,1.18.46c.3.31.45.7.45,1.17s-.15.87-.45,1.17c-.3.31-.69.46-1.18.46Zm5.47,11.75v-3.43h2.38v3.43h-2.38Zm2.38,0v-3.43c.1,0,.18.16.25.47.06.31.09.72.09,1.23s-.03.94-.09,1.26c-.06.32-.14.48-.25.48Z"/>
    <path class="cls-1" d="m60.09,53.3c-.1,0-.18-.16-.25-.48s-.09-.74-.09-1.26.03-.92.09-1.23c.06-.31.14-.47.25-.47v3.43Zm0,0v-3.43h.85c.43,0,.76-.04,1-.13.23-.08.39-.23.48-.43s.13-.49.13-.87v-10.17h2.96v10.17c0,1.01-.18,1.88-.54,2.6-.36.73-.88,1.28-1.56,1.67-.68.38-1.5.58-2.45.59h-.85Zm7,0c-.95,0-1.77-.19-2.45-.58-.68-.38-1.2-.94-1.56-1.67-.36-.73-.54-1.6-.54-2.61h2.96c0,.37.04.66.14.87s.25.35.48.43.56.13.99.13h.41v3.43h-.41Zm.41,0v-3.43c.1,0,.18.16.25.47.06.31.09.72.09,1.23s-.03.94-.09,1.26-.14.48-.25.48Z"/>
    <path class="cls-1" d="m67.5,53.3c-.1,0-.18-.16-.25-.48s-.09-.74-.09-1.26.03-.92.09-1.23c.06-.31.14-.47.25-.47v3.43Zm0,0v-3.43c.45,0,.84-.06,1.16-.19.32-.12.63-.33.91-.62s.58-.67.9-1.13c.29-.41.61-.82.95-1.24.34-.42.72-.81,1.14-1.16.42-.36.89-.64,1.4-.86.52-.22,1.1-.32,1.76-.32s1.22.14,1.73.41c.51.27.94.65,1.3,1.13.36.48.63,1.05.82,1.71.19.66.28,1.38.28,2.16,0,.66-.08,1.35-.24,2.08-.16.73-.38,1.4-.66,2.01l-2.86-1.14c.26-.45.46-.93.6-1.44.14-.5.2-1.01.2-1.52,0-.7-.11-1.22-.32-1.54-.22-.32-.52-.48-.9-.48-.26,0-.54.08-.84.25-.3.16-.62.41-.94.74-.33.33-.67.75-1.04,1.26-.54.78-1.08,1.42-1.61,1.9-.53.49-1.09.85-1.68,1.08s-1.28.35-2.07.35Zm11.29-2.89l.17,3.43c-1.17.07-2.18.06-3.03-.03-.86-.08-1.6-.24-2.24-.45-.64-.22-1.21-.49-1.71-.83-.5-.34-.96-.74-1.39-1.19l1.92-2.02c.37.38.84.67,1.4.84.56.18,1.24.28,2.05.3s1.75,0,2.84-.05Zm2.58,2.89c-.91,0-1.69-.19-2.34-.58-.65-.38-1.16-.94-1.51-1.67-.36-.73-.54-1.6-.54-2.61v-.29l2.62.2.17.39c.03.28.1.51.2.68.1.17.26.29.48.35s.53.09.92.09h.58v3.43h-.58Zm.58,0v-3.43c.1,0,.18.16.25.47.06.31.09.72.09,1.23s-.03.94-.09,1.26-.14.48-.25.48Z"/>
    <path class="cls-1" d="m81.95,53.3c-.1,0-.18-.16-.25-.48s-.09-.74-.09-1.26.03-.92.09-1.23c.06-.31.14-.47.25-.47v3.43Zm0,0v-3.43h2.5v-11.59h2.94v15.03h-5.44Z"/>
    <path class="cls-1" d="m89.5,53.3v-15.03h2.96v15.03h-2.96Z"/>
    <path class="cls-1" d="m99.38,53.3c-1.02,0-1.9-.21-2.65-.63s-1.33-.98-1.74-1.67c-.41-.7-.62-1.46-.62-2.3,0-.68.13-1.3.39-1.87.26-.57.62-1.06,1.08-1.49.46-.42.99-.76,1.6-.99s1.26-.36,1.96-.36,1.34.1,1.99.3c.65.2,1.22.41,1.72.64l-1.19,3.04c-.95-.57-1.79-.85-2.52-.85-.43,0-.8.08-1.1.24-.31.16-.54.36-.71.6-.17.24-.25.5-.25.76,0,.24.08.47.23.7.15.23.38.41.69.55.31.14.69.21,1.14.21h2.79v3.13h-2.79Zm-4.25,4.95v-3.43h2.91c.82,0,1.38-.12,1.67-.35s.45-.56.45-.98v-8.57h2.94v8.57c0,.97-.21,1.82-.62,2.53-.41.71-1,1.26-1.76,1.65-.76.38-1.66.58-2.69.58h-2.91Z"/>
  </g>
  <g>
    <path class="cls-1" d="m167.36,14.44h-1.7v35.72c0,2.82-2.28,5.1-5.1,5.1h-15.71c-.7,1.98-2.59,3.4-4.81,3.4s-4.11-1.42-4.81-3.4h-15.6c-2.87,0-5.22-2.35-5.22-5.22V14.44h-1.7c-.94,0-1.7.76-1.7,1.7v34.17c0,4.61,3.74,8.35,8.35,8.35h12.46c.7,1.98,2.59,3.4,4.81,3.4h6.8c2.22,0,4.11-1.42,4.81-3.4h12.68c4.5,0,8.14-3.64,8.14-8.14V16.14c0-.94-.76-1.7-1.7-1.7Z"/>
    <path class="cls-1" d="m138.33,50.61V11.6c-2.35-1.97-6.13-3.96-11.91-3.96-.94,0-1.7.76-1.7,1.7v34.02c0,.94.76,1.7,1.7,1.7,7.87,0,11.15,4.35,11.91,5.56Z"/>
    <path class="cls-1" d="m160.44,51.86c.94,0,1.7-.76,1.7-1.7V12.74c0-.94-.76-1.7-1.7-1.7h-13.61c-1.92,0-3.68.67-5.1,1.74v40.78c0-.94.76-1.7,1.7-1.7h17.01Z"/>
    <path class="cls-1" d="m119.62,11.04c-.94,0-1.7.76-1.7,1.7v37.42c0,.94.76,1.7,1.7,1.7h15.4c-.95-1.15-3.45-3.4-8.6-3.4-2.81,0-5.1-2.29-5.1-5.1V11.04h-1.7Z"/>
  </g>
</svg>