<?xml version="1.0" encoding="UTF-8"?>
<svg id="Layer_1" data-name="Layer 1" xmlns="http://www.w3.org/2000/svg" viewBox="0 0 164 68.92">
  <defs>
    <style>
      .cls-1 {
        fill: #717988;
        stroke-width: 0px;
      }
    </style>
  </defs>
  <g>
    <path class="cls-1" d="m15.37,26.84c-.88,0-1.72-.17-2.53-.51s-1.53-.85-2.15-1.52c-.62-.67-1.12-1.5-1.48-2.47-.37-.98-.55-2.1-.55-3.38,0-.47.02-.92.07-1.35.05-.43.12-.86.21-1.3l3.03.58c-.07.34-.12.67-.14,1.01-.02.34-.04.66-.04.97,0,.94.12,1.72.37,2.36.25.64.63,1.12,1.15,1.44.52.32,1.17.49,1.94.49s1.45-.16,2.02-.48c.56-.32,1-.8,1.3-1.44.31-.64.46-1.44.46-2.39V7.13h3.12v11.72c0,1.3-.18,2.44-.55,3.43-.37.99-.87,1.82-1.5,2.5-.64.68-1.36,1.19-2.17,1.54-.81.35-1.66.52-2.55.52Z"/>
    <path class="cls-1" d="m29.11,23.04c-1.08,0-2.02-.22-2.81-.67-.79-.44-1.41-1.04-1.84-1.77-.44-.74-.66-1.55-.66-2.44,0-.72.14-1.38.41-1.98.28-.6.66-1.12,1.14-1.57.49-.45,1.05-.8,1.69-1.05s1.33-.38,2.08-.38,1.42.11,2.11.32c.68.21,1.29.43,1.82.67l-1.26,3.22c-1.01-.6-1.9-.9-2.66-.9-.46,0-.85.08-1.17.25s-.58.38-.76.64c-.18.26-.27.53-.27.8,0,.25.08.5.24.74s.41.44.73.58c.32.15.73.23,1.21.23h2.95v3.31h-2.95Zm-4.5,5.24v-3.64h3.08c.86,0,1.45-.12,1.77-.37.32-.25.48-.59.48-1.04v-9.07h3.11v9.07c0,1.03-.22,1.93-.66,2.68-.44.76-1.06,1.34-1.86,1.75-.8.41-1.75.61-2.84.61h-3.08Z"/>
    <path class="cls-1" d="m35.3,23.04V7.13h3.13v15.91h-3.13Z"/>
    <path class="cls-1" d="m40.3,23.04v-3.64h8.69v3.64h-8.69Zm6.71,0c-.01-1.27-.23-2.4-.65-3.38-.42-.98-1.03-1.81-1.84-2.48s-1.79-1.14-2.95-1.41l.67-3.38c1.62.37,3.02,1.05,4.19,2.04,1.17.99,2.08,2.22,2.73,3.68.65,1.46.98,3.11.99,4.93h-3.13Zm1.03,0v-3.64h3.46v3.64h-3.46Zm3.46,0v-3.64c.1,0,.18.17.25.5.07.33.11.76.11,1.3s-.04,1-.11,1.33c-.07.34-.16.5-.25.5Z"/>
    <path class="cls-1" d="m51.5,23.04c-.11,0-.2-.17-.26-.5-.07-.34-.1-.78-.1-1.33s.03-.97.1-1.3c.07-.33.15-.5.26-.5v3.64Zm0,0v-3.64h4.23v3.64h-4.23Zm4.23,0v-3.64c.11,0,.19.17.26.5.07.33.1.76.1,1.3s-.03,1-.1,1.33c-.07.34-.15.5-.26.5Z"/>
    <path class="cls-1" d="m55.73,23.04c-.11,0-.2-.17-.26-.5-.07-.34-.1-.78-.1-1.33s.03-.97.1-1.3c.07-.33.15-.5.26-.5v3.64Zm0,0v-3.64h4.23v3.64h-4.23Zm4.23,0v-3.64c.11,0,.19.17.26.5.07.33.1.76.1,1.3s-.03,1-.1,1.33c-.07.34-.15.5-.26.5Z"/>
    <path class="cls-1" d="m59.96,23.04c-.11,0-.2-.17-.26-.5-.07-.34-.1-.78-.1-1.33s.03-.97.1-1.3c.07-.33.15-.5.26-.5v3.64Zm0,0v-3.64h4.23v3.64h-4.23Zm4.23,0v-3.64c.11,0,.19.17.26.5.07.33.1.76.1,1.3s-.03,1-.1,1.33c-.07.34-.15.5-.26.5Z"/>
    <path class="cls-1" d="m64.19,23.04c-.11,0-.2-.17-.26-.5-.07-.34-.1-.78-.1-1.33s.03-.97.1-1.3c.07-.33.15-.5.26-.5v3.64Zm0,0v-3.64h4.23v3.64h-4.23Zm4.23,0v-3.64c.11,0,.19.17.26.5.07.33.1.76.1,1.3s-.03,1-.1,1.33c-.07.34-.15.5-.26.5Z"/>
    <path class="cls-1" d="m68.42,23.04c-.11,0-.2-.17-.26-.5-.07-.34-.1-.78-.1-1.33s.03-.97.1-1.3c.07-.33.15-.5.26-.5v3.64Zm0,0v-3.64h4.23v3.64h-4.23Zm4.23,0v-3.64c.11,0,.19.17.26.5.07.33.1.76.1,1.3s-.03,1-.1,1.33c-.07.34-.15.5-.26.5Z"/>
    <path class="cls-1" d="m72.65,23.04c-.11,0-.2-.17-.26-.5-.07-.34-.1-.78-.1-1.33s.03-.97.1-1.3c.07-.33.15-.5.26-.5v3.64Zm0,0v-3.64h4.23v3.64h-4.23Zm4.23,0v-3.64c.11,0,.19.17.26.5.07.33.1.76.1,1.3s-.03,1-.1,1.33c-.07.34-.15.5-.26.5Z"/>
    <path class="cls-1" d="m76.88,23.04c-.11,0-.2-.17-.26-.5-.07-.34-.1-.78-.1-1.33s.03-.97.1-1.3c.07-.33.15-.5.26-.5v3.64Zm0,0v-3.64h4.23v3.64h-4.23Zm4.23,0v-3.64c.11,0,.19.17.26.5.07.33.1.76.1,1.3s-.03,1-.1,1.33c-.07.34-.15.5-.26.5Z"/>
    <path class="cls-1" d="m81.11,23.04c-.11,0-.2-.17-.26-.5-.07-.34-.1-.78-.1-1.33s.03-.97.1-1.3c.07-.33.15-.5.26-.5v3.64Zm0,0v-3.64h11.74l-.67,3.64h-11.07Zm7.97-2.41v-2.43c0-.38-.12-.73-.36-1.03-.24-.3-.59-.54-1.04-.71s-1.02-.26-1.69-.26c-.47,0-.95.05-1.44.16-.49.11-.92.23-1.28.38l-1.37-3.02c.62-.38,1.28-.67,1.98-.86.7-.19,1.4-.29,2.12-.29.82,0,1.59.12,2.33.37.74.25,1.4.61,1.99,1.09.59.48,1.05,1.07,1.39,1.76s.5,1.5.5,2.41v2.43h-3.13Zm-2.36,7.85c-.5,0-.92-.16-1.24-.49s-.49-.74-.49-1.24.16-.92.49-1.24.74-.49,1.24-.49.93.16,1.25.49c.32.32.48.74.48,1.24s-.16.92-.48,1.24c-.32.32-.74.49-1.25.49Z"/>
    <path class="cls-1" d="m14.54,58.22c-1.16,0-2.18-.2-3.04-.6-.86-.4-1.58-.96-2.15-1.68-.57-.72-1-1.55-1.29-2.5-.29-.95-.43-1.98-.43-3.1,0-.43.02-.86.07-1.3s.12-.86.22-1.3l3.02.58c-.07.34-.12.67-.14,1.01-.03.34-.04.67-.04,1.01,0,.92.13,1.7.39,2.34.26.64.67,1.11,1.22,1.43.56.32,1.28.48,2.17.48s1.64-.16,2.24-.48c.61-.32,1.06-.8,1.38-1.44.31-.64.47-1.44.47-2.38v-4.81h3.13v4.81c0,1.13-.16,2.17-.47,3.13s-.78,1.8-1.39,2.52c-.62.72-1.37,1.28-2.27,1.68-.89.4-1.92.6-3.09.6Zm8.91-4.18c-1.15,0-2.06-.41-2.73-1.21-.67-.81-1.04-1.94-1.12-3.38l2.16-.16c.04.29.11.51.21.67.1.16.27.28.51.34.24.07.56.1.97.1h12.08v3.64h-12.08Zm8.96,0v-4.66c0-.61-.11-1.12-.34-1.52-.23-.4-.54-.7-.95-.9s-.86-.3-1.38-.3c-.48,0-.97.09-1.48.27-.5.18-.98.43-1.44.76-.46.32-.86.73-1.22,1.21-.36.48-.65,1.02-.86,1.62-.21.6-.31,1.25-.31,1.96h-2.61c0-.55.05-1.16.15-1.82.1-.66.27-1.34.51-2.04s.55-1.38.95-2.03c.39-.65.87-1.23,1.44-1.75.57-.52,1.24-.93,2.01-1.23.77-.31,1.65-.46,2.65-.46s1.92.17,2.67.5,1.37.79,1.86,1.38.86,1.25,1.1,1.99.36,1.53.36,2.36v4.66h-3.11Zm1.75,0v-3.64h3.71v3.64h-3.71Zm3.71,0v-3.64c.11,0,.2.17.26.5.07.33.1.76.1,1.3s-.03,1-.1,1.33c-.07.34-.15.5-.26.5Z"/>
    <path class="cls-1" d="m37.87,54.04c-.11,0-.2-.17-.26-.5-.07-.34-.1-.78-.1-1.33s.03-.97.1-1.3c.07-.33.15-.5.26-.5v3.64Zm0,0v-3.64h4.23v3.64h-4.23Zm4.23,0v-3.64c.11,0,.19.17.26.5.07.33.1.76.1,1.3s-.03,1-.1,1.33c-.07.34-.15.5-.26.5Z"/>
    <path class="cls-1" d="m42.1,54.04c-.11,0-.2-.17-.26-.5-.07-.34-.1-.78-.1-1.33s.03-.97.1-1.3c.07-.33.15-.5.26-.5v3.64Zm0,0v-3.64h4.23v3.64h-4.23Zm4.23,0v-3.64c.11,0,.19.17.26.5.07.33.1.76.1,1.3s-.03,1-.1,1.33c-.07.34-.15.5-.26.5Z"/>
    <path class="cls-1" d="m46.33,54.04c-.11,0-.2-.17-.26-.5-.07-.34-.1-.78-.1-1.33s.03-.97.1-1.3c.07-.33.15-.5.26-.5v3.64Zm0,0v-3.64h1.03c.46,0,.8-.04,1.04-.14.24-.09.41-.24.5-.46.1-.22.14-.52.14-.92v-3.42h3.13v3.42c0,1.07-.19,1.99-.58,2.76-.39.77-.94,1.37-1.66,1.77-.71.41-1.58.61-2.58.61h-1.03Zm7.54,0c-.82,0-1.51-.2-2.1-.61-.58-.41-1.02-1-1.32-1.77-.3-.77-.45-1.7-.45-2.76h2.18c0,.4.04.7.14.92.09.22.26.37.5.46.25.09.6.14,1.05.14h12.1v3.64h-12.1Zm8.96,0v-4.66c0-.61-.11-1.12-.34-1.52-.23-.4-.54-.7-.95-.9s-.86-.3-1.38-.3c-.48,0-.97.09-1.48.27-.5.18-.98.43-1.44.76-.46.32-.86.73-1.22,1.21-.36.48-.65,1.02-.86,1.62-.21.6-.31,1.25-.31,1.96h-2.61c0-.55.05-1.16.15-1.82.1-.66.28-1.34.52-2.04s.56-1.38.95-2.03c.38-.65.86-1.23,1.43-1.75.57-.52,1.24-.93,2.02-1.23.77-.31,1.65-.46,2.64-.46s1.92.17,2.67.5,1.37.79,1.86,1.38.86,1.25,1.11,1.99.37,1.53.37,2.36v4.66h-3.13Zm1.66,0v-3.64h3.55v3.64h-3.55Zm3.55,0v-3.64c.11,0,.2.17.26.5.07.33.1.76.1,1.3s-.03,1-.1,1.33c-.07.34-.15.5-.26.5Z"/>
    <path class="cls-1" d="m68.04,54.04c-.11,0-.2-.17-.26-.5-.07-.34-.1-.78-.1-1.33s.03-.97.1-1.3c.07-.33.15-.5.26-.5v3.64Zm0,0v-3.64h11.74l-.67,3.64h-11.07Zm7.97-2.41v-2.43c0-.38-.12-.73-.36-1.03-.24-.3-.59-.54-1.04-.71s-1.02-.26-1.69-.26c-.47,0-.95.05-1.44.16-.49.11-.92.23-1.28.38l-1.37-3.02c.62-.38,1.28-.67,1.98-.86.7-.19,1.4-.29,2.12-.29.82,0,1.59.12,2.33.37.74.25,1.4.61,1.99,1.09.59.48,1.05,1.07,1.39,1.76s.5,1.5.5,2.41v2.43h-3.13Zm2.7,2.41v-3.64h2.52v3.64h-2.52Zm2.52,0v-3.64c.11,0,.19.17.26.5.07.33.1.76.1,1.3s-.03,1-.1,1.33c-.07.34-.15.5-.26.5Z"/>
    <path class="cls-1" d="m81.23,54.04c-.11,0-.2-.17-.26-.5-.07-.34-.1-.78-.1-1.33s.03-.97.1-1.3c.07-.33.15-.5.26-.5v3.64Zm0,0v-3.64h2.65v-12.28h3.11v15.91h-5.76Z"/>
    <path class="cls-1" d="m89.23,54.04v-15.91h3.13v15.91h-3.13Z"/>
  </g>
  <g>
    <path class="cls-1" d="m155.44,15.4c0-3.73-3.04-6.77-6.77-6.77h-1.35v5.54c0,1.02-.83,1.85-1.85,1.85s-1.85-.83-1.85-1.85v-5.54h-8.13v5.54c0,1.02-.83,1.85-1.85,1.85s-1.85-.83-1.85-1.85v-5.54h-8.13v5.54c0,1.02-.83,1.85-1.85,1.85s-1.85-.83-1.85-1.85v-5.54h-8.13v5.54c0,1.02-.83,1.85-1.85,1.85s-1.85-.83-1.85-1.85v-5.54h-1.35c-3.73,0-6.77,3.04-6.77,6.77v5.54h55.41v-5.54Z"/>
    <path class="cls-1" d="m111.85,6.78c0-1.02-.83-1.85-1.85-1.85s-1.85.83-1.85,1.85v1.85h3.69v-1.85Z"/>
    <path class="cls-1" d="m147.31,6.78c0-1.02-.83-1.85-1.85-1.85s-1.85.83-1.85,1.85v1.85h3.69v-1.85Z"/>
    <path class="cls-1" d="m135.49,6.78c0-1.02-.83-1.85-1.85-1.85s-1.85.83-1.85,1.85v1.85h3.69v-1.85Z"/>
    <path class="cls-1" d="m123.67,6.78c0-1.02-.83-1.85-1.85-1.85s-1.85.83-1.85,1.85v1.85h3.69v-1.85Z"/>
    <path class="cls-1" d="m149.53,37.2c2.08,0,4.07.37,5.91,1.04v-13.6h-55.41v27.71c0,3.06,2.49,5.54,5.54,5.54h27.07c-.23-1.11-.35-2.27-.35-3.45,0-9.51,7.73-17.24,17.24-17.24Zm-6.9-6.1h3.08c1.02,0,1.85.83,1.85,1.85s-.83,1.85-1.85,1.85h-3.08c-1.02,0-1.85-.83-1.85-1.85s.83-1.85,1.85-1.85Zm-10.96,0h3.08c1.02,0,1.85.83,1.85,1.85s-.83,1.85-1.85,1.85h-3.08c-1.02,0-1.85-.83-1.85-1.85s.83-1.85,1.85-1.85Zm-18.84,20.32h-3.08c-1.02,0-1.85-.83-1.85-1.85s.83-1.85,1.85-1.85h3.08c1.02,0,1.85.83,1.85,1.85s-.83,1.85-1.85,1.85Zm0-8.31h-3.08c-1.02,0-1.85-.83-1.85-1.85s.83-1.85,1.85-1.85h3.08c1.02,0,1.85.83,1.85,1.85s-.83,1.85-1.85,1.85Zm10.96,8.31h-3.08c-1.02,0-1.85-.83-1.85-1.85s.83-1.85,1.85-1.85h3.08c1.02,0,1.85.83,1.85,1.85s-.83,1.85-1.85,1.85Zm0-8.31h-3.08c-1.02,0-1.85-.83-1.85-1.85s.83-1.85,1.85-1.85h3.08c1.02,0,1.85.83,1.85,1.85s-.83,1.85-1.85,1.85Zm0-8.31h-3.08c-1.02,0-1.85-.83-1.85-1.85s.83-1.85,1.85-1.85h3.08c1.02,0,1.85.83,1.85,1.85s-.83,1.85-1.85,1.85Zm6.03,6.46c0-1.02.83-1.85,1.85-1.85h3.08c1.02,0,1.85.83,1.85,1.85s-.83,1.85-1.85,1.85h-3.08c-1.02,0-1.85-.83-1.85-1.85Z"/>
    <path class="cls-1" d="m149.53,40.89c-7.47,0-13.54,6.08-13.54,13.54s6.08,13.54,13.54,13.54,13.54-6.08,13.54-13.54-6.08-13.54-13.54-13.54Zm6.16,15.39h-6.16c-1.02,0-1.85-.83-1.85-1.85v-6.16c0-1.02.83-1.85,1.85-1.85s1.85.83,1.85,1.85v4.31h4.31c1.02,0,1.85.83,1.85,1.85s-.83,1.85-1.85,1.85Z"/>
  </g>
</svg>