<?xml version="1.0" encoding="UTF-8"?>
<svg id="Layer_1" data-name="Layer 1" xmlns="http://www.w3.org/2000/svg" viewBox="0 0 164 68.92">
  <defs>
    <style>
      .cls-1 {
        fill-rule: evenodd;
      }

      .cls-1, .cls-2 {
        fill: #717988;
        stroke-width: 0px;
      }
    </style>
  </defs>
  <g>
    <path class="cls-2" d="m11.99,26.04c-1.03,0-1.93-.15-2.69-.44-.76-.29-1.39-.7-1.88-1.21-.49-.51-.86-1.08-1.1-1.73-.24-.64-.36-1.32-.36-2.03,0-.65.1-1.3.3-1.96.2-.66.49-1.29.87-1.89l2.41,1.1c-.19.4-.34.78-.43,1.14s-.14.72-.14,1.05c0,.46.1.86.31,1.21.2.35.52.63.96.82s.99.29,1.67.29h7.63v-5.81h3.11v9.45h-10.66Zm.76-10.3c-.4,0-.72-.13-.98-.38s-.39-.58-.39-.97.13-.74.39-1c.26-.26.58-.39.98-.39s.74.13,1,.39.39.59.39,1-.13.72-.39.97c-.26.25-.59.38-1,.38Zm3.13,0c-.4,0-.72-.13-.98-.38-.26-.25-.39-.58-.39-.97s.13-.74.39-1c.26-.26.58-.39.98-.39s.74.13.99.39c.25.26.38.59.38,1s-.12.72-.38.97-.58.38-.99.38Z"/>
    <path class="cls-2" d="m25.06,26.04v-15.91h3.13v15.91h-3.13Zm2.99,0v-3.64h2.09v3.64h-2.09Zm2.09,0v-3.64c.1,0,.18.17.25.5s.11.76.11,1.3-.04,1-.11,1.33-.16.5-.25.5Z"/>
    <path class="cls-2" d="m30.14,26.04c-.11,0-.2-.17-.26-.5-.07-.34-.1-.78-.1-1.33s.03-.97.1-1.3c.07-.33.15-.5.26-.5v3.64Zm0,0v-3.64h4.23v3.64h-4.23Zm4.23,0v-3.64c.11,0,.19.17.26.5.07.33.1.76.1,1.3s-.03,1-.1,1.33c-.07.34-.15.5-.26.5Z"/>
    <path class="cls-2" d="m34.37,26.04c-.11,0-.2-.17-.26-.5-.07-.34-.1-.78-.1-1.33s.03-.97.1-1.3c.07-.33.15-.5.26-.5v3.64Zm0,0v-3.64h4.23v3.64h-4.23Zm4.23,0v-3.64c.11,0,.19.17.26.5.07.33.1.76.1,1.3s-.03,1-.1,1.33c-.07.34-.15.5-.26.5Z"/>
    <path class="cls-2" d="m38.6,26.04c-.11,0-.2-.17-.26-.5-.07-.34-.1-.78-.1-1.33s.03-.97.1-1.3c.07-.33.15-.5.26-.5v3.64Zm0,0v-3.64h4.23v3.64h-4.23Zm4.23,0v-3.64c.11,0,.19.17.26.5.07.33.1.76.1,1.3s-.03,1-.1,1.33c-.07.34-.15.5-.26.5Z"/>
    <path class="cls-2" d="m42.83,26.04c-.11,0-.2-.17-.26-.5-.07-.34-.1-.78-.1-1.33s.03-.97.1-1.3c.07-.33.15-.5.26-.5v3.64Zm0,0v-3.64h4.23v3.64h-4.23Zm4.23,0v-3.64c.11,0,.19.17.26.5.07.33.1.76.1,1.3s-.03,1-.1,1.33c-.07.34-.15.5-.26.5Z"/>
    <path class="cls-2" d="m47.06,26.04c-.11,0-.2-.17-.26-.5-.07-.34-.1-.78-.1-1.33s.03-.97.1-1.3c.07-.33.15-.5.26-.5v3.64Zm2.79-9.45h3.13v9.45h-5.92v-3.64h2.79v-5.81Zm1.57-1.98c-.5,0-.92-.16-1.24-.49s-.49-.74-.49-1.24.16-.92.49-1.24c.32-.32.74-.49,1.24-.49s.93.16,1.25.49c.32.32.48.74.48,1.24s-.16.92-.48,1.24c-.32.32-.74.49-1.25.49Z"/>
    <path class="cls-2" d="m55.39,26.04v-15.91h3.13v15.91h-3.13Zm2.99,0v-3.64h2.09v3.64h-2.09Zm2.09,0v-3.64c.1,0,.18.17.25.5s.11.76.11,1.3-.04,1-.11,1.33-.16.5-.25.5Z"/>
    <path class="cls-2" d="m60.47,26.04c-.11,0-.2-.17-.26-.5-.07-.34-.1-.78-.1-1.33s.03-.97.1-1.3c.07-.33.15-.5.26-.5v3.64Zm0,0v-3.64h4.23v3.64h-4.23Zm4.23,0v-3.64c.11,0,.19.17.26.5.07.33.1.76.1,1.3s-.03,1-.1,1.33c-.07.34-.15.5-.26.5Z"/>
    <path class="cls-2" d="m64.7,26.04c-.11,0-.2-.17-.26-.5-.07-.34-.1-.78-.1-1.33s.03-.97.1-1.3c.07-.33.15-.5.26-.5v3.64Zm0,0v-3.64h1.03c.46,0,.8-.04,1.04-.14.24-.09.41-.24.5-.46.1-.22.14-.52.14-.92v-4.3h3.13v4.3c0,1.07-.19,1.99-.58,2.75-.39.77-.94,1.36-1.66,1.76-.71.41-1.58.62-2.58.63h-1.03Zm2.5,4.34c-.4,0-.72-.13-.98-.39s-.39-.58-.39-.98.13-.72.39-.98c.26-.26.58-.39.98-.39s.73.13.99.39c.26.26.4.58.4.98s-.13.72-.4.98c-.26.26-.59.39-.99.39Zm5.04-4.34c-1.01,0-1.87-.2-2.59-.61-.72-.41-1.27-1-1.66-1.77-.38-.77-.58-1.7-.58-2.76h3.13c0,.4.04.7.14.92.09.22.26.37.5.46.25.09.6.14,1.05.14h.61v3.64h-.61Zm-1.91,4.34c-.4,0-.72-.13-.98-.39s-.39-.58-.39-.98.13-.72.39-.98c.26-.26.58-.39.98-.39s.72.13.98.39.39.58.39.98-.13.72-.39.98c-.26.26-.58.39-.98.39Zm2.52-4.34v-3.64c.11,0,.19.17.26.5.07.33.1.76.1,1.3s-.03,1-.1,1.33c-.07.34-.15.5-.26.5Z"/>
    <path class="cls-2" d="m72.85,26.04c-.11,0-.2-.17-.26-.5-.07-.34-.1-.78-.1-1.33s.03-.97.1-1.3c.07-.33.15-.5.26-.5v3.64Zm0,0v-3.64h4.23v3.64h-4.23Zm4.23,0v-3.64c.11,0,.19.17.26.5.07.33.1.76.1,1.3s-.03,1-.1,1.33c-.07.34-.15.5-.26.5Z"/>
    <path class="cls-2" d="m77.08,26.04c-.11,0-.2-.17-.26-.5-.07-.34-.1-.78-.1-1.33s.03-.97.1-1.3c.07-.33.15-.5.26-.5v3.64Zm0,0v-3.64h1.03c.46,0,.8-.04,1.04-.14.24-.09.41-.24.5-.46.1-.22.14-.52.14-.92v-4.3h3.13v4.3c0,1.07-.19,1.99-.58,2.75-.39.77-.94,1.36-1.66,1.76-.71.41-1.58.62-2.58.63h-1.03Zm4.05,5.44c-.5,0-.92-.16-1.24-.49-.32-.32-.49-.74-.49-1.24s.16-.92.49-1.24c.32-.32.74-.49,1.24-.49s.93.16,1.25.49.48.74.48,1.24-.16.92-.48,1.24-.74.49-1.25.49Zm3.49-5.44c-1.01,0-1.87-.2-2.59-.61-.72-.41-1.27-1-1.66-1.77-.38-.77-.58-1.7-.58-2.76h3.13c0,.4.04.7.14.92.09.22.26.37.5.46.25.09.6.14,1.05.14h.61v3.64h-.61Zm.61,0v-3.64c.11,0,.19.17.26.5.07.33.1.76.1,1.3s-.03,1-.1,1.33c-.07.34-.15.5-.26.5Z"/>
    <path class="cls-2" d="m85.23,26.04c-.11,0-.2-.17-.26-.5-.07-.34-.1-.78-.1-1.33s.03-.97.1-1.3c.07-.33.15-.5.26-.5v3.64Zm0,0v-3.64h2.65v-12.28h3.11v15.91h-5.76Z"/>
    <path class="cls-2" d="m93.23,26.04v-15.91h3.13v15.91h-3.13Z"/>
    <path class="cls-2" d="m11.76,56.23c-.7,0-1.36-.09-2-.27-.64-.18-1.2-.46-1.69-.83s-.88-.83-1.16-1.39-.42-1.19-.42-1.93c0-.83.19-1.56.57-2.21.38-.64.9-1.18,1.58-1.6.67-.43,1.46-.75,2.36-.98s1.87-.35,2.92-.38l.05,3.06c-.68.01-1.29.07-1.83.17-.53.1-.99.25-1.37.43-.38.19-.66.41-.86.67-.19.26-.29.54-.29.85,0,.28.08.52.23.72.16.21.39.36.71.46.32.1.71.15,1.16.15.43,0,.83-.05,1.21-.14.37-.1.73-.23,1.08-.4l1.46,2.7c-.56.3-1.16.53-1.8.67-.64.15-1.27.23-1.91.23Zm-1.89-11.7c-.4,0-.72-.13-.98-.38s-.39-.58-.39-.97.13-.74.39-1c.26-.26.59-.39.98-.39s.74.13,1,.39c.26.26.39.59.39,1s-.13.72-.39.97-.59.38-1,.38Zm3.13,0c-.4,0-.72-.13-.98-.38-.26-.25-.39-.58-.39-.97s.13-.74.39-1,.58-.39.98-.39.74.13.99.39c.25.26.38.59.38,1s-.13.72-.38.97-.58.38-.99.38Zm5.47,12.51c-1.01,0-1.87-.2-2.59-.61-.72-.41-1.27-1-1.66-1.77-.38-.77-.58-1.7-.58-2.76v-5.81h3.13v5.81c0,.4.04.7.13.92.09.22.26.37.5.46.25.09.6.14,1.05.14h.63v3.64h-.63Zm.63,0v-3.64c.1,0,.18.17.25.5.07.33.11.76.11,1.3s-.04,1-.11,1.33c-.07.34-.16.5-.25.5Z"/>
    <path class="cls-2" d="m19.1,57.04c-.11,0-.19-.17-.26-.5s-.1-.78-.1-1.33.03-.97.1-1.3.15-.5.26-.5v3.64Zm0,0v-3.64h4.23v3.64h-4.23Zm4.23,0v-3.64c.11,0,.19.17.26.5.07.33.1.76.1,1.3s-.03,1-.1,1.33c-.07.34-.15.5-.26.5Z"/>
    <path class="cls-2" d="m23.33,57.04c-.11,0-.2-.17-.26-.5-.07-.34-.1-.78-.1-1.33s.03-.97.1-1.3c.07-.33.15-.5.26-.5v3.64Zm0,0v-3.64h4.23v3.64h-4.23Zm4.23,0v-3.64c.11,0,.19.17.26.5.07.33.1.76.1,1.3s-.03,1-.1,1.33c-.07.34-.15.5-.26.5Z"/>
    <path class="cls-2" d="m27.56,57.04c-.11,0-.2-.17-.26-.5-.07-.34-.1-.78-.1-1.33s.03-.97.1-1.3c.07-.33.15-.5.26-.5v3.64Zm0,0v-3.64h4.23v3.64h-4.23Zm4.23,0v-3.64c.11,0,.19.17.26.5.07.33.1.76.1,1.3s-.03,1-.1,1.33c-.07.34-.15.5-.26.5Z"/>
    <path class="cls-2" d="m31.79,57.04c-.11,0-.2-.17-.26-.5-.07-.34-.1-.78-.1-1.33s.03-.97.1-1.3c.07-.33.15-.5.26-.5v3.64Zm0,0v-3.64h1.03c.46,0,.8-.04,1.04-.14.24-.09.41-.24.5-.46.1-.22.14-.52.14-.92v-4.3h3.13v4.3c0,1.07-.19,1.99-.58,2.75-.39.77-.94,1.36-1.66,1.76-.71.41-1.58.62-2.58.63h-1.03Zm2.5,4.34c-.4,0-.72-.13-.98-.39s-.39-.58-.39-.98.13-.72.39-.98c.26-.26.58-.39.98-.39s.73.13.99.39c.26.26.4.58.4.98s-.13.72-.4.98c-.26.26-.59.39-.99.39Zm5.04-4.34c-1.01,0-1.87-.2-2.59-.61-.72-.41-1.27-1-1.66-1.77-.38-.77-.58-1.7-.58-2.76h3.13c0,.4.04.7.14.92.09.22.26.37.5.46.25.09.6.14,1.05.14h.61v3.64h-.61Zm-1.91,4.34c-.4,0-.72-.13-.98-.39s-.39-.58-.39-.98.13-.72.39-.98c.26-.26.58-.39.98-.39s.72.13.98.39.39.58.39.98-.13.72-.39.98c-.26.26-.58.39-.98.39Zm2.52-4.34v-3.64c.11,0,.19.17.26.5.07.33.1.76.1,1.3s-.03,1-.1,1.33c-.07.34-.15.5-.26.5Z"/>
    <path class="cls-2" d="m39.95,57.04c-.11,0-.2-.17-.26-.5-.07-.34-.1-.78-.1-1.33s.03-.97.1-1.3c.07-.33.15-.5.26-.5v3.64Zm0,0v-3.64h2.65v-12.28h3.11v15.91h-5.76Z"/>
    <path class="cls-2" d="m47.94,57.04v-15.91h3.13v15.91h-3.13Zm2.99,0v-3.64h2.09v3.64h-2.09Zm2.09,0v-3.64c.1,0,.18.17.25.5s.11.76.11,1.3-.04,1-.11,1.33-.16.5-.25.5Z"/>
    <path class="cls-2" d="m53.01,57.04c-.11,0-.2-.17-.26-.5-.07-.34-.1-.78-.1-1.33s.03-.97.1-1.3c.07-.33.15-.5.26-.5v3.64Zm0,0v-3.64h4.23v3.64h-4.23Zm4.23,0v-3.64c.11,0,.19.17.26.5.07.33.1.76.1,1.3s-.03,1-.1,1.33c-.07.34-.15.5-.26.5Z"/>
    <path class="cls-2" d="m57.24,57.04c-.11,0-.2-.17-.26-.5-.07-.34-.1-.78-.1-1.33s.03-.97.1-1.3c.07-.33.15-.5.26-.5v3.64Zm0,0v-3.64h4.23v3.64h-4.23Zm4.23,0v-3.64c.11,0,.19.17.26.5.07.33.1.76.1,1.3s-.03,1-.1,1.33c-.07.34-.15.5-.26.5Z"/>
    <path class="cls-2" d="m61.47,57.04c-.11,0-.2-.17-.26-.5-.07-.34-.1-.78-.1-1.33s.03-.97.1-1.3c.07-.33.15-.5.26-.5v3.64Zm0,0v-3.64h4.23v3.64h-4.23Zm4.23,0v-3.64c.11,0,.19.17.26.5.07.33.1.76.1,1.3s-.03,1-.1,1.33c-.07.34-.15.5-.26.5Z"/>
    <path class="cls-2" d="m65.7,57.04c-.11,0-.2-.17-.26-.5-.07-.34-.1-.78-.1-1.33s.03-.97.1-1.3c.07-.33.15-.5.26-.5v3.64Zm0,0v-3.64h4.23v3.64h-4.23Zm4.23,0v-3.64c.11,0,.19.17.26.5.07.33.1.76.1,1.3s-.03,1-.1,1.33c-.07.34-.15.5-.26.5Z"/>
    <path class="cls-2" d="m69.93,57.04c-.11,0-.2-.17-.26-.5-.07-.34-.1-.78-.1-1.33s.03-.97.1-1.3c.07-.33.15-.5.26-.5v3.64Zm0,0v-3.64c.48,0,.89-.07,1.23-.2.34-.13.66-.35.96-.66.3-.31.62-.71.95-1.2.31-.43.65-.87,1.01-1.31.36-.44.76-.86,1.21-1.23.44-.38.94-.68,1.48-.91.55-.23,1.17-.34,1.86-.34s1.3.14,1.84.43,1,.69,1.38,1.2c.38.51.67,1.11.86,1.81s.3,1.46.3,2.29c0,.7-.08,1.43-.25,2.21-.17.77-.4,1.48-.7,2.13l-3.02-1.21c.28-.48.49-.99.63-1.52.14-.53.22-1.07.22-1.61,0-.74-.11-1.29-.34-1.63-.23-.34-.55-.51-.95-.51-.28,0-.57.09-.89.26-.32.17-.65.43-1,.78-.35.35-.71.79-1.1,1.33-.58.83-1.14,1.5-1.7,2.02-.56.52-1.15.9-1.78,1.14-.63.25-1.36.37-2.19.37Zm11.95-3.06l.18,3.64c-1.24.07-2.31.06-3.21-.03s-1.7-.25-2.38-.48c-.68-.23-1.28-.52-1.81-.88-.53-.36-1.02-.78-1.48-1.26l2.03-2.14c.4.41.89.71,1.49.89.59.19,1.32.29,2.17.32.85.02,1.85,0,3.01-.05Zm2.74,3.06c-.96,0-1.79-.2-2.48-.61-.69-.41-1.22-1-1.6-1.77-.38-.77-.57-1.7-.57-2.76v-.31l2.77.22.18.41c.04.3.1.54.21.72.1.18.27.3.51.37.24.07.56.1.97.1h.61v3.64h-.61Zm.61,0v-3.64c.11,0,.2.17.26.5.07.33.1.76.1,1.3s-.03,1-.1,1.33c-.07.34-.15.5-.26.5Z"/>
    <path class="cls-2" d="m85.23,57.04c-.11,0-.2-.17-.26-.5-.07-.34-.1-.78-.1-1.33s.03-.97.1-1.3c.07-.33.15-.5.26-.5v3.64Zm0,0v-3.64h2.65v-12.28h3.11v15.91h-5.76Z"/>
    <path class="cls-2" d="m93.23,57.04v-15.91h3.13v15.91h-3.13Z"/>
  </g>
  <g id="Icon">
    <path class="cls-1" d="m158,49.67h-13.05c-4.17,0-7.55-3.38-7.55-7.55v-5.49c0-4.17,3.38-7.55,7.55-7.55h13.05v-3.43c0-2-.8-3.93-2.21-5.34-1.42-1.41-3.34-2.21-5.34-2.21h-38.46c-2,0-3.93.8-5.34,2.21-1.41,1.42-2.21,3.34-2.21,5.34v27.47c0,2,.8,3.93,2.21,5.34,1.42,1.41,3.34,2.21,5.34,2.21h38.46c2,0,3.93-.8,5.34-2.21,1.41-1.42,2.21-3.34,2.21-5.34v-3.43Zm0-16.48v12.36h-13.05c-1.9,0-3.43-1.54-3.43-3.43v-5.49c0-1.9,1.54-3.43,3.43-3.43h13.05Zm-11.67,3.43c1.52,0,2.75,1.23,2.75,2.75s-1.23,2.75-2.75,2.75-2.75-1.23-2.75-2.75,1.23-2.75,2.75-2.75Z"/>
    <path class="cls-1" d="m142.45,15.34h8c.52,0,1.05.04,1.56.12l1.3-2.8c.48-1.03.04-2.26-.99-2.74l-17.43-8.13c-1.03-.48-2.26-.03-2.74,1l-1.48,3.16,9.06,4.22c2.01.94,3.06,3.08,2.71,5.16h0Z"/>
    <path class="cls-1" d="m113.84,15.34h25.76c.43-1.02-.02-2.2-1.03-2.67l-17.43-8.13c-1.03-.48-2.26-.03-2.74,1l-4.57,9.8Z"/>
  </g>
</svg>