<?xml version="1.0" encoding="UTF-8"?>
<svg id="Layer_1" data-name="Layer 1" xmlns="http://www.w3.org/2000/svg" viewBox="0 0 164 68.92">
  <defs>
    <style>
      .cls-1 {
        fill: #717988;
        stroke-width: 0px;
      }
    </style>
  </defs>
  <g>
    <path class="cls-1" d="m8.77,29.81c-.05-.43-.1-.89-.14-1.39s-.1-.98-.14-1.47-.08-.93-.11-1.34c-.02-.41-.04-.74-.04-1.01,0-.74.1-1.46.31-2.13s.51-1.28.91-1.81c.4-.53.89-.95,1.46-1.25.57-.31,1.22-.46,1.95-.46.23,0,.55.04.97.13s.92.22,1.49.38,1.21.36,1.9.58c.69.23,1.42.49,2.21.79l-.67,2.77c-.59-.13-1.19-.26-1.81-.39-.62-.13-1.2-.24-1.75-.34-.55-.1-1.02-.18-1.43-.24-.41-.06-.71-.09-.9-.09-.25,0-.49.06-.73.18-.23.12-.43.33-.58.64-.16.31-.23.72-.23,1.25,0,.23.02.54.04.94.03.4.07.84.12,1.34.05.5.1,1,.15,1.49.05.5.1.97.15,1.41h-3.13Zm10.1-6.19l-3.06-1.22c.34-.5.59-1.05.77-1.64.17-.59.26-1.18.26-1.76,0-.74-.12-1.29-.35-1.63-.23-.34-.55-.51-.95-.51-.26,0-.54.08-.84.23-.29.15-.6.38-.91.68-.31.31-.64.69-.99,1.14l-2.77-1.84c.31-.43.65-.87,1.02-1.31.37-.44.77-.85,1.21-1.22s.92-.68,1.46-.91c.53-.23,1.12-.35,1.77-.35.72,0,1.36.14,1.91.43.55.29,1.02.68,1.39,1.19s.67,1.1.86,1.78.3,1.43.3,2.25-.1,1.62-.29,2.44c-.19.82-.46,1.57-.79,2.26Zm2.72-.58c-.95,0-1.77-.2-2.46-.61-.69-.41-1.23-1-1.61-1.77-.38-.77-.58-1.7-.58-2.76v-.31l2.79.22.18.41c.02.3.09.54.19.72.1.18.27.3.51.37.24.07.56.1.97.1h.63v3.64h-.63Zm.63,0v-3.64c.11,0,.2.17.26.5.07.33.1.76.1,1.3s-.03,1-.1,1.33c-.07.34-.15.5-.26.5Z"/>
    <path class="cls-1" d="m22.21,23.04c-.11,0-.2-.17-.26-.5-.07-.34-.1-.78-.1-1.33s.03-.97.1-1.3c.07-.33.15-.5.26-.5v3.64Zm0,0v-3.64h4.23v3.64h-4.23Zm4.23,0v-3.64c.11,0,.19.17.26.5.07.33.1.76.1,1.3s-.03,1-.1,1.33c-.07.34-.15.5-.26.5Z"/>
    <path class="cls-1" d="m26.44,23.04c-.11,0-.2-.17-.26-.5-.07-.34-.1-.78-.1-1.33s.03-.97.1-1.3c.07-.33.15-.5.26-.5v3.64Zm0,0v-3.64h4.23v3.64h-4.23Zm4.23,0v-3.64c.11,0,.19.17.26.5.07.33.1.76.1,1.3s-.03,1-.1,1.33c-.07.34-.15.5-.26.5Z"/>
    <path class="cls-1" d="m30.67,23.04c-.11,0-.2-.17-.26-.5-.07-.34-.1-.78-.1-1.33s.03-.97.1-1.3c.07-.33.15-.5.26-.5v3.64Zm0,0v-3.64h1.03c.46,0,.8-.04,1.04-.14.24-.09.41-.24.5-.46.1-.22.14-.52.14-.92v-4.3h3.13v4.3c0,1.07-.19,1.99-.58,2.75-.39.77-.94,1.36-1.66,1.76-.71.41-1.58.62-2.58.63h-1.03Zm2.5,4.34c-.4,0-.72-.13-.98-.39s-.39-.58-.39-.98.13-.72.39-.98c.26-.26.58-.39.98-.39s.73.13.99.39c.26.26.4.58.4.98s-.13.72-.4.98c-.26.26-.59.39-.99.39Zm5.04-4.34c-1.01,0-1.87-.2-2.59-.61-.72-.41-1.27-1-1.66-1.77-.38-.77-.58-1.7-.58-2.76h3.13c0,.4.04.7.14.92.09.22.26.37.5.46.25.09.6.14,1.05.14h.61v3.64h-.61Zm-1.91,4.34c-.4,0-.72-.13-.98-.39s-.39-.58-.39-.98.13-.72.39-.98c.26-.26.58-.39.98-.39s.72.13.98.39.39.58.39.98-.13.72-.39.98c-.26.26-.58.39-.98.39Zm2.52-4.34v-3.64c.11,0,.19.17.26.5.07.33.1.76.1,1.3s-.03,1-.1,1.33c-.07.34-.15.5-.26.5Z"/>
    <path class="cls-1" d="m38.83,23.04c-.11,0-.2-.17-.26-.5-.07-.34-.1-.78-.1-1.33s.03-.97.1-1.3c.07-.33.15-.5.26-.5v3.64Zm0,0v-3.64h4.23v3.64h-4.23Zm4.23,0v-3.64c.11,0,.19.17.26.5.07.33.1.76.1,1.3s-.03,1-.1,1.33c-.07.34-.15.5-.26.5Z"/>
    <path class="cls-1" d="m43.06,23.04c-.11,0-.2-.17-.26-.5-.07-.34-.1-.78-.1-1.33s.03-.97.1-1.3c.07-.33.15-.5.26-.5v3.64Zm0,0v-3.64h4.23v3.64h-4.23Zm4.23,0v-3.64c.11,0,.19.17.26.5.07.33.1.76.1,1.3s-.03,1-.1,1.33c-.07.34-.15.5-.26.5Z"/>
    <path class="cls-1" d="m47.29,23.04c-.11,0-.2-.17-.26-.5-.07-.34-.1-.78-.1-1.33s.03-.97.1-1.3c.07-.33.15-.5.26-.5v3.64Zm0,0v-3.64h4.23v3.64h-4.23Zm4.23,0v-3.64c.11,0,.19.17.26.5.07.33.1.76.1,1.3s-.03,1-.1,1.33c-.07.34-.15.5-.26.5Z"/>
    <path class="cls-1" d="m51.52,23.04c-.11,0-.2-.17-.26-.5-.07-.34-.1-.78-.1-1.33s.03-.97.1-1.3c.07-.33.15-.5.26-.5v3.64Zm0,0v-3.64h1.03c.46,0,.8-.04,1.04-.14.24-.09.41-.24.5-.46.1-.22.14-.52.14-.92v-4.3h3.13v4.3c0,1.07-.19,1.99-.58,2.75-.39.77-.94,1.36-1.66,1.76-.71.41-1.58.62-2.58.63h-1.03Zm2.5,4.34c-.4,0-.72-.13-.98-.39s-.39-.58-.39-.98.13-.72.39-.98c.26-.26.58-.39.98-.39s.73.13.99.39c.26.26.4.58.4.98s-.13.72-.4.98c-.26.26-.59.39-.99.39Zm5.04-4.34c-1.01,0-1.87-.2-2.59-.61-.72-.41-1.27-1-1.66-1.77-.38-.77-.58-1.7-.58-2.76h3.13c0,.4.04.7.14.92.09.22.26.37.5.46.25.09.6.14,1.05.14h.61v3.64h-.61Zm-1.91,4.34c-.4,0-.72-.13-.98-.39s-.39-.58-.39-.98.13-.72.39-.98c.26-.26.58-.39.98-.39s.72.13.98.39.39.58.39.98-.13.72-.39.98c-.26.26-.58.39-.98.39Zm2.52-4.34v-3.64c.11,0,.19.17.26.5.07.33.1.76.1,1.3s-.03,1-.1,1.33c-.07.34-.15.5-.26.5Z"/>
    <path class="cls-1" d="m59.67,23.04c-.11,0-.2-.17-.26-.5-.07-.34-.1-.78-.1-1.33s.03-.97.1-1.3c.07-.33.15-.5.26-.5v3.64Zm0,0v-3.64c.67,0,1.3-.01,1.88-.04s1.12-.05,1.61-.07c.1-.01.18.02.25.11s.15.17.22.24.15.12.23.12c1.04-.12,1.88-.28,2.5-.48.62-.2,1.07-.43,1.35-.7.28-.27.41-.57.41-.89,0-.28-.07-.52-.22-.74-.14-.22-.35-.39-.6-.51s-.56-.19-.91-.19-.66.07-.93.21c-.27.14-.48.32-.63.53s-.22.45-.22.7c0,.31.14.61.43.88s.75.52,1.4.72c.64.2,1.5.37,2.58.49.08,0,.16-.04.23-.13.07-.08.15-.17.23-.24.08-.08.15-.11.22-.1.49.02,1.02.04,1.58.06.56.02,1.15.03,1.79.03v3.64c-1.69,0-3.24-.11-4.65-.32s-2.63-.55-3.67-.99c-1.04-.44-1.84-1.01-2.41-1.71-.57-.7-.85-1.52-.85-2.48,0-.86.22-1.62.67-2.27.44-.65,1.03-1.16,1.77-1.53s1.56-.56,2.46-.56,1.72.18,2.46.55c.74.37,1.33.88,1.77,1.53.44.65.67,1.42.67,2.29s-.23,1.61-.68,2.23c-.45.62-1.06,1.15-1.84,1.58-.77.43-1.66.76-2.65,1-1,.24-2.04.41-3.14.52-1.1.11-2.2.16-3.3.16Zm5.15-11.47c-.4,0-.72-.13-.98-.38s-.39-.58-.39-.97.13-.74.39-1c.26-.26.58-.39.98-.39s.74.13,1,.39c.26.26.39.59.39,1s-.13.72-.39.97c-.26.25-.59.38-1,.38Zm3.13,0c-.4,0-.72-.13-.98-.38s-.39-.58-.39-.97.13-.74.39-1c.26-.26.58-.39.98-.39s.74.13.99.39c.25.26.38.59.38,1s-.13.72-.38.97c-.25.25-.58.38-.99.38Zm5.13,11.47v-3.64c.11,0,.19.17.26.5.07.33.1.76.1,1.3s-.03,1-.1,1.33c-.07.34-.15.5-.26.5Z"/>
    <path class="cls-1" d="m73.08,23.04c-.11,0-.2-.17-.26-.5-.07-.34-.1-.78-.1-1.33s.03-.97.1-1.3c.07-.33.15-.5.26-.5v3.64Zm0,0v-3.64h1.03c.46,0,.8-.04,1.04-.14.24-.09.41-.24.5-.46.1-.22.14-.52.14-.92v-4.3h3.13v4.3c0,1.07-.19,1.99-.58,2.75-.39.77-.94,1.36-1.66,1.76-.71.41-1.58.62-2.58.63h-1.03Zm2.5-11.07c-.4,0-.72-.13-.98-.38-.26-.25-.39-.58-.39-.97s.13-.74.39-1c.26-.26.58-.39.98-.39s.74.13,1,.39.39.59.39,1-.13.72-.39.97-.59.38-1,.38Zm5.04,11.07c-1.01,0-1.87-.2-2.59-.61-.72-.41-1.27-1-1.66-1.77-.38-.77-.58-1.7-.58-2.76h3.13c0,.4.04.7.14.92.09.22.26.37.5.46.25.09.6.14,1.05.14h.61v3.64h-.61Zm-1.91-11.07c-.4,0-.72-.13-.98-.38-.26-.25-.39-.58-.39-.97s.13-.74.39-1c.26-.26.58-.39.98-.39s.74.13.99.39.38.59.38,1-.13.72-.38.97-.58.38-.99.38Zm2.52,11.07v-3.64c.11,0,.19.17.26.5.07.33.1.76.1,1.3s-.03,1-.1,1.33c-.07.34-.15.5-.26.5Z"/>
    <path class="cls-1" d="m81.23,23.04c-.11,0-.2-.17-.26-.5-.07-.34-.1-.78-.1-1.33s.03-.97.1-1.3c.07-.33.15-.5.26-.5v3.64Zm0,0v-3.64h2.65V7.13h3.11v15.91h-5.76Z"/>
    <path class="cls-1" d="m89.23,23.04V7.13h3.13v15.91h-3.13Z"/>
    <path class="cls-1" d="m14.27,59.35c-1.73,0-3.19-.3-4.39-.91-1.2-.61-2.11-1.49-2.74-2.64-.62-1.15-.94-2.53-.94-4.14,0-.41.02-.83.06-1.26.04-.43.1-.87.17-1.31l2.86.56c-.06.41-.1.76-.13,1.07-.03.31-.04.6-.04.87,0,1.45.4,2.5,1.21,3.15.8.65,2.09.97,3.87.97,1.04,0,1.9-.09,2.56-.27.67-.18,1.16-.41,1.48-.68.32-.28.48-.55.48-.83,0-.17-.06-.33-.18-.49-.12-.16-.29-.32-.51-.48-.22-.16-.48-.31-.77-.48-.29-.16-.62-.32-.96-.48-.48-.24-.96-.5-1.45-.76-.49-.27-.93-.58-1.33-.92-.4-.34-.73-.74-.97-1.19s-.37-.97-.37-1.56c0-.52.1-1.03.31-1.53s.51-.96.91-1.36c.4-.4.9-.72,1.5-.96.6-.24,1.3-.36,2.09-.36s1.52.12,2.27.36c.74.24,1.48.59,2.21,1.04l-1.4,2.74c-.53-.29-1.05-.48-1.56-.58-.51-.1-.96-.15-1.34-.15-.56,0-1.02.1-1.36.29-.34.19-.51.43-.51.7,0,.16.05.3.14.42.1.13.23.25.41.38s.4.26.67.41c.26.14.56.3.9.47.53.28,1.05.56,1.57.86.52.3,1,.63,1.43.99s.78.76,1.04,1.21c.26.45.39.96.39,1.52,0,.44-.09.91-.27,1.39s-.46.96-.85,1.43c-.38.47-.88.89-1.48,1.27s-1.31.68-2.13.9c-.82.22-1.77.33-2.85.33Zm-1.55,4.36c-.4,0-.72-.13-.98-.39-.26-.26-.39-.58-.39-.98s.13-.72.39-.98c.26-.26.58-.39.98-.39s.73.13.99.39c.26.26.4.58.4.98s-.13.72-.4.98c-.26.26-.59.39-.99.39Zm3.13,0c-.4,0-.72-.13-.98-.39-.26-.26-.39-.58-.39-.98s.13-.72.39-.98c.26-.26.58-.39.98-.39s.72.13.98.39c.26.26.39.58.39.98s-.13.72-.39.98c-.26.26-.58.39-.98.39Z"/>
    <path class="cls-1" d="m22.79,55.79c.62-.02,1.11-.1,1.45-.22.34-.12.58-.29.72-.51.14-.22.21-.5.21-.84v-9.63h3.13v9.63c0,.98-.2,1.84-.6,2.57-.4.73-.97,1.31-1.7,1.73-.73.42-1.61.66-2.63.72l-.58-3.46Zm4.81-1.75v-3.64h2.79v3.64h-2.79Zm2.79,0v-3.64c.1,0,.18.17.25.5.07.33.11.76.11,1.3s-.04,1-.11,1.33c-.07.34-.16.5-.25.5Z"/>
    <path class="cls-1" d="m30.38,54.04c-.11,0-.2-.17-.26-.5-.07-.34-.1-.78-.1-1.33s.03-.97.1-1.3c.07-.33.15-.5.26-.5v3.64Zm0,0v-3.64h4.23v3.64h-4.23Zm4.23,0v-3.64c.11,0,.19.17.26.5.07.33.1.76.1,1.3s-.03,1-.1,1.33c-.07.34-.15.5-.26.5Z"/>
    <path class="cls-1" d="m34.61,54.04c-.11,0-.2-.17-.26-.5-.07-.34-.1-.78-.1-1.33s.03-.97.1-1.3c.07-.33.15-.5.26-.5v3.64Zm0,0v-3.64h4.23v3.64h-4.23Zm4.23,0v-3.64c.11,0,.19.17.26.5.07.33.1.76.1,1.3s-.03,1-.1,1.33c-.07.34-.15.5-.26.5Z"/>
    <path class="cls-1" d="m38.84,54.04c-.11,0-.2-.17-.26-.5-.07-.34-.1-.78-.1-1.33s.03-.97.1-1.3c.07-.33.15-.5.26-.5v3.64Zm0,0v-3.64h4.23v3.64h-4.23Zm4.23,0v-3.64c.11,0,.19.17.26.5.07.33.1.76.1,1.3s-.03,1-.1,1.33c-.07.34-.15.5-.26.5Z"/>
    <path class="cls-1" d="m43.07,54.04c-.11,0-.2-.17-.26-.5-.07-.34-.1-.78-.1-1.33s.03-.97.1-1.3c.07-.33.15-.5.26-.5v3.64Zm0,0v-3.64h4.23v3.64h-4.23Zm4.23,0v-3.64c.11,0,.19.17.26.5.07.33.1.76.1,1.3s-.03,1-.1,1.33c-.07.34-.15.5-.26.5Z"/>
    <path class="cls-1" d="m47.3,54.04c-.11,0-.2-.17-.26-.5-.07-.34-.1-.78-.1-1.33s.03-.97.1-1.3c.07-.33.15-.5.26-.5v3.64Zm7.61,5.54c-.73,0-1.46-.13-2.18-.4-.72-.26-1.38-.65-1.98-1.15-.6-.5-1.08-1.13-1.45-1.88s-.55-1.61-.55-2.58v-2.41c0-1.19.15-2.26.46-3.2s.73-1.75,1.27-2.42c.54-.67,1.18-1.17,1.91-1.52.73-.35,1.54-.52,2.41-.52s1.72.19,2.43.57c.71.38,1.27.9,1.67,1.57.41.67.61,1.44.61,2.31s-.21,1.71-.64,2.46-1.03,1.39-1.8,1.93c-.77.54-1.68.96-2.73,1.26s-2.18.45-3.42.45h-3.64v-3.64h4.45c.91,0,1.72-.11,2.41-.33.7-.22,1.24-.52,1.64-.9.4-.38.59-.8.59-1.27,0-.28-.07-.51-.21-.71-.14-.2-.33-.35-.58-.45s-.56-.15-.92-.15c-.56,0-1.06.15-1.48.46-.42.31-.74.79-.97,1.46-.23.67-.34,1.55-.34,2.66v2.43c0,.56.12,1.07.36,1.5.24.44.57.78.99,1.04.42.25.89.38,1.42.38.37,0,.68-.07.94-.2.25-.13.45-.31.58-.55.14-.23.21-.52.21-.85,0-.41-.11-.84-.31-1.29-.21-.45-.54-.83-1-1.14l1.3-1.91c2.1,1.07,3.15,2.62,3.15,4.64,0,.96-.21,1.76-.64,2.41s-.99,1.14-1.68,1.47c-.7.33-1.46.5-2.29.5Zm6.16-5.54c-1.45,0-2.65-.16-3.61-.47-.95-.31-1.75-.68-2.38-1.1l1.73-3.04c.44.3,1.04.54,1.78.71.74.17,1.57.26,2.48.26v3.64Zm0,0v-3.64c.11,0,.2.17.26.5.07.33.1.76.1,1.3s-.03,1-.1,1.33c-.07.34-.15.5-.26.5Z"/>
    <path class="cls-1" d="m61.07,54.04c-.11,0-.2-.17-.26-.5-.07-.34-.1-.78-.1-1.33s.03-.97.1-1.3c.07-.33.15-.5.26-.5v3.64Zm0,0v-3.64h1.01c.47,0,.82-.04,1.06-.14.24-.09.41-.24.5-.46.1-.22.14-.52.14-.92v-2.54h3.11v2.54c0,1.07-.19,1.99-.58,2.76-.38.77-.93,1.37-1.65,1.77-.71.41-1.58.61-2.6.61h-1.01Zm7.9,0c-.64,0-1.25-.15-1.83-.44-.58-.29-1.07-.75-1.46-1.38-.39-.62-.6-1.42-.64-2.38l1.75-.83c.02.49.19.87.5,1.12.31.26.65.39,1.01.39.38,0,.73-.13,1.04-.41.31-.27.46-.68.46-1.23v-3.42h3.13v4.07c0,1.03-.19,1.88-.58,2.55-.38.67-.88,1.16-1.48,1.48-.6.32-1.24.48-1.91.48Zm.83-13.81c.4,0,.73.13.99.38s.4.58.4.97-.13.73-.4.99-.59.4-.99.4-.72-.13-.98-.4-.39-.59-.39-.99.13-.72.39-.97.58-.38.98-.38Zm1.57-2.75c.38,0,.7.12.95.37.25.25.37.56.37.93,0,.4-.12.72-.37.96-.25.25-.56.37-.95.37s-.7-.12-.95-.37-.38-.57-.38-.96c0-.37.13-.68.38-.93.25-.25.57-.37.95-.37Zm3.58,16.56c-.64,0-1.25-.15-1.83-.44-.58-.29-1.06-.75-1.45-1.38-.38-.62-.59-1.42-.63-2.38l1.75-.83c.01.49.17.87.49,1.12.31.26.65.39,1.01.39.38,0,.73-.13,1.04-.41.31-.27.46-.68.46-1.23v-4.3h3.13v4.95c0,1.03-.19,1.88-.58,2.55s-.88,1.16-1.48,1.48c-.6.32-1.24.48-1.91.48Zm-2.02-13.81c.4,0,.72.13.98.38s.39.58.39.97-.13.73-.39.99-.58.4-.98.4-.72-.13-.98-.4-.39-.59-.39-.99.13-.72.39-.97.58-.38.98-.38Zm7.67,13.81c-1.01,0-1.87-.2-2.59-.61-.72-.41-1.27-1-1.66-1.77-.38-.77-.58-1.7-.58-2.76h3.13c0,.4.05.7.14.92.1.22.26.37.5.46.24.09.59.14,1.04.14h.63v3.64h-.63Zm.63,0v-3.64c.11,0,.19.17.26.5.07.33.1.76.1,1.3s-.03,1-.1,1.33c-.07.34-.15.5-.26.5Z"/>
    <path class="cls-1" d="m81.23,54.04c-.11,0-.2-.17-.26-.5-.07-.34-.1-.78-.1-1.33s.03-.97.1-1.3c.07-.33.15-.5.26-.5v3.64Zm0,0v-3.64h2.65v-12.28h3.11v15.91h-5.76Z"/>
    <path class="cls-1" d="m89.23,54.04v-15.91h3.13v15.91h-3.13Z"/>
  </g>
  <path class="cls-1" d="m157.12,30.36c1.99-1.99.88-5.41-1.91-5.81l-13.38-1.91c-1.11-.16-2.07-.88-2.55-1.83l-5.97-12.1c-1.27-2.55-4.86-2.55-6.05,0l-5.97,12.1c-.48,1.04-1.43,1.67-2.55,1.83l-13.38,1.91c-2.79.4-3.9,3.82-1.91,5.81l9.63,9.48c.8.8,1.19,1.91.96,3.03l-2.31,13.3c-.4,2.79,2.55,4.86,5.02,3.58l11.94-6.29c.96-.56,2.15-.56,3.18,0l11.94,6.29c2.47,1.27,5.41-.8,4.94-3.58l-2.31-13.3c-.16-1.11.16-2.23.96-3.03l9.71-9.48Z"/>
</svg>