<?xml version="1.0" encoding="UTF-8"?>
<svg id="Layer_1" data-name="Layer 1" xmlns="http://www.w3.org/2000/svg" viewBox="0 0 164 68.92">
  <defs>
    <style>
      .cls-1 {
        fill: #84af7b;
      }

      .cls-1, .cls-2 {
        stroke-width: 0px;
      }

      .cls-2 {
        fill: #717988;
      }
    </style>
  </defs>
  <g>
    <path class="cls-2" d="m10.91,24.79c.62-.02,1.11-.1,1.45-.22.34-.12.58-.29.72-.51.14-.22.21-.5.21-.84v-9.63h3.13v9.63c0,.98-.2,1.84-.6,2.57-.4.73-.97,1.31-1.7,1.73-.73.42-1.61.66-2.63.72l-.58-3.46Z"/>
    <path class="cls-2" d="m23.38,23.04c-1.08,0-2.02-.22-2.81-.67-.79-.44-1.41-1.04-1.84-1.77-.44-.74-.66-1.55-.66-2.44,0-.72.14-1.38.41-1.98.28-.6.66-1.12,1.14-1.57.49-.45,1.05-.8,1.69-1.05s1.33-.38,2.08-.38,1.42.11,2.11.32c.68.21,1.29.43,1.82.67l-1.26,3.22c-1.01-.6-1.9-.9-2.66-.9-.46,0-.85.08-1.17.25s-.58.38-.76.64c-.18.26-.27.53-.27.8,0,.25.08.5.24.74s.41.44.73.58c.32.15.73.23,1.21.23h2.95v3.31h-2.95Zm-4.5,5.24v-3.64h3.08c.86,0,1.45-.12,1.77-.37.32-.25.48-.59.48-1.04v-9.07h3.11v9.07c0,1.03-.22,1.93-.66,2.68-.44.76-1.06,1.34-1.86,1.75-.8.41-1.75.61-2.84.61h-3.08Zm7.79-5.24v-3.64h2.74v3.64h-2.74Zm2.74,0v-3.64c.11,0,.2.17.26.5.07.33.1.76.1,1.3s-.03,1-.1,1.33c-.07.34-.15.5-.26.5Z"/>
    <path class="cls-2" d="m29.41,23.04c-.11,0-.2-.17-.26-.5-.07-.34-.1-.78-.1-1.33s.03-.97.1-1.3c.07-.33.15-.5.26-.5v3.64Zm0,0v-3.64h4.23v3.64h-4.23Zm4.23,0v-3.64c.11,0,.19.17.26.5.07.33.1.76.1,1.3s-.03,1-.1,1.33c-.07.34-.15.5-.26.5Z"/>
    <path class="cls-2" d="m33.64,23.04c-.11,0-.2-.17-.26-.5-.07-.34-.1-.78-.1-1.33s.03-.97.1-1.3c.07-.33.15-.5.26-.5v3.64Zm0,0v-3.64h4.23v3.64h-4.23Zm4.23,0v-3.64c.11,0,.19.17.26.5.07.33.1.76.1,1.3s-.03,1-.1,1.33c-.07.34-.15.5-.26.5Z"/>
    <path class="cls-2" d="m37.87,23.04c-.11,0-.2-.17-.26-.5-.07-.34-.1-.78-.1-1.33s.03-.97.1-1.3c.07-.33.15-.5.26-.5v3.64Zm0,0v-3.64h4.23v3.64h-4.23Zm4.23,0v-3.64c.11,0,.19.17.26.5.07.33.1.76.1,1.3s-.03,1-.1,1.33c-.07.34-.15.5-.26.5Z"/>
    <path class="cls-2" d="m42.1,23.04c-.11,0-.2-.17-.26-.5-.07-.34-.1-.78-.1-1.33s.03-.97.1-1.3c.07-.33.15-.5.26-.5v3.64Zm0,0v-3.64h4.23v3.64h-4.23Zm4.23,0v-3.64c.11,0,.19.17.26.5.07.33.1.76.1,1.3s-.03,1-.1,1.33c-.07.34-.15.5-.26.5Z"/>
    <path class="cls-2" d="m46.33,23.04c-.11,0-.2-.17-.26-.5-.07-.34-.1-.78-.1-1.33s.03-.97.1-1.3c.07-.33.15-.5.26-.5v3.64Zm0,0v-3.64h1.03c.46,0,.8-.04,1.04-.14.24-.09.41-.24.5-.46.1-.22.14-.52.14-.92v-3.42h3.13v3.42c0,1.07-.19,1.99-.58,2.76-.39.77-.94,1.37-1.66,1.77-.71.41-1.58.61-2.58.61h-1.03Zm7.54,0c-.82,0-1.51-.2-2.1-.61-.58-.41-1.02-1-1.32-1.77-.3-.77-.45-1.7-.45-2.76h2.18c0,.4.04.7.14.92.09.22.26.37.5.46.25.09.6.14,1.05.14h12.1v3.64h-12.1Zm8.96,0v-4.66c0-.61-.11-1.12-.34-1.52-.23-.4-.54-.7-.95-.9s-.86-.3-1.38-.3c-.48,0-.97.09-1.48.27-.5.18-.98.43-1.44.76-.46.32-.86.73-1.22,1.21-.36.48-.65,1.02-.86,1.62-.21.6-.31,1.25-.31,1.96h-2.61c0-.55.05-1.16.15-1.82.1-.66.28-1.34.52-2.04s.56-1.38.95-2.03c.38-.65.86-1.23,1.43-1.75.57-.52,1.24-.93,2.02-1.23.77-.31,1.65-.46,2.64-.46s1.92.17,2.67.5,1.37.79,1.86,1.38.86,1.25,1.11,1.99.37,1.53.37,2.36v4.66h-3.13Zm-2.88-12.85c-.5,0-.92-.16-1.24-.49s-.49-.74-.49-1.24.16-.92.49-1.24.74-.49,1.24-.49.93.16,1.25.49c.32.32.48.74.48,1.24s-.16.92-.48,1.24c-.32.32-.74.49-1.25.49Zm4.54,12.85v-3.64h3.55v3.64h-3.55Zm3.55,0v-3.64c.11,0,.2.17.26.5.07.33.1.76.1,1.3s-.03,1-.1,1.33c-.07.34-.15.5-.26.5Z"/>
    <path class="cls-2" d="m68.04,23.04c-.11,0-.2-.17-.26-.5-.07-.34-.1-.78-.1-1.33s.03-.97.1-1.3c.07-.33.15-.5.26-.5v3.64Zm0,0v-3.64h11.74l-.67,3.64h-11.07Zm7.97-2.41v-2.43c0-.38-.12-.73-.36-1.03-.24-.3-.59-.54-1.04-.71s-1.02-.26-1.69-.26c-.47,0-.95.05-1.44.16-.49.11-.92.23-1.28.38l-1.37-3.02c.62-.38,1.28-.67,1.98-.86.7-.19,1.4-.29,2.12-.29.82,0,1.59.12,2.33.37.74.25,1.4.61,1.99,1.09.59.48,1.05,1.07,1.39,1.76s.5,1.5.5,2.41v2.43h-3.13Zm2.7,2.41v-3.64h2.52v3.64h-2.52Zm2.52,0v-3.64c.11,0,.19.17.26.5.07.33.1.76.1,1.3s-.03,1-.1,1.33c-.07.34-.15.5-.26.5Z"/>
    <path class="cls-2" d="m81.23,23.04c-.11,0-.2-.17-.26-.5-.07-.34-.1-.78-.1-1.33s.03-.97.1-1.3c.07-.33.15-.5.26-.5v3.64Zm0,0v-3.64h2.65V7.13h3.11v15.91h-5.76Z"/>
    <path class="cls-2" d="m89.23,23.04V7.13h3.13v15.91h-3.13Z"/>
    <path class="cls-2" d="m17.84,54.04c-1.03,0-1.93-.15-2.69-.44-.76-.29-1.39-.7-1.88-1.21-.49-.51-.86-1.08-1.1-1.73-.24-.64-.36-1.32-.36-2.03,0-.65.1-1.3.3-1.96.2-.66.49-1.29.87-1.89l2.41,1.1c-.19.4-.34.78-.43,1.14s-.14.72-.14,1.05c0,.46.1.86.31,1.21.2.35.52.63.96.82s.99.29,1.67.29h7.63v-5.81h3.11v9.45h-10.66Zm2.32,5.44c-.5,0-.92-.16-1.24-.49s-.49-.74-.49-1.24.16-.92.49-1.24.74-.49,1.24-.49.93.16,1.25.49.48.74.48,1.24-.16.92-.48,1.24-.74.49-1.25.49Z"/>
    <path class="cls-2" d="m30.91,54.04v-15.91h3.13v15.91h-3.13Zm2.99,0v-3.64h2.09v3.64h-2.09Zm2.09,0v-3.64c.1,0,.18.17.25.5s.11.76.11,1.3-.04,1-.11,1.33-.16.5-.25.5Z"/>
    <path class="cls-2" d="m35.98,54.04c-.11,0-.2-.17-.26-.5-.07-.34-.1-.78-.1-1.33s.03-.97.1-1.3c.07-.33.15-.5.26-.5v3.64Zm0,0v-3.64h4.23v3.64h-4.23Zm4.23,0v-3.64c.11,0,.19.17.26.5.07.33.1.76.1,1.3s-.03,1-.1,1.33c-.07.34-.15.5-.26.5Z"/>
    <path class="cls-2" d="m40.21,54.04c-.11,0-.2-.17-.26-.5-.07-.34-.1-.78-.1-1.33s.03-.97.1-1.3c.07-.33.15-.5.26-.5v3.64Zm0,0v-3.64h4.23v3.64h-4.23Zm4.23,0v-3.64c.11,0,.19.17.26.5.07.33.1.76.1,1.3s-.03,1-.1,1.33c-.07.34-.15.5-.26.5Z"/>
    <path class="cls-2" d="m44.44,54.04c-.11,0-.2-.17-.26-.5-.07-.34-.1-.78-.1-1.33s.03-.97.1-1.3c.07-.33.15-.5.26-.5v3.64Zm0,0v-3.64h4.23v3.64h-4.23Zm4.23,0v-3.64c.11,0,.19.17.26.5.07.33.1.76.1,1.3s-.03,1-.1,1.33c-.07.34-.15.5-.26.5Z"/>
    <path class="cls-2" d="m48.67,54.04c-.11,0-.2-.17-.26-.5-.07-.34-.1-.78-.1-1.33s.03-.97.1-1.3c.07-.33.15-.5.26-.5v3.64Zm0,0v-3.64h1.03c.46,0,.8-.04,1.04-.14.24-.09.41-.24.5-.46.1-.22.14-.52.14-.92v-4.3h3.13v4.3c0,1.07-.19,1.99-.58,2.75-.39.77-.94,1.36-1.66,1.76-.71.41-1.58.62-2.58.63h-1.03Zm2.5,4.34c-.4,0-.72-.13-.98-.39s-.39-.58-.39-.98.13-.72.39-.98c.26-.26.58-.39.98-.39s.73.13.99.39c.26.26.4.58.4.98s-.13.72-.4.98c-.26.26-.59.39-.99.39Zm5.04-4.34c-1.01,0-1.87-.2-2.59-.61-.72-.41-1.27-1-1.66-1.77-.38-.77-.58-1.7-.58-2.76h3.13c0,.4.04.7.14.92.09.22.26.37.5.46.25.09.6.14,1.05.14h.61v3.64h-.61Zm-1.91,4.34c-.4,0-.72-.13-.98-.39s-.39-.58-.39-.98.13-.72.39-.98c.26-.26.58-.39.98-.39s.72.13.98.39.39.58.39.98-.13.72-.39.98c-.26.26-.58.39-.98.39Zm2.52-4.34v-3.64c.11,0,.19.17.26.5.07.33.1.76.1,1.3s-.03,1-.1,1.33c-.07.34-.15.5-.26.5Z"/>
    <path class="cls-2" d="m56.83,54.04c-.11,0-.2-.17-.26-.5-.07-.34-.1-.78-.1-1.33s.03-.97.1-1.3c.07-.33.15-.5.26-.5v3.64Zm0,0v-3.64h4.61c.32,0,.67-.04,1.03-.13s.73-.19,1.08-.32c.35-.13.68-.28.97-.45.29-.17.53-.33.7-.5.17-.16.26-.31.26-.44,0-.16-.11-.31-.34-.45-.23-.14-.54-.26-.95-.36-.4-.1-.87-.14-1.4-.14-.44,0-.86.04-1.26.12-.4.08-.79.19-1.19.35l-.52.52-1.76-.97,1.71-2.79c.48-.14.99-.27,1.54-.37.55-.1,1.15-.15,1.81-.15,1.09,0,2.05.14,2.87.42s1.46.68,1.93,1.19c.46.51.69,1.11.69,1.79,0,.58-.16,1.13-.47,1.67-.31.53-.73,1.04-1.24,1.5-.52.47-1.1.89-1.75,1.28-.65.38-1.33.71-2.03.99s-1.37.49-2.03.65c-.66.16-1.25.23-1.78.23h-2.48Zm10.04,0c-1.49,0-2.83-.26-4.02-.79-1.19-.53-2.2-1.27-3.02-2.23-.82-.96-1.41-2.09-1.75-3.38l2.29-1.06c.13.77.39,1.44.76,2.02s.86,1.02,1.44,1.34c.58.32,1.23.48,1.95.48h5.8v3.64h-3.44Zm-3.74-11.68c-.5,0-.92-.16-1.24-.49-.32-.32-.49-.74-.49-1.24s.16-.92.49-1.24c.32-.32.74-.49,1.24-.49s.93.16,1.25.49c.32.32.48.74.48,1.24s-.16.92-.48,1.24-.74.49-1.25.49Zm7.18,11.68v-3.64c.1,0,.18.17.25.5.07.33.11.76.11,1.3s-.04,1-.11,1.33c-.07.34-.16.5-.25.5Z"/>
    <path class="cls-2" d="m70.31,54.04c-.11,0-.2-.17-.26-.5-.07-.34-.1-.78-.1-1.33s.03-.97.1-1.3c.07-.33.15-.5.26-.5v3.64Zm0,0v-3.64h2.65v-12.28h3.11v15.91h-5.76Z"/>
    <path class="cls-2" d="m78.3,54.04v-15.91h3.13v15.91h-3.13Z"/>
    <path class="cls-2" d="m88.76,54.04c-1.08,0-2.02-.22-2.81-.67-.79-.44-1.41-1.04-1.84-1.77-.44-.74-.66-1.55-.66-2.44,0-.72.14-1.38.41-1.98.28-.6.66-1.12,1.14-1.57.49-.45,1.05-.8,1.69-1.05s1.33-.38,2.08-.38,1.42.11,2.11.32c.68.21,1.29.43,1.82.67l-1.26,3.22c-1.01-.6-1.9-.9-2.66-.9-.46,0-.85.08-1.17.25s-.58.38-.76.64c-.18.26-.27.53-.27.8,0,.25.08.5.24.74s.41.44.73.58c.32.15.73.23,1.21.23h2.95v3.31h-2.95Zm-4.5,5.24v-3.64h3.08c.86,0,1.45-.12,1.77-.37.32-.25.48-.59.48-1.04v-9.07h3.11v9.07c0,1.03-.22,1.93-.66,2.68-.44.76-1.06,1.34-1.86,1.75-.8.41-1.75.61-2.84.61h-3.08Z"/>
  </g>
  <g>
    <path class="cls-2" d="m129.93,46.32c2.82-2.18,6.87-1.75,9.39.77l1.66,1.66,6.97-6.97c1.36-1.38,3.13-2.06,4.93-2.06,0-.31-.01-.62-.03-.92-.39-5.8-4.65-10.63-10.25-12.19l-1.1-.31c-4,4.23-7.02,6.9-13.28,6.9s-9.28-2.67-13.28-6.9l-1.1.31c-5.63,1.57-9.89,6.43-10.26,12.26-.02.31-.03.61-.03.92v13.56c0,3.86,3.18,7.01,7.06,7.01h22.14l-3.51-3.53c-2.95-2.95-2.72-7.88.69-10.52Z"/>
    <ellipse class="cls-2" cx="128.21" cy="17.74" rx="13.05" ry="12.93"/>
    <path class="cls-1" d="m154.56,45.1c-.91-.91-2.39-.91-3.31,0l-10.27,10.27-5.13-5.13c-.91-.91-2.39-.91-3.31,0-.91.91-.91,2.39,0,3.31l6.78,6.78c.44.44,1.03.69,1.65.69s1.21-.25,1.65-.69l11.92-11.92c.91-.91.91-2.39,0-3.31Z"/>
  </g>
</svg>