<?xml version="1.0" encoding="UTF-8"?>
<svg id="Layer_1" data-name="Layer 1" xmlns="http://www.w3.org/2000/svg" viewBox="0 0 164 68.92">
  <defs>
    <style>
      .cls-1 {
        fill-rule: evenodd;
      }

      .cls-1, .cls-2 {
        fill: #717988;
        stroke-width: 0px;
      }
    </style>
  </defs>
  <g>
    <path class="cls-2" d="m8.15,24.79c.62-.02,1.11-.1,1.45-.22.34-.12.58-.29.72-.51.14-.22.21-.5.21-.84v-9.63h3.13v9.63c0,.98-.2,1.84-.6,2.57-.4.73-.97,1.31-1.7,1.73-.73.42-1.61.66-2.63.72l-.58-3.46Zm4.81-1.75v-3.64h2.79v3.64h-2.79Zm2.79,0v-3.64c.1,0,.18.17.25.5s.11.76.11,1.3-.04,1-.11,1.33-.16.5-.25.5Z"/>
    <path class="cls-2" d="m15.75,23.04c-.11,0-.19-.17-.26-.5-.07-.34-.1-.78-.1-1.33s.03-.97.1-1.3c.07-.33.15-.5.26-.5v3.64Zm0,0v-3.64h4.23v3.64h-4.23Zm4.23,0v-3.64c.11,0,.2.17.26.5.06.33.1.76.1,1.3s-.03,1-.1,1.33c-.07.34-.15.5-.26.5Z"/>
    <path class="cls-2" d="m19.98,23.04c-.11,0-.2-.17-.26-.5-.07-.34-.1-.78-.1-1.33s.03-.97.1-1.3c.07-.33.15-.5.26-.5v3.64Zm0,0v-3.64h4.23v3.64h-4.23Zm4.23,0v-3.64c.11,0,.19.17.26.5.07.33.1.76.1,1.3s-.03,1-.1,1.33c-.07.34-.15.5-.26.5Z"/>
    <path class="cls-2" d="m24.21,23.04c-.11,0-.2-.17-.26-.5-.07-.34-.1-.78-.1-1.33s.03-.97.1-1.3c.07-.33.15-.5.26-.5v3.64Zm0,0v-3.64h4.23v3.64h-4.23Zm4.23,0v-3.64c.11,0,.19.17.26.5.07.33.1.76.1,1.3s-.03,1-.1,1.33c-.07.34-.15.5-.26.5Z"/>
    <path class="cls-2" d="m28.44,23.04c-.11,0-.2-.17-.26-.5-.07-.34-.1-.78-.1-1.33s.03-.97.1-1.3c.07-.33.15-.5.26-.5v3.64Zm0,0v-3.64h4.23v3.64h-4.23Zm4.23,0v-3.64c.11,0,.19.17.26.5.07.33.1.76.1,1.3s-.03,1-.1,1.33c-.07.34-.15.5-.26.5Z"/>
    <path class="cls-2" d="m32.67,23.04c-.11,0-.2-.17-.26-.5-.07-.34-.1-.78-.1-1.33s.03-.97.1-1.3c.07-.33.15-.5.26-.5v3.64Zm0,0v-3.64h4.23v3.64h-4.23Zm4.23,0v-3.64c.11,0,.19.17.26.5.07.33.1.76.1,1.3s-.03,1-.1,1.33c-.07.34-.15.5-.26.5Z"/>
    <path class="cls-2" d="m36.9,23.04c-.11,0-.2-.17-.26-.5-.07-.34-.1-.78-.1-1.33s.03-.97.1-1.3c.07-.33.15-.5.26-.5v3.64Zm0,0v-3.64h4.23v3.64h-4.23Zm4.23,0v-3.64c.11,0,.19.17.26.5.07.33.1.76.1,1.3s-.03,1-.1,1.33c-.07.34-.15.5-.26.5Z"/>
    <path class="cls-2" d="m41.13,23.04c-.11,0-.2-.17-.26-.5-.07-.34-.1-.78-.1-1.33s.03-.97.1-1.3c.07-.33.15-.5.26-.5v3.64Zm0,0v-3.64h4.23v3.64h-4.23Zm4.23,0v-3.64c.11,0,.19.17.26.5.07.33.1.76.1,1.3s-.03,1-.1,1.33c-.07.34-.15.5-.26.5Z"/>
    <path class="cls-2" d="m45.36,23.04c-.11,0-.2-.17-.26-.5-.07-.34-.1-.78-.1-1.33s.03-.97.1-1.3c.07-.33.15-.5.26-.5v3.64Zm0,0v-3.64h1.03c.46,0,.8-.04,1.04-.14.24-.09.41-.24.5-.46.1-.22.14-.52.14-.92v-4.3h3.13v4.3c0,1.07-.19,1.99-.58,2.75-.39.77-.94,1.36-1.66,1.76-.71.41-1.58.62-2.58.63h-1.03Zm2.5-11.07c-.4,0-.72-.13-.98-.38-.26-.25-.39-.58-.39-.97s.13-.74.39-1c.26-.26.58-.39.98-.39s.74.13,1,.39.39.59.39,1-.13.72-.39.97-.59.38-1,.38Zm5.04,11.07c-1.01,0-1.87-.2-2.59-.61-.72-.41-1.27-1-1.66-1.77-.38-.77-.58-1.7-.58-2.76h3.13c0,.4.04.7.14.92.09.22.26.37.5.46.25.09.6.14,1.05.14h.61v3.64h-.61Zm-1.91-11.07c-.4,0-.72-.13-.98-.38-.26-.25-.39-.58-.39-.97s.13-.74.39-1c.26-.26.58-.39.98-.39s.74.13.99.39.38.59.38,1-.13.72-.38.97-.58.38-.99.38Zm2.52,11.07v-3.64c.11,0,.19.17.26.5.07.33.1.76.1,1.3s-.03,1-.1,1.33c-.07.34-.15.5-.26.5Z"/>
    <path class="cls-2" d="m53.51,23.04c-.11,0-.2-.17-.26-.5-.07-.34-.1-.78-.1-1.33s.03-.97.1-1.3c.07-.33.15-.5.26-.5v3.64Zm0,0v-3.64h4.23v3.64h-4.23Zm4.23,0v-3.64c.11,0,.19.17.26.5.07.33.1.76.1,1.3s-.03,1-.1,1.33c-.07.34-.15.5-.26.5Z"/>
    <path class="cls-2" d="m57.74,23.04c-.11,0-.2-.17-.26-.5-.07-.34-.1-.78-.1-1.33s.03-.97.1-1.3c.07-.33.15-.5.26-.5v3.64Zm0,0v-3.64h4.23v3.64h-4.23Zm4.23,0v-3.64c.11,0,.19.17.26.5.07.33.1.76.1,1.3s-.03,1-.1,1.33c-.07.34-.15.5-.26.5Z"/>
    <path class="cls-2" d="m61.97,23.04c-.11,0-.2-.17-.26-.5-.07-.34-.1-.78-.1-1.33s.03-.97.1-1.3c.07-.33.15-.5.26-.5v3.64Zm0,0v-3.64h4.23v3.64h-4.23Zm4.23,0v-3.64c.11,0,.19.17.26.5.07.33.1.76.1,1.3s-.03,1-.1,1.33c-.07.34-.15.5-.26.5Z"/>
    <path class="cls-2" d="m66.2,23.04c-.11,0-.2-.17-.26-.5-.07-.34-.1-.78-.1-1.33s.03-.97.1-1.3c.07-.33.15-.5.26-.5v3.64Zm0,0v-3.64h4.23v3.64h-4.23Zm4.23,0v-3.64c.11,0,.19.17.26.5.07.33.1.76.1,1.3s-.03,1-.1,1.33c-.07.34-.15.5-.26.5Z"/>
    <path class="cls-2" d="m70.43,23.04c-.11,0-.2-.17-.26-.5-.07-.34-.1-.78-.1-1.33s.03-.97.1-1.3c.07-.33.15-.5.26-.5v3.64Zm0,0v-3.64h7.97v-5.24h3.13v8.87h-11.11Zm4.48-.18c-.49-.19-.94-.51-1.33-.95-.4-.44-.71-.97-.95-1.59s-.35-1.29-.35-2.01c0-1.03.24-1.93.71-2.7.47-.77,1.12-1.37,1.93-1.79.81-.43,1.69-.64,2.66-.64.73,0,1.44.11,2.13.32.69.21,1.3.43,1.83.67l-1.26,3.15c-.55-.24-1.07-.42-1.56-.54s-.94-.18-1.36-.18c-.49,0-.91.08-1.26.23s-.62.36-.8.62c-.19.26-.28.55-.28.87,0,.36.1.72.29,1.09.19.37.43.63.72.8l-1.12,2.65Zm2.68-11.65c-.5,0-.92-.16-1.24-.49-.32-.32-.49-.74-.49-1.24s.16-.92.49-1.24.74-.49,1.24-.49.93.16,1.25.49c.32.32.48.74.48,1.24s-.16.92-.48,1.24c-.32.32-.74.49-1.25.49Z"/>
    <path class="cls-2" d="m83.05,23.04v-3.64h8.69v3.64h-8.69Zm6.71,0c-.01-1.27-.23-2.4-.65-3.38-.42-.98-1.03-1.81-1.84-2.48s-1.79-1.14-2.95-1.41l.67-3.38c1.62.37,3.02,1.05,4.19,2.04,1.17.99,2.08,2.22,2.73,3.68.65,1.46.98,3.11.99,4.93h-3.13Z"/>
    <path class="cls-2" d="m5.51,55.79c.62-.02,1.11-.1,1.45-.22.34-.12.58-.29.72-.51.14-.22.21-.5.21-.84v-9.63h3.13v9.63c0,.98-.2,1.84-.6,2.57-.4.73-.97,1.31-1.7,1.73-.73.42-1.61.66-2.63.72l-.58-3.46Zm4.81-1.75v-3.64h2.79v3.64h-2.79Zm2.79,0v-3.64c.1,0,.18.17.25.5.07.33.11.76.11,1.3s-.04,1-.11,1.33c-.07.34-.16.5-.25.5Z"/>
    <path class="cls-2" d="m13.1,54.04c-.11,0-.19-.17-.26-.5s-.1-.78-.1-1.33.03-.97.1-1.3.15-.5.26-.5v3.64Zm0,0v-3.64h4.23v3.64h-4.23Zm4.23,0v-3.64c.11,0,.19.17.26.5.07.33.1.76.1,1.3s-.03,1-.1,1.33c-.07.34-.15.5-.26.5Z"/>
    <path class="cls-2" d="m17.33,54.04c-.11,0-.2-.17-.26-.5-.06-.34-.1-.78-.1-1.33s.03-.97.1-1.3c.07-.33.15-.5.26-.5v3.64Zm0,0v-3.64h1.03c.46,0,.8-.04,1.04-.14.24-.09.41-.24.5-.46.1-.22.14-.52.14-.92v-4.3h3.13v4.3c0,1.07-.19,1.99-.58,2.75-.39.77-.94,1.36-1.66,1.76-.71.41-1.58.62-2.58.63h-1.03Zm2.5,4.34c-.4,0-.72-.13-.98-.39s-.39-.58-.39-.98.13-.72.39-.98c.26-.26.58-.39.98-.39s.73.13.99.39c.26.26.4.58.4.98s-.13.72-.4.98c-.26.26-.59.39-.99.39Zm5.04-4.34c-1.01,0-1.87-.2-2.59-.61-.72-.41-1.27-1-1.66-1.77-.38-.77-.58-1.7-.58-2.76h3.13c0,.4.04.7.14.92.09.22.26.37.5.46.25.09.6.14,1.05.14h.61v3.64h-.61Zm-1.91,4.34c-.4,0-.72-.13-.98-.39s-.39-.58-.39-.98.13-.72.39-.98c.26-.26.58-.39.98-.39s.72.13.98.39.39.58.39.98-.13.72-.39.98c-.26.26-.58.39-.98.39Zm2.52-4.34v-3.64c.11,0,.19.17.26.5.07.33.1.76.1,1.3s-.03,1-.1,1.33c-.07.34-.15.5-.26.5Z"/>
    <path class="cls-2" d="m25.49,54.04c-.11,0-.2-.17-.26-.5-.07-.34-.1-.78-.1-1.33s.03-.97.1-1.3c.07-.33.15-.5.26-.5v3.64Zm0,0v-3.64h4.23v3.64h-4.23Zm4.23,0v-3.64c.11,0,.19.17.26.5.07.33.1.76.1,1.3s-.03,1-.1,1.33c-.07.34-.15.5-.26.5Z"/>
    <path class="cls-2" d="m29.72,54.04c-.11,0-.2-.17-.26-.5-.07-.34-.1-.78-.1-1.33s.03-.97.1-1.3c.07-.33.15-.5.26-.5v3.64Zm0,0v-3.64h4.23v3.64h-4.23Zm4.23,0v-3.64c.11,0,.19.17.26.5.07.33.1.76.1,1.3s-.03,1-.1,1.33c-.07.34-.15.5-.26.5Z"/>
    <path class="cls-2" d="m33.95,54.04c-.11,0-.2-.17-.26-.5-.07-.34-.1-.78-.1-1.33s.03-.97.1-1.3c.07-.33.15-.5.26-.5v3.64Zm0,0v-3.64h4.23v3.64h-4.23Zm4.23,0v-3.64c.11,0,.19.17.26.5.07.33.1.76.1,1.3s-.03,1-.1,1.33c-.07.34-.15.5-.26.5Z"/>
    <path class="cls-2" d="m38.18,54.04c-.11,0-.2-.17-.26-.5-.07-.34-.1-.78-.1-1.33s.03-.97.1-1.3c.07-.33.15-.5.26-.5v3.64Zm0,0v-3.64h1.03c.46,0,.8-.04,1.04-.14.24-.09.41-.24.5-.46.1-.22.14-.52.14-.92v-3.42h3.13v3.42c0,1.07-.19,1.99-.58,2.76-.39.77-.94,1.37-1.66,1.77-.71.41-1.58.61-2.58.61h-1.03Zm7.54,0c-.82,0-1.51-.2-2.1-.61-.58-.41-1.02-1-1.32-1.77-.3-.77-.45-1.7-.45-2.76h2.18c0,.4.04.7.14.92.09.22.26.37.5.46.25.09.6.14,1.05.14h12.1v3.64h-12.1Zm8.96,0v-4.66c0-.61-.11-1.12-.34-1.52-.23-.4-.54-.7-.95-.9s-.86-.3-1.38-.3c-.48,0-.97.09-1.48.27-.5.18-.98.43-1.44.76-.46.32-.86.73-1.22,1.21-.36.48-.65,1.02-.86,1.62-.21.6-.31,1.25-.31,1.96h-2.61c0-.55.05-1.16.15-1.82.1-.66.28-1.34.52-2.04s.56-1.38.95-2.03c.38-.65.86-1.23,1.43-1.75.57-.52,1.24-.93,2.02-1.23.77-.31,1.65-.46,2.64-.46s1.92.17,2.67.5,1.37.79,1.86,1.38.86,1.25,1.11,1.99.37,1.53.37,2.36v4.66h-3.13Zm-2.88-12.85c-.5,0-.92-.16-1.24-.49s-.49-.74-.49-1.24.16-.92.49-1.24.74-.49,1.24-.49.93.16,1.25.49c.32.32.48.74.48,1.24s-.16.92-.48,1.24c-.32.32-.74.49-1.25.49Zm4.54,12.85v-3.64h3.55v3.64h-3.55Zm3.55,0v-3.64c.11,0,.2.17.26.5.07.33.1.76.1,1.3s-.03,1-.1,1.33c-.07.34-.15.5-.26.5Z"/>
    <path class="cls-2" d="m59.89,54.04c-.11,0-.2-.17-.26-.5-.07-.34-.1-.78-.1-1.33s.03-.97.1-1.3c.07-.33.15-.5.26-.5v3.64Zm0,0v-3.64h11.74l-.67,3.64h-11.07Zm7.97-2.41v-2.43c0-.38-.12-.73-.36-1.03-.24-.3-.59-.54-1.04-.71s-1.02-.26-1.69-.26c-.47,0-.95.05-1.44.16-.49.11-.92.23-1.28.38l-1.37-3.02c.62-.38,1.28-.67,1.98-.86.7-.19,1.4-.29,2.12-.29.82,0,1.59.12,2.33.37.74.25,1.4.61,1.99,1.09.59.48,1.05,1.07,1.39,1.76s.5,1.5.5,2.41v2.43h-3.13Zm2.7,2.41v-3.64h2.52v3.64h-2.52Zm2.52,0v-3.64c.11,0,.19.17.26.5.07.33.1.76.1,1.3s-.03,1-.1,1.33c-.07.34-.15.5-.26.5Z"/>
    <path class="cls-2" d="m73.08,54.04c-.11,0-.2-.17-.26-.5-.07-.34-.1-.78-.1-1.33s.03-.97.1-1.3c.07-.33.15-.5.26-.5v3.64Zm0,0v-3.64h1.03c.46,0,.8-.04,1.04-.14.24-.09.41-.24.5-.46.1-.22.14-.52.14-.92v-4.3h3.13v4.3c0,1.07-.19,1.99-.58,2.75-.39.77-.94,1.36-1.66,1.76-.71.41-1.58.62-2.58.63h-1.03Zm2.5-11.07c-.4,0-.72-.13-.98-.38-.26-.25-.39-.58-.39-.97s.13-.74.39-1c.26-.26.58-.39.98-.39s.74.13,1,.39.39.59.39,1-.13.72-.39.97-.59.38-1,.38Zm5.04,11.07c-1.01,0-1.87-.2-2.59-.61-.72-.41-1.27-1-1.66-1.77-.38-.77-.58-1.7-.58-2.76h3.13c0,.4.04.7.14.92.09.22.26.37.5.46.25.09.6.14,1.05.14h.61v3.64h-.61Zm-1.91-11.07c-.4,0-.72-.13-.98-.38-.26-.25-.39-.58-.39-.97s.13-.74.39-1c.26-.26.58-.39.98-.39s.74.13.99.39.38.59.38,1-.13.72-.38.97-.58.38-.99.38Zm2.52,11.07v-3.64c.11,0,.19.17.26.5.07.33.1.76.1,1.3s-.03,1-.1,1.33c-.07.34-.15.5-.26.5Z"/>
    <path class="cls-2" d="m81.23,54.04c-.11,0-.2-.17-.26-.5-.07-.34-.1-.78-.1-1.33s.03-.97.1-1.3c.07-.33.15-.5.26-.5v3.64Zm0,0v-3.64h2.65v-12.28h3.11v15.91h-5.76Z"/>
    <path class="cls-2" d="m89.23,54.04v-15.91h3.13v15.91h-3.13Z"/>
  </g>
  <g>
    <path class="cls-1" d="m100.74,16.68c0-4.91,3.98-8.89,8.89-8.89h29.63c1.64,0,2.96,1.33,2.96,2.96v36.29h-.09c-.33,1.28-1.49,2.22-2.87,2.22v5.93c1.64,0,2.96,1.33,2.96,2.96s-1.33,2.96-2.96,2.96h-29.63c-4.91,0-8.89-3.98-8.89-8.89V16.68Zm32.59,32.59h-23.7c-1.64,0-2.96,1.33-2.96,2.96s1.33,2.96,2.96,2.96h23.7v-5.93Zm-20.74-32.59c-1.64,0-2.96,1.33-2.96,2.96v11.85c0,1.64,1.33,2.96,2.96,2.96h17.78c1.64,0,2.96-1.33,2.96-2.96v-11.85c0-1.64-1.33-2.96-2.96-2.96h-17.78Z"/>
    <path class="cls-2" d="m151.11,7.79c-2.02,0-3.57,1.14-4.5,2.44-.94,1.3-1.42,2.96-1.42,4.64v35.04c0,.49.12.97.35,1.41l4.44,8.24c.52.96,1.52,1.56,2.61,1.56s2.09-.6,2.61-1.56l4.44-8.24c.23-.43.35-.92.35-1.41V14.88c0-1.69-.49-3.34-1.42-4.64-.93-1.3-2.49-2.44-4.5-2.44h-2.96Z"/>
  </g>
</svg>