<?xml version="1.0" encoding="UTF-8"?>
<svg id="Layer_1" data-name="Layer 1" xmlns="http://www.w3.org/2000/svg" viewBox="0 0 164 68.92">
  <defs>
    <style>
      .cls-1 {
        fill: #717988;
        stroke-width: 0px;
      }
    </style>
  </defs>
  <g>
    <path class="cls-1" d="m16.2,30.1c-.77,0-1.51-.11-2.23-.33-.72-.22-1.37-.55-1.94-.99-.57-.44-1.02-.97-1.36-1.6s-.5-1.37-.5-2.21c0-.68.14-1.36.42-2.02.28-.66.7-1.26,1.26-1.79.56-.53,1.26-.96,2.11-1.28.85-.32,1.83-.48,2.94-.48v3.64c-.74,0-1.39.09-1.93.28-.54.19-.96.43-1.24.72-.29.29-.43.6-.43.91,0,.25.11.49.32.72s.54.41.97.56c.43.14.97.22,1.6.22.31,0,.62-.02.92-.04.3-.03.59-.08.86-.14l1.12,3.28c-.46.19-.93.33-1.42.42s-.98.13-1.48.13Zm2.07-9.47v-2.43c0-.38-.12-.73-.36-1.03s-.59-.54-1.05-.71c-.46-.17-1.03-.26-1.7-.26-.47,0-.95.05-1.43.16-.49.11-.91.23-1.27.38l-1.37-3.02c.61-.38,1.27-.67,1.97-.86.7-.19,1.41-.29,2.12-.29.82,0,1.6.12,2.34.37.74.25,1.41.61,1.99,1.09.58.48,1.04,1.07,1.38,1.76s.5,1.5.5,2.41v2.43h-3.11Zm-1.37,2.41v-3.64h5.13l-.68,3.64h-4.45Zm2.3,4.59c-.5,0-.92-.16-1.24-.49-.32-.32-.49-.74-.49-1.24s.16-.92.49-1.24.74-.49,1.24-.49.93.16,1.25.49c.32.32.48.74.48,1.24s-.16.92-.48,1.24c-.32.32-.74.49-1.25.49Zm1.93-4.59v-3.64h2.34v3.64h-2.34Zm2.34,0v-3.64c.11,0,.2.17.26.5.07.33.1.76.1,1.3s-.03,1-.1,1.33c-.07.34-.15.5-.26.5Z"/>
    <path class="cls-1" d="m22.75,23.04c-.11,0-.2-.17-.26-.5-.07-.34-.1-.78-.1-1.33s.03-.97.1-1.3c.07-.33.15-.5.26-.5v3.64Zm0,0v-3.64h4.23v3.64h-4.23Zm4.23,0v-3.64c.11,0,.19.17.26.5.07.33.1.76.1,1.3s-.03,1-.1,1.33c-.07.34-.15.5-.26.5Z"/>
    <path class="cls-1" d="m26.98,23.04c-.11,0-.2-.17-.26-.5-.07-.34-.1-.78-.1-1.33s.03-.97.1-1.3c.07-.33.15-.5.26-.5v3.64Zm0,0v-3.64h4.23v3.64h-4.23Zm4.23,0v-3.64c.11,0,.19.17.26.5.07.33.1.76.1,1.3s-.03,1-.1,1.33c-.07.34-.15.5-.26.5Z"/>
    <path class="cls-1" d="m31.21,23.04c-.11,0-.2-.17-.26-.5-.07-.34-.1-.78-.1-1.33s.03-.97.1-1.3c.07-.33.15-.5.26-.5v3.64Zm0,0v-3.64h4.23v3.64h-4.23Zm4.23,0v-3.64c.11,0,.19.17.26.5.07.33.1.76.1,1.3s-.03,1-.1,1.33c-.07.34-.15.5-.26.5Z"/>
    <path class="cls-1" d="m35.44,23.04c-.11,0-.2-.17-.26-.5-.07-.34-.1-.78-.1-1.33s.03-.97.1-1.3c.07-.33.15-.5.26-.5v3.64Zm0,0v-3.64h4.23v3.64h-4.23Zm4.23,0v-3.64c.11,0,.19.17.26.5.07.33.1.76.1,1.3s-.03,1-.1,1.33c-.07.34-.15.5-.26.5Z"/>
    <path class="cls-1" d="m39.67,23.04c-.11,0-.2-.17-.26-.5-.07-.34-.1-.78-.1-1.33s.03-.97.1-1.3c.07-.33.15-.5.26-.5v3.64Zm0,0v-3.64h4.23v3.64h-4.23Zm4.23,0v-3.64c.11,0,.19.17.26.5.07.33.1.76.1,1.3s-.03,1-.1,1.33c-.07.34-.15.5-.26.5Z"/>
    <path class="cls-1" d="m43.9,23.04c-.11,0-.2-.17-.26-.5-.07-.34-.1-.78-.1-1.33s.03-.97.1-1.3c.07-.33.15-.5.26-.5v3.64Zm0,0v-3.64h4.23v3.64h-4.23Zm4.23,0v-3.64c.11,0,.19.17.26.5.07.33.1.76.1,1.3s-.03,1-.1,1.33c-.07.34-.15.5-.26.5Z"/>
    <path class="cls-1" d="m48.13,23.04c-.11,0-.2-.17-.26-.5-.07-.34-.1-.78-.1-1.33s.03-.97.1-1.3c.07-.33.15-.5.26-.5v3.64Zm0,0v-3.64h4.23v3.64h-4.23Zm4.23,0v-3.64c.11,0,.19.17.26.5.07.33.1.76.1,1.3s-.03,1-.1,1.33c-.07.34-.15.5-.26.5Z"/>
    <path class="cls-1" d="m52.36,23.04c-.11,0-.2-.17-.26-.5-.07-.34-.1-.78-.1-1.33s.03-.97.1-1.3c.07-.33.15-.5.26-.5v3.64Zm0,0v-3.64h4.23v3.64h-4.23Zm4.23,0v-3.64c.11,0,.19.17.26.5.07.33.1.76.1,1.3s-.03,1-.1,1.33c-.07.34-.15.5-.26.5Z"/>
    <path class="cls-1" d="m56.59,23.04c-.11,0-.2-.17-.26-.5-.07-.34-.1-.78-.1-1.33s.03-.97.1-1.3c.07-.33.15-.5.26-.5v3.64Zm0,0v-3.64h4.23v3.64h-4.23Zm4.23,0v-3.64c.11,0,.19.17.26.5.07.33.1.76.1,1.3s-.03,1-.1,1.33c-.07.34-.15.5-.26.5Z"/>
    <path class="cls-1" d="m60.82,23.04c-.11,0-.2-.17-.26-.5-.07-.34-.1-.78-.1-1.33s.03-.97.1-1.3c.07-.33.15-.5.26-.5v3.64Zm0,0v-3.64h4.23v3.64h-4.23Zm4.23,0v-3.64c.11,0,.19.17.26.5.07.33.1.76.1,1.3s-.03,1-.1,1.33c-.07.34-.15.5-.26.5Z"/>
    <path class="cls-1" d="m65.05,23.04c-.11,0-.2-.17-.26-.5-.07-.34-.1-.78-.1-1.33s.03-.97.1-1.3c.07-.33.15-.5.26-.5v3.64Zm2.79-9.45h3.13v9.45h-5.92v-3.64h2.79v-5.81Zm-1.1-2.09v-1.76h5.35v1.76h-5.35Zm3.49-.5c-.9,0-1.63-.17-2.2-.52-.56-.35-.85-.85-.85-1.51,0-.47.14-.87.41-1.21.27-.34.62-.61,1.06-.79.44-.19.91-.28,1.41-.28.31,0,.61.03.91.1.29.07.57.17.84.31l-.67,1.44c-.14-.02-.3-.05-.47-.07-.17-.02-.32-.04-.47-.04-.46,0-.82.07-1.09.21-.27.14-.41.29-.41.46,0,.16.13.3.41.44.27.14.64.21,1.11.21v1.26Z"/>
    <path class="cls-1" d="m73.39,23.04V7.13h3.13v15.91h-3.13Zm2.99,0v-3.64h2.09v3.64h-2.09Zm2.09,0v-3.64c.1,0,.18.17.25.5s.11.76.11,1.3-.04,1-.11,1.33-.16.5-.25.5Z"/>
    <path class="cls-1" d="m78.46,23.04c-.11,0-.2-.17-.26-.5-.07-.34-.1-.78-.1-1.33s.03-.97.1-1.3c.07-.33.15-.5.26-.5v3.64Zm0,0v-3.64h1.03c.46,0,.8-.04,1.04-.14.24-.09.41-.24.5-.46.1-.22.14-.52.14-.92v-4.3h3.13v4.3c0,1.07-.19,1.99-.58,2.75-.39.77-.94,1.36-1.66,1.76-.71.41-1.58.62-2.58.63h-1.03Zm2.5-11.07c-.4,0-.72-.13-.98-.38-.26-.25-.39-.58-.39-.97s.13-.74.39-1c.26-.26.58-.39.98-.39s.74.13,1,.39.39.59.39,1-.13.72-.39.97-.59.38-1,.38Zm5.04,11.07c-1.01,0-1.87-.2-2.59-.61-.72-.41-1.27-1-1.66-1.77-.38-.77-.58-1.7-.58-2.76h3.13c0,.4.04.7.14.92.09.22.26.37.5.46.25.09.6.14,1.05.14h.61v3.64h-.61Zm-1.91-11.07c-.4,0-.72-.13-.98-.38-.26-.25-.39-.58-.39-.97s.13-.74.39-1c.26-.26.58-.39.98-.39s.74.13.99.39.38.59.38,1-.13.72-.38.97-.58.38-.99.38Zm2.52,11.07v-3.64c.11,0,.19.17.26.5.07.33.1.76.1,1.3s-.03,1-.1,1.33c-.07.34-.15.5-.26.5Z"/>
    <path class="cls-1" d="m86.62,23.04c-.11,0-.2-.17-.26-.5-.07-.34-.1-.78-.1-1.33s.03-.97.1-1.3c.07-.33.15-.5.26-.5v3.64Zm2.79-9.45h3.13v9.45h-5.92v-3.64h2.79v-5.81Zm1.57-1.98c-.5,0-.92-.16-1.24-.49s-.49-.74-.49-1.24.16-.92.49-1.24c.32-.32.74-.49,1.24-.49s.93.16,1.25.49c.32.32.48.74.48,1.24s-.16.92-.48,1.24c-.32.32-.74.49-1.25.49Z"/>
    <path class="cls-1" d="m14.22,54.04c-1.03,0-1.93-.15-2.69-.44-.76-.29-1.39-.7-1.88-1.21-.49-.51-.86-1.08-1.1-1.73-.24-.64-.36-1.32-.36-2.03,0-.65.1-1.3.3-1.96.2-.66.49-1.29.87-1.89l2.41,1.1c-.19.4-.34.78-.43,1.14s-.14.72-.14,1.05c0,.46.1.86.31,1.21.2.35.53.63.96.82s.99.29,1.67.29h7.63v-5.81h3.11v9.45h-10.66Zm.76-10.3c-.4,0-.72-.13-.98-.38-.26-.25-.39-.58-.39-.97s.13-.74.39-1c.26-.26.58-.39.98-.39s.74.13,1,.39c.26.26.39.59.39,1s-.13.72-.39.97-.59.38-1,.38Zm3.13,0c-.4,0-.72-.13-.98-.38s-.39-.58-.39-.97.13-.74.39-1c.26-.26.58-.39.98-.39s.74.13.99.39c.25.26.38.59.38,1s-.13.72-.38.97-.58.38-.99.38Z"/>
    <path class="cls-1" d="m27.29,54.04v-15.91h3.13v15.91h-3.13Z"/>
    <path class="cls-1" d="m31.48,55.79c.62-.02,1.11-.1,1.45-.22.34-.12.58-.29.72-.51.14-.22.21-.5.21-.84v-9.63h3.13v9.63c0,.98-.2,1.84-.6,2.57-.4.73-.97,1.31-1.7,1.73-.73.42-1.61.66-2.63.72l-.58-3.46Z"/>
    <path class="cls-1" d="m39.22,54.04v-15.91h3.13v15.91h-3.13Zm2.99,0v-3.64h2.09v3.64h-2.09Zm2.09,0v-3.64c.1,0,.18.17.25.5s.11.76.11,1.3-.04,1-.11,1.33-.16.5-.25.5Z"/>
    <path class="cls-1" d="m44.3,54.04c-.11,0-.2-.17-.26-.5-.07-.34-.1-.78-.1-1.33s.03-.97.1-1.3c.07-.33.15-.5.26-.5v3.64Zm0,0v-3.64h1.03c.46,0,.8-.04,1.04-.14.24-.09.41-.24.5-.46.1-.22.14-.52.14-.92v-4.3h3.13v4.3c0,1.07-.19,1.99-.58,2.75-.39.77-.94,1.36-1.66,1.76-.71.41-1.58.62-2.58.63h-1.03Zm4.05,5.44c-.5,0-.92-.16-1.24-.49-.32-.32-.49-.74-.49-1.24s.16-.92.49-1.24c.32-.32.74-.49,1.24-.49s.93.16,1.25.49.48.74.48,1.24-.16.92-.48,1.24-.74.49-1.25.49Zm3.49-5.44c-1.01,0-1.87-.2-2.59-.61-.72-.41-1.27-1-1.66-1.77-.38-.77-.58-1.7-.58-2.76h3.13c0,.4.04.7.14.92.09.22.26.37.5.46.25.09.6.14,1.05.14h.61v3.64h-.61Zm.61,0v-3.64c.11,0,.19.17.26.5.07.33.1.76.1,1.3s-.03,1-.1,1.33c-.07.34-.15.5-.26.5Z"/>
    <path class="cls-1" d="m52.45,54.04c-.11,0-.2-.17-.26-.5-.07-.34-.1-.78-.1-1.33s.03-.97.1-1.3c.07-.33.15-.5.26-.5v3.64Zm0,0v-3.64h1.03c.46,0,.8-.04,1.04-.14.24-.09.41-.24.5-.46.1-.22.14-.52.14-.92v-4.3h3.13v4.3c0,1.07-.19,1.99-.58,2.75-.39.77-.94,1.36-1.66,1.76-.71.41-1.58.62-2.58.63h-1.03Zm2.5-11.07c-.4,0-.72-.13-.98-.38-.26-.25-.39-.58-.39-.97s.13-.74.39-1c.26-.26.58-.39.98-.39s.74.13,1,.39.39.59.39,1-.13.72-.39.97-.59.38-1,.38Zm5.04,11.07c-1.01,0-1.87-.2-2.59-.61-.72-.41-1.27-1-1.66-1.77-.38-.77-.58-1.7-.58-2.76h3.13c0,.4.04.7.14.92.09.22.26.37.5.46.25.09.6.14,1.05.14h.61v3.64h-.61Zm-1.91-11.07c-.4,0-.72-.13-.98-.38-.26-.25-.39-.58-.39-.97s.13-.74.39-1c.26-.26.58-.39.98-.39s.74.13.99.39.38.59.38,1-.13.72-.38.97-.58.38-.99.38Zm2.52,11.07v-3.64c.11,0,.19.17.26.5.07.33.1.76.1,1.3s-.03,1-.1,1.33c-.07.34-.15.5-.26.5Z"/>
    <path class="cls-1" d="m60.61,54.04c-.11,0-.2-.17-.26-.5-.07-.34-.1-.78-.1-1.33s.03-.97.1-1.3c.07-.33.15-.5.26-.5v3.64Zm0,0v-3.64h11.74l-.67,3.64h-11.07Zm7.97-2.41v-2.43c0-.38-.12-.73-.36-1.03-.24-.3-.59-.54-1.04-.71s-1.02-.26-1.69-.26c-.47,0-.95.05-1.44.16-.49.11-.92.23-1.28.38l-1.37-3.02c.62-.38,1.28-.67,1.98-.86.7-.19,1.4-.29,2.12-.29.82,0,1.59.12,2.33.37.74.25,1.4.61,1.99,1.09.59.48,1.05,1.07,1.39,1.76s.5,1.5.5,2.41v2.43h-3.13Zm-3.1-10.03c-.5,0-.92-.16-1.24-.49s-.49-.74-.49-1.24.16-.92.49-1.24.74-.49,1.24-.49.93.16,1.25.49.48.74.48,1.24-.16.92-.48,1.24-.74.49-1.25.49Z"/>
    <path class="cls-1" d="m74.45,54.04v-3.64h12.19v3.64h-12.19Zm1.46,6.34v-1.76h5.35v1.76h-5.35Zm3.49-.5c-.9,0-1.63-.17-2.2-.52-.56-.35-.85-.85-.85-1.51,0-.47.13-.87.41-1.21.27-.34.62-.61,1.06-.79.44-.19.91-.28,1.41-.28.31,0,.62.03.91.1.29.07.57.17.84.31l-.67,1.44c-.14-.02-.3-.05-.47-.07-.17-.02-.32-.04-.47-.04-.46,0-.82.07-1.09.21-.27.14-.4.29-.4.46,0,.16.13.3.4.44.27.14.64.21,1.11.21v1.26Zm-2.39-5.83v-11.11h3.13v11.11h-3.13Zm6.5,0v-15.91h3.13v15.91h-3.13Z"/>
    <path class="cls-1" d="m89.23,54.04v-15.91h3.13v15.91h-3.13Z"/>
  </g>
  <g id="_39-Exam" data-name=" 39-Exam">
    <path class="cls-1" d="m148.92,4.92h-35.81c-5.32,0-9.64,4.31-9.64,9.64v38.11c0,5.32,4.31,9.64,9.64,9.64h25.56c1.93,0,3.49-1.56,3.49-3.49v-3.27c0-5.32,4.31-9.64,9.64-9.64h3.27c1.93,0,3.49-1.56,3.49-3.49V14.56c0-5.32-4.31-9.64-9.64-9.64Zm-15.09,38.79c-.23.1-.48.15-.74.14-.84,0-1.6-.52-1.91-1.31l-1.88-4.82s-.02-.02-.03-.02h-6.72s-.03,0-.03.02l-1.88,4.82c-.33,1.08-1.47,1.69-2.56,1.36-1.08-.33-1.69-1.47-1.36-2.56.03-.1.07-.19.11-.28l7.17-18.44c.42-1.05,1.61-1.57,2.66-1.15.53.21.94.63,1.15,1.15l4.75,12.3,2.42,6.15c.4,1.05-.12,2.23-1.17,2.64Zm9.36-18.3h-1.87s-.03.02-.03.03v1.87c0,1.09-.78,2.09-1.87,2.19-1.21.11-2.23-.85-2.23-2.04v-2.02s-.02-.03-.03-.03h-1.87c-1.09,0-2.09-.78-2.19-1.87-.11-1.21.85-2.23,2.04-2.23h2.02s.03-.02.03-.03v-1.87c0-1.09.78-2.09,1.87-2.19,1.21-.11,2.23.85,2.23,2.04v2.02s.02.03.03.03h2.02c1.19,0,2.15,1.02,2.04,2.23-.09,1.08-1.1,1.87-2.19,1.87Zm3.07,30.19v5.43s.04.04.06.02l10.99-10.99s0-.06-.02-.06h-5.43c-3.09,0-5.6,2.51-5.6,5.6Zm-20.31-26.5l1.73,4.46s0,.05-.03.05h-3.47s-.04-.02-.03-.05l1.73-4.46s.05-.03.06,0Z"/>
  </g>
</svg>