<?xml version="1.0" encoding="UTF-8"?>
<svg id="Layer_1" data-name="Layer 1" xmlns="http://www.w3.org/2000/svg" viewBox="0 0 164 68.92">
  <defs>
    <style>
      .cls-1 {
        fill-rule: evenodd;
      }

      .cls-1, .cls-2 {
        fill: #717988;
        stroke-width: 0px;
      }
    </style>
  </defs>
  <g>
    <path class="cls-2" d="m11.12,23.04c-1.03,0-1.93-.15-2.69-.44-.76-.29-1.39-.7-1.88-1.21-.49-.51-.86-1.08-1.1-1.73-.24-.64-.36-1.32-.36-2.03,0-.65.1-1.3.3-1.96.2-.66.49-1.29.87-1.89l2.41,1.1c-.19.4-.34.78-.43,1.14s-.14.72-.14,1.05c0,.46.1.86.31,1.21.2.35.52.63.96.82s.99.29,1.67.29h7.63v-5.81h3.11v9.45h-10.66Zm.76-10.3c-.4,0-.72-.13-.98-.38-.26-.25-.39-.58-.39-.97s.13-.74.39-1c.26-.26.58-.39.98-.39s.74.13,1,.39c.26.26.39.59.39,1s-.13.72-.39.97c-.26.25-.59.38-1,.38Zm3.13,0c-.4,0-.72-.13-.98-.38-.26-.25-.39-.58-.39-.97s.13-.74.39-1c.26-.26.58-.39.98-.39s.74.13.99.39c.25.26.38.59.38,1s-.13.72-.38.97-.58.38-.99.38Z"/>
    <path class="cls-2" d="m24.19,23.04V7.13h3.13v15.91h-3.13Zm2.99,0v-3.64h2.09v3.64h-2.09Zm2.09,0v-3.64c.1,0,.18.17.25.5s.11.76.11,1.3-.04,1-.11,1.33-.16.5-.25.5Z"/>
    <path class="cls-2" d="m29.26,23.04c-.11,0-.2-.17-.26-.5-.07-.34-.1-.78-.1-1.33s.03-.97.1-1.3c.07-.33.15-.5.26-.5v3.64Zm0,0v-3.64c.67,0,1.3-.01,1.88-.04s1.12-.05,1.61-.07c.1-.01.18.02.25.11s.15.17.22.24.15.12.23.12c1.04-.12,1.88-.28,2.5-.48.62-.2,1.07-.43,1.35-.7.28-.27.41-.57.41-.89,0-.28-.07-.52-.22-.74-.14-.22-.35-.39-.6-.51s-.56-.19-.91-.19-.66.07-.93.21c-.27.14-.48.32-.63.53s-.22.45-.22.7c0,.31.14.61.43.88s.75.52,1.4.72c.64.2,1.5.37,2.58.49.08,0,.16-.04.23-.13.07-.08.15-.17.23-.24.08-.08.15-.11.22-.1.49.02,1.02.04,1.58.06.56.02,1.15.03,1.79.03v3.64c-1.69,0-3.24-.11-4.65-.32s-2.63-.55-3.67-.99c-1.04-.44-1.84-1.01-2.41-1.71-.57-.7-.85-1.52-.85-2.48,0-.86.22-1.62.67-2.27.44-.65,1.03-1.16,1.77-1.53s1.56-.56,2.46-.56,1.72.18,2.46.55c.74.37,1.33.88,1.77,1.53.44.65.67,1.42.67,2.29s-.23,1.61-.68,2.23c-.45.62-1.06,1.15-1.84,1.58-.77.43-1.66.76-2.65,1-1,.24-2.04.41-3.14.52-1.1.11-2.2.16-3.3.16Zm6.71-11.83c-.5,0-.92-.16-1.24-.49-.32-.32-.49-.74-.49-1.24s.16-.92.49-1.24c.32-.32.74-.49,1.24-.49s.93.16,1.25.49.48.74.48,1.24-.16.92-.48,1.24c-.32.32-.74.49-1.25.49Zm6.7,11.83v-3.64c.11,0,.19.17.26.5.07.33.1.76.1,1.3s-.03,1-.1,1.33c-.07.34-.15.5-.26.5Z"/>
    <path class="cls-2" d="m42.67,23.04c-.11,0-.2-.17-.26-.5-.07-.34-.1-.78-.1-1.33s.03-.97.1-1.3c.07-.33.15-.5.26-.5v3.64Zm0,0v-3.64h2.65V7.13h3.11v15.91h-5.76Z"/>
    <path class="cls-2" d="m50.66,23.04V7.13h3.13v15.91h-3.13Zm2.99,0v-3.64h2.09v3.64h-2.09Zm2.09,0v-3.64c.1,0,.18.17.25.5s.11.76.11,1.3-.04,1-.11,1.33-.16.5-.25.5Z"/>
    <path class="cls-2" d="m55.74,23.04c-.11,0-.2-.17-.26-.5-.07-.34-.1-.78-.1-1.33s.03-.97.1-1.3c.07-.33.15-.5.26-.5v3.64Zm0,0v-3.64h11.74l-.67,3.64h-11.07Zm7.97-2.41v-2.43c0-.38-.12-.73-.36-1.03-.24-.3-.59-.54-1.04-.71s-1.02-.26-1.69-.26c-.47,0-.95.05-1.44.16-.49.11-.92.23-1.28.38l-1.37-3.02c.62-.38,1.28-.67,1.98-.86.7-.19,1.4-.29,2.12-.29.82,0,1.59.12,2.33.37.74.25,1.4.61,1.99,1.09.59.48,1.05,1.07,1.39,1.76s.5,1.5.5,2.41v2.43h-3.13Zm-3.1-10.03c-.5,0-.92-.16-1.24-.49s-.49-.74-.49-1.24.16-.92.49-1.24.74-.49,1.24-.49.93.16,1.25.49.48.74.48,1.24-.16.92-.48,1.24-.74.49-1.25.49Zm5.8,12.44v-3.64h2.52v3.64h-2.52Zm2.52,0v-3.64c.11,0,.19.17.26.5.07.33.1.76.1,1.3s-.03,1-.1,1.33c-.07.34-.15.5-.26.5Z"/>
    <path class="cls-2" d="m68.93,23.04c-.11,0-.2-.17-.26-.5-.07-.34-.1-.78-.1-1.33s.03-.97.1-1.3c.07-.33.15-.5.26-.5v3.64Zm0,0v-3.64c.48,0,.89-.07,1.23-.2.34-.13.66-.35.96-.66.3-.31.62-.71.95-1.2.31-.43.65-.87,1.01-1.31.36-.44.76-.86,1.21-1.23.44-.38.94-.68,1.48-.91.55-.23,1.17-.34,1.86-.34s1.3.14,1.84.43,1,.69,1.38,1.2c.38.51.67,1.11.86,1.81s.3,1.46.3,2.29c0,.7-.08,1.43-.25,2.21-.17.77-.4,1.48-.7,2.13l-3.02-1.21c.28-.48.49-.99.63-1.52.14-.53.22-1.07.22-1.61,0-.74-.11-1.29-.34-1.63-.23-.34-.55-.51-.95-.51-.28,0-.57.09-.89.26-.32.17-.65.43-1,.78-.35.35-.71.79-1.1,1.33-.58.83-1.14,1.5-1.7,2.02-.56.52-1.15.9-1.78,1.14-.63.25-1.36.37-2.19.37Zm11.95-3.06l.18,3.64c-1.24.07-2.31.06-3.21-.03s-1.7-.25-2.38-.48c-.68-.23-1.28-.52-1.81-.88-.53-.36-1.02-.78-1.48-1.26l2.03-2.14c.4.41.89.71,1.49.89.59.19,1.32.29,2.17.32.85.02,1.85,0,3.01-.05Zm2.74,3.06c-.96,0-1.79-.2-2.48-.61-.69-.41-1.22-1-1.6-1.77-.38-.77-.57-1.7-.57-2.76v-.31l2.77.22.18.41c.04.3.1.54.21.72.1.18.27.3.51.37.24.07.56.1.97.1h.61v3.64h-.61Zm.61,0v-3.64c.11,0,.2.17.26.5.07.33.1.76.1,1.3s-.03,1-.1,1.33c-.07.34-.15.5-.26.5Z"/>
    <path class="cls-2" d="m84.23,23.04c-.11,0-.2-.17-.26-.5-.07-.34-.1-.78-.1-1.33s.03-.97.1-1.3c.07-.33.15-.5.26-.5v3.64Zm0,0v-3.64h2.65V7.13h3.11v15.91h-5.76Z"/>
    <path class="cls-2" d="m92.23,23.04V7.13h3.13v15.91h-3.13Z"/>
    <path class="cls-2" d="m11.26,54.04c-1.03,0-1.93-.15-2.69-.44-.76-.29-1.39-.7-1.88-1.21-.49-.51-.86-1.08-1.1-1.73-.24-.64-.36-1.32-.36-2.03,0-.65.1-1.3.3-1.96.2-.66.49-1.29.87-1.89l2.41,1.1c-.19.4-.34.78-.43,1.14s-.14.72-.14,1.05c0,.46.1.86.31,1.21.2.35.52.63.96.82s.99.29,1.67.29h7.63v-5.81h3.11v9.45h-10.66Zm.76-10.3c-.4,0-.72-.13-.98-.38-.26-.25-.39-.58-.39-.97s.13-.74.39-1c.26-.26.58-.39.98-.39s.74.13,1,.39c.26.26.39.59.39,1s-.13.72-.39.97c-.26.25-.59.38-1,.38Zm3.13,0c-.4,0-.72-.13-.98-.38-.26-.25-.39-.58-.39-.97s.13-.74.39-1c.26-.26.58-.39.98-.39s.74.13.99.39c.25.26.38.59.38,1s-.13.72-.38.97-.58.38-.99.38Z"/>
    <path class="cls-2" d="m24.33,54.04v-15.91h3.13v15.91h-3.13Zm2.99,0v-3.64h2.09v3.64h-2.09Zm2.09,0v-3.64c.1,0,.18.17.25.5s.11.76.11,1.3-.04,1-.11,1.33-.16.5-.25.5Z"/>
    <path class="cls-2" d="m29.41,54.04c-.11,0-.2-.17-.26-.5-.07-.34-.1-.78-.1-1.33s.03-.97.1-1.3c.07-.33.15-.5.26-.5v3.64Zm0,0v-3.64h10.75v3.64h-10.75Zm7.22-1.03c-1.04,0-2-.14-2.85-.43-.86-.29-1.54-.74-2.05-1.36-.51-.62-.77-1.41-.77-2.37,0-.76.15-1.42.46-1.99.31-.57.72-1.04,1.24-1.42s1.12-.66,1.8-.85c.68-.19,1.38-.28,2.12-.28.6,0,1.2.07,1.8.21s1.14.34,1.62.6l-1.37,3.04c-.31-.07-.65-.13-1.02-.16-.37-.04-.71-.05-1.04-.05-.85,0-1.48.13-1.88.4-.4.26-.6.59-.6.97,0,.19.07.37.21.54s.39.3.77.4c.37.1.89.14,1.57.14v2.61Z"/>
    <path class="cls-2" d="m41.99,54.04v-15.91h3.13v15.91h-3.13Z"/>
    <path class="cls-2" d="m46.99,54.04v-3.64h8.69v3.64h-8.69Zm6.71,0c-.01-1.27-.23-2.4-.65-3.38-.42-.98-1.03-1.81-1.84-2.48s-1.79-1.14-2.95-1.41l.67-3.38c1.62.37,3.02,1.05,4.19,2.04,1.17.99,2.08,2.22,2.73,3.68.65,1.46.98,3.11.99,4.93h-3.13Zm1.03,0v-3.64h3.46v3.64h-3.46Zm3.46,0v-3.64c.1,0,.18.17.25.5.07.33.11.76.11,1.3s-.04,1-.11,1.33c-.07.34-.16.5-.25.5Z"/>
    <path class="cls-2" d="m58.19,54.04c-.11,0-.2-.17-.26-.5-.07-.34-.1-.78-.1-1.33s.03-.97.1-1.3c.07-.33.15-.5.26-.5v3.64Zm2.79-9.45h3.13v9.45h-5.92v-3.64h2.79v-5.81Zm.49,14.89c-.5,0-.92-.16-1.24-.49s-.49-.74-.49-1.24.16-.92.49-1.24.74-.49,1.24-.49.93.16,1.25.49c.32.32.48.74.48,1.24s-.16.92-.48,1.24c-.32.32-.74.49-1.25.49Z"/>
    <path class="cls-2" d="m66.52,54.04v-3.64h12.19v3.64h-12.19Zm1.46,6.34v-1.76h5.35v1.76h-5.35Zm3.49-.5c-.9,0-1.63-.17-2.2-.52-.56-.35-.85-.85-.85-1.51,0-.47.13-.87.41-1.21.27-.34.62-.61,1.06-.79.44-.19.91-.28,1.41-.28.31,0,.62.03.91.1.29.07.57.17.84.31l-.67,1.44c-.14-.02-.3-.05-.47-.07-.17-.02-.32-.04-.47-.04-.46,0-.82.07-1.09.21-.27.14-.4.29-.4.46,0,.16.13.3.4.44.27.14.64.21,1.11.21v1.26Zm-2.39-5.83v-11.11h3.13v11.11h-3.13Zm6.5,0v-15.91h3.13v15.91h-3.13Z"/>
    <path class="cls-2" d="m81.3,54.04v-15.91h3.13v15.91h-3.13Z"/>
    <path class="cls-2" d="m91.76,54.04c-1.08,0-2.02-.22-2.81-.67-.79-.44-1.41-1.04-1.84-1.77-.44-.74-.66-1.55-.66-2.44,0-.72.14-1.38.41-1.98.28-.6.66-1.12,1.14-1.57.49-.45,1.05-.8,1.69-1.05s1.33-.38,2.08-.38,1.42.11,2.11.32c.68.21,1.29.43,1.82.67l-1.26,3.22c-1.01-.6-1.9-.9-2.66-.9-.46,0-.85.08-1.17.25s-.58.38-.76.64c-.18.26-.27.53-.27.8,0,.25.08.5.24.74s.41.44.73.58c.32.15.73.23,1.21.23h2.95v3.31h-2.95Zm-4.5,5.24v-3.64h3.08c.86,0,1.45-.12,1.77-.37.32-.25.48-.59.48-1.04v-9.07h3.11v9.07c0,1.03-.22,1.93-.66,2.68-.44.76-1.06,1.34-1.86,1.75-.8.41-1.75.61-2.84.61h-3.08Z"/>
  </g>
  <g>
    <path class="cls-1" d="m141.86,28.14c-.56-.03-1.12-.03-1.67,0-1.93,7.75-7.98,13.8-15.73,15.73-.03.56-.03,1.12,0,1.67,0,9.65,7.82,17.47,17.47,17.47s17.47-7.82,17.47-17.47-7.82-17.47-17.47-17.47l-.07.07Zm5.56,20.15l-2.9,2.9-2.65-2.65-2.7,2.65-2.9-2.9,2.68-2.65-2.68-2.68,2.9-2.9,2.68,2.68,2.65-2.68,2.9,2.9-2.65,2.68,2.66,2.65Z"/>
    <path class="cls-1" d="m119.22,5.52c-9.65,0-17.47,7.83-17.46,17.48,0,9.65,7.83,17.47,17.48,17.46,9,0,16.52-6.84,17.38-15.8.03-.56.03-1.12,0-1.67,0-9.62-7.78-17.42-17.4-17.47h0Zm.52,21.86c-.39.39-.91.6-1.46.59-.54,0-1.06-.21-1.44-.59l-3.92-3.87,2.9-2.9,2.43,2.43,4.37-4.41,2.9,2.9-5.78,5.85Z"/>
  </g>
</svg>