<?xml version="1.0" encoding="UTF-8"?>
<svg id="Layer_1" data-name="Layer 1" xmlns="http://www.w3.org/2000/svg" viewBox="0 0 164 68.92">
  <defs>
    <style>
      .cls-1 {
        fill: #717988;
        stroke-width: 0px;
      }
    </style>
  </defs>
  <g>
    <path class="cls-1" d="m11.53,22.3c-.97,0-1.82-.14-2.54-.42-.72-.28-1.31-.66-1.78-1.14-.46-.48-.81-1.03-1.04-1.63s-.34-1.24-.34-1.91c0-.61.09-1.23.28-1.85.19-.62.46-1.22.82-1.79l2.28,1.04c-.18.37-.32.73-.41,1.08-.09.35-.14.68-.14.99,0,.43.1.81.29,1.15.19.33.5.59.91.77.41.18.94.27,1.57.27h7.21v-5.49h2.94v8.92h-10.06Zm.71-9.72c-.37,0-.68-.12-.93-.36s-.37-.54-.37-.92.12-.7.37-.94.55-.37.93-.37.7.12.94.37c.24.24.37.56.37.94s-.12.68-.37.92c-.24.24-.56.36-.94.36Zm2.96,0c-.37,0-.68-.12-.93-.36s-.37-.54-.37-.92.12-.7.37-.94.55-.37.93-.37.7.12.94.37c.24.24.36.56.36.94s-.12.68-.36.92c-.24.24-.55.36-.94.36Z"/>
    <path class="cls-1" d="m23.87,22.3v-3.43h6.8v3.43h-6.8Zm2.41,0v-10.49h2.96v10.49h-2.96Zm3.69,0c-.1,0-.18-.16-.25-.48-.06-.32-.09-.74-.09-1.26s.03-.92.09-1.23c.06-.31.14-.47.25-.47v3.43Zm0,0v-3.43h.85c.43,0,.76-.04,1-.13.23-.08.39-.23.48-.43s.13-.49.13-.87V7.27h2.96v10.17c0,1.01-.18,1.88-.54,2.6-.36.73-.88,1.28-1.56,1.67-.68.38-1.5.58-2.45.59h-.85Zm7,0c-.95,0-1.77-.19-2.45-.58-.68-.38-1.2-.94-1.56-1.67-.36-.73-.54-1.6-.54-2.61h2.96c0,.37.04.66.14.87s.25.35.48.43.56.13.99.13h.41v3.43h-.41Zm.41,0v-3.43c.1,0,.18.16.25.47.06.31.09.72.09,1.23s-.03.94-.09,1.26-.14.48-.25.48Z"/>
    <path class="cls-1" d="m37.38,22.3c-.1,0-.18-.16-.25-.48s-.09-.74-.09-1.26.03-.92.09-1.23c.06-.31.14-.47.25-.47v3.43Zm0,0v-3.43h.95c.44,0,.78-.04,1-.13s.38-.23.48-.43.14-.49.14-.87v-2.4h2.94v2.4c0,1.01-.18,1.88-.54,2.61-.36.73-.88,1.29-1.56,1.67-.67.39-1.49.58-2.46.58h-.95Zm7.46,0c-.6,0-1.18-.14-1.73-.42-.55-.28-1.01-.71-1.38-1.3-.37-.59-.57-1.34-.6-2.24l1.65-.78c.02.46.18.82.48,1.06.29.24.61.37.95.37.36,0,.69-.13.98-.38s.43-.64.43-1.17v-3.23h2.96v3.84c0,.97-.18,1.78-.54,2.41-.36.63-.83,1.09-1.39,1.39-.57.3-1.17.45-1.8.45Zm5.64,0c-.6,0-1.18-.14-1.73-.42-.55-.28-1.01-.71-1.37-1.3-.36-.59-.56-1.34-.59-2.24l1.65-.78c.01.46.16.82.46,1.06.29.24.61.37.95.37.36,0,.69-.13.98-.38s.43-.64.43-1.17v-4.06h2.96v4.67c0,.97-.18,1.78-.54,2.41-.36.63-.83,1.09-1.39,1.39-.57.3-1.17.45-1.8.45Z"/>
    <path class="cls-1" d="m56.34,22.3V7.27h2.96v15.03h-2.96Z"/>
    <path class="cls-1" d="m60.3,23.95c.59-.02,1.05-.09,1.37-.2.32-.11.55-.28.68-.48.13-.21.2-.47.2-.79v-9.09h2.96v9.09c0,.93-.19,1.74-.57,2.43-.38.69-.92,1.24-1.61,1.63-.69.4-1.52.62-2.48.68l-.54-3.26Zm4.54-1.65v-3.43h2.63v3.43h-2.63Zm2.63,0v-3.43c.09,0,.17.16.24.47.07.31.1.72.1,1.23s-.03.94-.1,1.26-.15.48-.24.48Z"/>
    <path class="cls-1" d="m67.47,22.3c-.1,0-.18-.16-.25-.48s-.09-.74-.09-1.26.03-.92.09-1.23c.06-.31.14-.47.25-.47v3.43Zm0,0v-3.43c.45,0,.84-.06,1.16-.19.32-.12.63-.33.91-.62s.58-.67.9-1.13c.29-.41.61-.82.95-1.24.34-.42.72-.81,1.14-1.16.42-.36.89-.64,1.4-.86.52-.22,1.1-.32,1.76-.32s1.22.14,1.73.41c.51.27.94.65,1.3,1.13.36.48.63,1.05.82,1.71.19.66.28,1.38.28,2.16,0,.66-.08,1.35-.24,2.08-.16.73-.38,1.4-.66,2.01l-2.86-1.14c.26-.45.46-.93.6-1.44.14-.5.2-1.01.2-1.52,0-.7-.11-1.22-.32-1.54-.22-.32-.52-.48-.9-.48-.26,0-.54.08-.84.25-.3.16-.62.41-.94.74-.33.33-.67.75-1.04,1.26-.54.78-1.08,1.42-1.61,1.9-.53.49-1.09.85-1.68,1.08s-1.28.35-2.07.35Zm11.29-2.89l.17,3.43c-1.17.07-2.18.06-3.03-.03-.86-.08-1.6-.24-2.24-.45-.64-.22-1.21-.49-1.71-.83-.5-.34-.96-.74-1.39-1.19l1.92-2.02c.37.38.84.67,1.4.84.56.18,1.24.28,2.05.3s1.75,0,2.84-.05Zm2.58,2.89c-.91,0-1.69-.19-2.34-.58-.65-.38-1.16-.94-1.51-1.67-.36-.73-.54-1.6-.54-2.61v-.29l2.62.2.17.39c.03.28.1.51.2.68.1.17.26.29.48.35s.53.09.92.09h.58v3.43h-.58Zm.58,0v-3.43c.1,0,.18.16.25.47.06.31.09.72.09,1.23s-.03.94-.09,1.26-.14.48-.25.48Z"/>
    <path class="cls-1" d="m81.92,22.3c-.1,0-.18-.16-.25-.48s-.09-.74-.09-1.26.03-.92.09-1.23c.06-.31.14-.47.25-.47v3.43Zm0,0v-3.43h2.5V7.27h2.94v15.03h-5.44Z"/>
    <path class="cls-1" d="m89.47,22.3V7.27h2.96v15.03h-2.96Z"/>
    <path class="cls-1" d="m10.78,42.95h1.67c2.47,2.08,3.71,4.14,3.71,6.15,0,.82-.19,1.54-.57,2.18-.38.64-.91,1.13-1.59,1.49-.68.36-1.47.54-2.38.54s-1.7-.18-2.39-.53c-.69-.35-1.22-.84-1.6-1.48-.38-.63-.57-1.36-.57-2.18,0-2.02,1.24-4.07,3.72-6.17Zm-.65-1.51c-.37,0-.68-.12-.93-.36-.24-.24-.37-.54-.37-.92s.12-.7.37-.94c.24-.24.55-.37.93-.37s.7.12.94.37c.24.24.37.56.37.94s-.12.68-.37.92c-.24.24-.56.36-.94.36Zm1.38,4.37c-.59.53-1.02,1.02-1.3,1.47-.28.45-.42.87-.42,1.27,0,.27.07.5.22.7.15.19.36.35.63.46.27.11.6.17.97.17s.68-.06.95-.17.48-.27.63-.48c.15-.2.22-.44.22-.71,0-.37-.14-.79-.41-1.23s-.69-.94-1.24-1.47h-.25Zm1.58-4.37c-.37,0-.68-.12-.93-.36-.24-.24-.37-.54-.37-.92s.12-.7.37-.94c.24-.24.55-.37.93-.37s.7.12.94.37c.24.24.36.56.36.94s-.12.68-.36.92c-.24.24-.55.36-.94.36Z"/>
    <path class="cls-1" d="m16.87,54.95c.59-.02,1.05-.09,1.37-.2.32-.11.55-.28.68-.48.13-.21.2-.47.2-.79v-9.09h2.96v9.09c0,.93-.19,1.74-.57,2.43-.38.69-.92,1.24-1.61,1.63-.69.4-1.52.62-2.48.68l-.54-3.26Zm4.54-1.65v-3.43h2.63v3.43h-2.63Zm2.63,0v-3.43c.09,0,.17.16.24.47.07.31.1.72.1,1.23s-.03.94-.1,1.26-.15.48-.24.48Z"/>
    <path class="cls-1" d="m24.04,53.3c-.1,0-.18-.16-.25-.48s-.09-.74-.09-1.26.03-.92.09-1.23c.06-.31.14-.47.25-.47v3.43Zm0,0v-3.43h4v3.43h-4Zm4,0v-3.43c.1,0,.18.16.25.47.06.31.09.72.09,1.23s-.03.94-.09,1.26-.14.48-.25.48Z"/>
    <path class="cls-1" d="m28.03,53.3c-.1,0-.18-.16-.25-.48s-.09-.74-.09-1.26.03-.92.09-1.23c.06-.31.14-.47.25-.47v3.43Zm0,0v-3.43h4v3.43h-4Zm4,0v-3.43c.1,0,.18.16.25.47.06.31.09.72.09,1.23s-.03.94-.09,1.26-.14.48-.25.48Z"/>
    <path class="cls-1" d="m32.03,53.3c-.1,0-.18-.16-.25-.48s-.09-.74-.09-1.26.03-.92.09-1.23c.06-.31.14-.47.25-.47v3.43Zm0,0v-3.43h4v3.43h-4Zm4,0v-3.43c.1,0,.18.16.25.47.06.31.09.72.09,1.23s-.03.94-.09,1.26-.14.48-.25.48Z"/>
    <path class="cls-1" d="m36.02,53.3c-.1,0-.18-.16-.25-.48s-.09-.74-.09-1.26.03-.92.09-1.23c.06-.31.14-.47.25-.47v3.43Zm0,0v-3.43h.95c.44,0,.78-.04,1-.13s.38-.23.48-.43.14-.49.14-.87v-2.4h2.94v2.4c0,1.01-.18,1.88-.54,2.61-.36.73-.88,1.29-1.56,1.67-.67.39-1.49.58-2.46.58h-.95Zm7.46,0c-.6,0-1.18-.14-1.73-.42-.55-.28-1.01-.71-1.38-1.3-.37-.59-.57-1.34-.6-2.24l1.65-.78c.02.46.18.82.48,1.06.29.24.61.37.95.37.36,0,.69-.13.98-.38s.43-.64.43-1.17v-3.23h2.96v3.84c0,.97-.18,1.78-.54,2.41-.36.63-.83,1.09-1.39,1.39-.57.3-1.17.45-1.8.45Zm.78-13.04c.37,0,.69.12.93.36.25.24.37.54.37.92s-.12.69-.37.93c-.25.25-.56.37-.93.37s-.68-.12-.93-.37c-.24-.25-.37-.56-.37-.93s.12-.68.37-.92c.24-.24.55-.36.93-.36Zm1.48-2.6c.36,0,.66.12.89.35s.35.52.35.88c0,.37-.12.68-.35.91-.23.23-.53.35-.89.35s-.66-.12-.9-.35c-.24-.23-.36-.54-.36-.91,0-.35.12-.64.36-.88.24-.23.54-.35.9-.35Zm3.38,15.64c-.6,0-1.18-.14-1.73-.42-.55-.28-1.01-.71-1.37-1.3-.36-.59-.56-1.34-.59-2.24l1.65-.78c.01.46.16.82.46,1.06.29.24.61.37.95.37.36,0,.69-.13.98-.38s.43-.64.43-1.17v-4.06h2.96v4.67c0,.97-.18,1.78-.54,2.41-.36.63-.83,1.09-1.39,1.39-.57.3-1.17.45-1.8.45Zm-1.9-13.04c.37,0,.68.12.93.36.24.24.37.54.37.92s-.12.69-.37.93c-.24.25-.55.37-.93.37s-.68-.12-.93-.37c-.24-.25-.37-.56-.37-.93s.12-.68.37-.92c.24-.24.55-.36.93-.36Z"/>
    <path class="cls-1" d="m54.98,53.3v-15.03h2.96v15.03h-2.96Zm2.82,0v-3.43h1.97v3.43h-1.97Zm1.97,0v-3.43c.09,0,.17.16.24.47.07.31.1.72.1,1.23s-.03.94-.1,1.26c-.07.32-.15.48-.24.48Z"/>
    <path class="cls-1" d="m59.77,53.3c-.1,0-.18-.16-.25-.48s-.09-.74-.09-1.26.03-.92.09-1.23c.06-.31.14-.47.25-.47v3.43Zm0,0v-3.43h.97c.43,0,.76-.04.99-.13s.38-.23.48-.43.14-.49.14-.87v-4.06h2.96v4.06c0,1.01-.18,1.88-.55,2.6s-.89,1.28-1.56,1.67c-.67.38-1.49.58-2.44.59h-.97Zm3.83,5.13c-.48,0-.87-.15-1.17-.46-.31-.31-.46-.7-.46-1.17s.15-.87.46-1.17c.31-.31.7-.46,1.17-.46s.88.15,1.18.46c.3.31.45.7.45,1.17s-.15.87-.45,1.17c-.3.31-.69.46-1.18.46Zm3.3-5.13c-.95,0-1.77-.19-2.45-.58-.68-.38-1.2-.94-1.56-1.67-.36-.73-.54-1.6-.54-2.61h2.96c0,.37.04.66.13.87s.24.35.48.43c.23.08.56.13.99.13h.58v3.43h-.58Zm.58,0v-3.43c.1,0,.18.16.25.47.06.31.09.72.09,1.23s-.03.94-.09,1.26-.14.48-.25.48Z"/>
    <path class="cls-1" d="m67.47,53.3c-.1,0-.18-.16-.25-.48s-.09-.74-.09-1.26.03-.92.09-1.23c.06-.31.14-.47.25-.47v3.43Zm0,0v-3.43c.45,0,.84-.06,1.16-.19.32-.12.63-.33.91-.62s.58-.67.9-1.13c.29-.41.61-.82.95-1.24.34-.42.72-.81,1.14-1.16.42-.36.89-.64,1.4-.86.52-.22,1.1-.32,1.76-.32s1.22.14,1.73.41c.51.27.94.65,1.3,1.13.36.48.63,1.05.82,1.71.19.66.28,1.38.28,2.16,0,.66-.08,1.35-.24,2.08-.16.73-.38,1.4-.66,2.01l-2.86-1.14c.26-.45.46-.93.6-1.44.14-.5.2-1.01.2-1.52,0-.7-.11-1.22-.32-1.54-.22-.32-.52-.48-.9-.48-.26,0-.54.08-.84.25-.3.16-.62.41-.94.74-.33.33-.67.75-1.04,1.26-.54.78-1.08,1.42-1.61,1.9-.53.49-1.09.85-1.68,1.08s-1.28.35-2.07.35Zm11.29-2.89l.17,3.43c-1.17.07-2.18.06-3.03-.03-.86-.08-1.6-.24-2.24-.45-.64-.22-1.21-.49-1.71-.83-.5-.34-.96-.74-1.39-1.19l1.92-2.02c.37.38.84.67,1.4.84.56.18,1.24.28,2.05.3s1.75,0,2.84-.05Zm2.58,2.89c-.91,0-1.69-.19-2.34-.58-.65-.38-1.16-.94-1.51-1.67-.36-.73-.54-1.6-.54-2.61v-.29l2.62.2.17.39c.03.28.1.51.2.68.1.17.26.29.48.35s.53.09.92.09h.58v3.43h-.58Zm.58,0v-3.43c.1,0,.18.16.25.47.06.31.09.72.09,1.23s-.03.94-.09,1.26-.14.48-.25.48Z"/>
    <path class="cls-1" d="m81.92,53.3c-.1,0-.18-.16-.25-.48s-.09-.74-.09-1.26.03-.92.09-1.23c.06-.31.14-.47.25-.47v3.43Zm0,0v-3.43h2.5v-11.59h2.94v15.03h-5.44Z"/>
    <path class="cls-1" d="m89.47,53.3v-15.03h2.96v15.03h-2.96Z"/>
  </g>
  <g id="_20" data-name=" 20">
    <path class="cls-1" d="m130.66,4.87c-17.27,0-31.34,11.25-31.34,25.07.12,6.13,2.76,11.93,7.3,16.04l-5.7,3.13c-1.52.82-2.09,2.72-1.27,4.25.56,1.03,1.64,1.66,2.81,1.65h28.2c17.27,0,31.34-11.25,31.34-25.07s-14.07-25.07-31.34-25.07h0Zm11.63,24.16l-6.27,6.27c-1.22,1.23-3.2,1.24-4.43.02,0,0-.01-.01-.02-.02l-4.04-4.07-4.04,4.07c-1.23,1.23-3.22,1.23-4.45,0-1.23-1.23-1.23-3.22,0-4.45l6.27-6.27c1.22-1.23,3.2-1.24,4.43-.02,0,0,.01.01.02.02l4.04,4.07,4.04-4.07c1.23-1.23,3.22-1.23,4.45,0,1.23,1.23,1.23,3.22,0,4.45Z"/>
  </g>
</svg>