<?xml version="1.0" encoding="UTF-8"?>
<svg id="Layer_1" data-name="Layer 1" xmlns="http://www.w3.org/2000/svg" viewBox="0 0 164 68.92">
  <defs>
    <style>
      .cls-1 {
        fill: #b28a8a;
      }

      .cls-1, .cls-2 {
        stroke-width: 0px;
      }

      .cls-2 {
        fill: #717988;
      }
    </style>
  </defs>
  <g>
    <path class="cls-2" d="m12.91,23.04c-1.03,0-1.93-.15-2.69-.44-.76-.29-1.39-.7-1.88-1.21-.49-.51-.86-1.08-1.1-1.73-.24-.64-.36-1.32-.36-2.03,0-.65.1-1.3.3-1.96.2-.66.49-1.29.87-1.89l2.41,1.1c-.19.4-.34.78-.43,1.14s-.14.72-.14,1.05c0,.46.1.86.31,1.21.2.35.52.63.96.82s.99.29,1.67.29h7.63v-5.81h3.12v9.45h-10.66Zm.76-10.3c-.4,0-.72-.13-.98-.38-.26-.25-.39-.58-.39-.97s.13-.74.39-1c.26-.26.58-.39.98-.39s.74.13,1,.39c.26.26.39.59.39,1s-.13.72-.39.97c-.26.25-.59.38-1,.38Zm3.13,0c-.4,0-.72-.13-.98-.38-.26-.25-.39-.58-.39-.97s.13-.74.39-1c.26-.26.58-.39.98-.39s.74.13.99.39c.25.26.38.59.38,1s-.13.72-.38.97c-.25.25-.58.38-.99.38Z"/>
    <path class="cls-2" d="m25.97,23.04V7.13h3.13v15.91h-3.13Z"/>
    <path class="cls-2" d="m30.17,24.79c.62-.02,1.11-.1,1.45-.22.34-.12.58-.29.72-.51.14-.22.21-.5.21-.84v-9.63h3.13v9.63c0,.98-.2,1.84-.6,2.57-.4.73-.97,1.31-1.7,1.73-.73.42-1.61.66-2.63.72l-.58-3.46Z"/>
    <path class="cls-2" d="m37.91,23.04V7.13h3.13v15.91h-3.13Zm2.99,0v-3.64h2.09v3.64h-2.09Zm2.09,0v-3.64c.1,0,.18.17.25.5s.11.76.11,1.3-.04,1-.11,1.33-.16.5-.25.5Z"/>
    <path class="cls-2" d="m42.98,23.04c-.11,0-.2-.17-.26-.5-.07-.34-.1-.78-.1-1.33s.03-.97.1-1.3c.07-.33.15-.5.26-.5v3.64Zm0,0v-3.64h4.23v3.64h-4.23Zm4.23,0v-3.64c.11,0,.19.17.26.5.07.33.1.76.1,1.3s-.03,1-.1,1.33c-.07.34-.15.5-.26.5Z"/>
    <path class="cls-2" d="m47.21,23.04c-.11,0-.2-.17-.26-.5-.07-.34-.1-.78-.1-1.33s.03-.97.1-1.3c.07-.33.15-.5.26-.5v3.64Zm0,0v-3.64h4.23v3.64h-4.23Zm4.23,0v-3.64c.11,0,.19.17.26.5.07.33.1.76.1,1.3s-.03,1-.1,1.33c-.07.34-.15.5-.26.5Z"/>
    <path class="cls-2" d="m51.44,23.04c-.11,0-.2-.17-.26-.5-.07-.34-.1-.78-.1-1.33s.03-.97.1-1.3c.07-.33.15-.5.26-.5v3.64Zm0,0v-3.64h4.23v3.64h-4.23Zm4.23,0v-3.64c.11,0,.19.17.26.5.07.33.1.76.1,1.3s-.03,1-.1,1.33c-.07.34-.15.5-.26.5Z"/>
    <path class="cls-2" d="m55.67,23.04c-.11,0-.2-.17-.26-.5-.07-.34-.1-.78-.1-1.33s.03-.97.1-1.3c.07-.33.15-.5.26-.5v3.64Zm0,0v-3.64h4.61c.32,0,.67-.04,1.03-.13s.73-.19,1.08-.32c.35-.13.68-.28.97-.45.29-.17.53-.33.7-.5.17-.16.26-.31.26-.44,0-.16-.11-.31-.34-.45-.23-.14-.54-.26-.95-.36-.4-.1-.87-.14-1.4-.14-.44,0-.86.04-1.26.12-.4.08-.79.19-1.19.35l-.52.52-1.76-.97,1.71-2.79c.48-.14.99-.27,1.54-.37.55-.1,1.15-.15,1.81-.15,1.09,0,2.05.14,2.87.42s1.46.68,1.93,1.19c.46.51.69,1.11.69,1.79,0,.58-.16,1.13-.47,1.67-.31.53-.73,1.04-1.24,1.5-.52.47-1.1.89-1.75,1.28-.65.38-1.33.71-2.03.99s-1.37.49-2.03.65c-.66.16-1.25.23-1.78.23h-2.48Zm10.04,0c-1.49,0-2.83-.26-4.02-.79-1.19-.53-2.2-1.27-3.02-2.23-.82-.96-1.41-2.09-1.75-3.38l2.29-1.06c.13.77.39,1.44.76,2.02s.86,1.02,1.44,1.34c.58.32,1.23.48,1.95.48h5.8v3.64h-3.44Zm3.44,0v-3.64c.1,0,.18.17.25.5.07.33.11.76.11,1.3s-.04,1-.11,1.33c-.07.34-.16.5-.25.5Z"/>
    <path class="cls-2" d="m69.16,23.04c-.11,0-.2-.17-.26-.5-.07-.34-.1-.78-.1-1.33s.03-.97.1-1.3c.07-.33.15-.5.26-.5v3.64Zm0,0v-3.64h1.01c.47,0,.82-.04,1.06-.14.24-.09.41-.24.5-.46.1-.22.14-.52.14-.92v-2.54h3.11v2.54c0,1.07-.19,1.99-.58,2.76-.38.77-.93,1.37-1.65,1.77-.71.41-1.58.61-2.6.61h-1.01Zm7.9,0c-.64,0-1.25-.15-1.83-.44-.58-.29-1.07-.75-1.46-1.38-.39-.62-.6-1.42-.64-2.38l1.75-.83c.02.49.19.87.5,1.12.31.26.65.39,1.01.39.38,0,.73-.13,1.04-.41.31-.27.46-.68.46-1.23v-3.42h3.13v4.07c0,1.03-.19,1.88-.58,2.55-.38.67-.88,1.16-1.48,1.48-.6.32-1.24.48-1.91.48Zm.83-13.81c.4,0,.73.13.99.38s.4.58.4.97-.13.73-.4.99-.59.4-.99.4-.72-.13-.98-.4-.39-.59-.39-.99.13-.72.39-.97.58-.38.98-.38Zm1.57-2.75c.38,0,.7.12.95.37.25.25.37.56.37.93,0,.4-.12.72-.37.96-.25.25-.56.37-.95.37s-.7-.12-.95-.37-.38-.57-.38-.96c0-.37.13-.68.38-.93.25-.25.57-.37.95-.37Zm3.58,16.56c-.64,0-1.25-.15-1.83-.44-.58-.29-1.06-.75-1.45-1.38-.38-.62-.59-1.42-.63-2.38l1.75-.83c.01.49.17.87.49,1.12.31.26.65.39,1.01.39.38,0,.73-.13,1.04-.41.31-.27.46-.68.46-1.23v-4.3h3.13v4.95c0,1.03-.19,1.88-.58,2.55s-.88,1.16-1.48,1.48c-.6.32-1.24.48-1.91.48Zm-2.02-13.81c.4,0,.72.13.98.38s.39.58.39.97-.13.73-.39.99-.58.4-.98.4-.72-.13-.98-.4-.39-.59-.39-.99.13-.72.39-.97.58-.38.98-.38Z"/>
    <path class="cls-2" d="m89.23,23.04V7.13h3.13v15.91h-3.13Z"/>
    <path class="cls-2" d="m13.43,53.23c-.7,0-1.36-.09-2-.27-.64-.18-1.2-.46-1.69-.83-.49-.37-.88-.83-1.16-1.39-.28-.55-.42-1.19-.42-1.93,0-.83.19-1.56.57-2.21s.9-1.18,1.57-1.6c.67-.43,1.46-.75,2.36-.98.9-.23,1.87-.35,2.92-.38l.05,3.06c-.68.01-1.29.07-1.83.17-.53.1-.99.25-1.37.43-.38.19-.66.41-.85.67-.19.26-.29.54-.29.85,0,.28.08.52.23.72.16.21.39.36.71.46.32.1.71.15,1.16.15.43,0,.83-.05,1.21-.14.37-.1.73-.23,1.08-.4l1.46,2.7c-.56.3-1.16.53-1.8.67-.64.15-1.27.23-1.91.23Zm-1.89-11.7c-.4,0-.72-.13-.98-.38-.26-.25-.39-.58-.39-.97s.13-.74.39-1c.26-.26.58-.39.98-.39s.74.13,1,.39c.26.26.39.59.39,1s-.13.72-.39.97c-.26.25-.59.38-1,.38Zm3.13,0c-.4,0-.72-.13-.98-.38-.26-.25-.39-.58-.39-.97s.13-.74.39-1c.26-.26.58-.39.98-.39s.74.13.99.39c.25.26.38.59.38,1s-.13.72-.38.97-.58.38-.99.38Zm5.47,12.51c-1.01,0-1.87-.2-2.59-.61-.72-.41-1.27-1-1.66-1.77-.38-.77-.58-1.7-.58-2.76v-5.81h3.13v5.81c0,.4.04.7.14.92.09.22.26.37.5.46.24.09.6.14,1.05.14h.63v3.64h-.63Zm.63,0v-3.64c.1,0,.18.17.25.5s.11.76.11,1.3-.04,1-.11,1.33-.16.5-.25.5Z"/>
    <path class="cls-2" d="m20.77,54.04c-.11,0-.2-.17-.26-.5-.07-.34-.1-.78-.1-1.33s.03-.97.1-1.3c.07-.33.15-.5.26-.5v3.64Zm0,0v-3.64h4.23v3.64h-4.23Zm4.23,0v-3.64c.11,0,.19.17.26.5.07.33.1.76.1,1.3s-.03,1-.1,1.33c-.07.34-.15.5-.26.5Z"/>
    <path class="cls-2" d="m25,54.04c-.11,0-.2-.17-.26-.5-.07-.34-.1-.78-.1-1.33s.03-.97.1-1.3c.07-.33.15-.5.26-.5v3.64Zm0,0v-3.64h4.23v3.64h-4.23Zm4.23,0v-3.64c.11,0,.19.17.26.5.07.33.1.76.1,1.3s-.03,1-.1,1.33c-.07.34-.15.5-.26.5Z"/>
    <path class="cls-2" d="m29.23,54.04c-.11,0-.2-.17-.26-.5-.07-.34-.1-.78-.1-1.33s.03-.97.1-1.3c.07-.33.15-.5.26-.5v3.64Zm0,0v-3.64h1.01c.47,0,.82-.04,1.06-.14.24-.09.41-.24.5-.46.1-.22.14-.52.14-.92v-2.54h3.11v2.54c0,1.07-.19,1.99-.58,2.76-.38.77-.93,1.37-1.65,1.77-.71.41-1.58.61-2.6.61h-1.01Zm7.9,0c-.64,0-1.25-.15-1.83-.44-.58-.29-1.07-.75-1.46-1.38-.39-.62-.6-1.42-.64-2.38l1.75-.83c.02.49.19.87.5,1.12.31.26.65.39,1.01.39.38,0,.73-.13,1.04-.41.31-.27.46-.68.46-1.23v-3.42h3.13v4.07c0,1.03-.19,1.88-.58,2.55-.38.67-.88,1.16-1.48,1.48-.6.32-1.24.48-1.91.48Zm5.98,0c-.64,0-1.25-.15-1.83-.44-.58-.29-1.06-.75-1.45-1.38-.38-.62-.59-1.42-.63-2.38l1.75-.83c.01.49.17.87.49,1.12.31.26.65.39,1.01.39.38,0,.73-.13,1.04-.41.31-.27.46-.68.46-1.23v-4.3h3.13v4.95c0,1.03-.19,1.88-.58,2.55s-.88,1.16-1.48,1.48c-.6.32-1.24.48-1.91.48Z"/>
    <path class="cls-2" d="m47.72,55.79c.62-.02,1.11-.1,1.45-.22.34-.12.58-.29.72-.51.14-.22.21-.5.21-.84v-9.63h3.13v9.63c0,.98-.2,1.84-.6,2.57-.4.73-.97,1.31-1.7,1.73-.73.42-1.61.66-2.63.72l-.58-3.46Z"/>
    <path class="cls-2" d="m54.74,54.04v-3.64h8.69v3.64h-8.69Zm6.71,0c-.01-1.27-.23-2.4-.65-3.38-.42-.98-1.03-1.81-1.84-2.48s-1.79-1.14-2.95-1.41l.67-3.38c1.62.37,3.02,1.05,4.19,2.04,1.17.99,2.08,2.22,2.73,3.68.65,1.46.98,3.11.99,4.93h-3.13Zm1.03,0v-3.64h3.46v3.64h-3.46Zm3.46,0v-3.64c.1,0,.18.17.25.5.07.33.11.76.11,1.3s-.04,1-.11,1.33c-.07.34-.16.5-.25.5Z"/>
    <path class="cls-2" d="m65.93,54.04c-.11,0-.2-.17-.26-.5-.07-.34-.1-.78-.1-1.33s.03-.97.1-1.3c.07-.33.15-.5.26-.5v3.64Zm0,0v-3.64c.48,0,.89-.07,1.23-.2.34-.13.66-.35.96-.66.3-.31.62-.71.95-1.2.31-.43.65-.87,1.01-1.31.36-.44.76-.86,1.21-1.23.44-.38.94-.68,1.48-.91.55-.23,1.17-.34,1.86-.34s1.3.14,1.84.43,1,.69,1.38,1.2c.38.51.67,1.11.86,1.81s.3,1.46.3,2.29c0,.7-.08,1.43-.25,2.21-.17.77-.4,1.48-.7,2.13l-3.02-1.21c.28-.48.49-.99.63-1.52.14-.53.22-1.07.22-1.61,0-.74-.11-1.29-.34-1.63-.23-.34-.55-.51-.95-.51-.28,0-.57.09-.89.26-.32.17-.65.43-1,.78-.35.35-.71.79-1.1,1.33-.58.83-1.14,1.5-1.7,2.02-.56.52-1.15.9-1.78,1.14-.63.25-1.36.37-2.19.37Zm11.95-3.06l.18,3.64c-1.24.07-2.31.06-3.21-.03s-1.7-.25-2.38-.48c-.68-.23-1.28-.52-1.81-.88-.53-.36-1.02-.78-1.48-1.26l2.03-2.14c.4.41.89.71,1.49.89.59.19,1.32.29,2.17.32.85.02,1.85,0,3.01-.05Zm2.74,3.06c-.96,0-1.79-.2-2.48-.61-.69-.41-1.22-1-1.6-1.77-.38-.77-.57-1.7-.57-2.76v-.31l2.77.22.18.41c.04.3.1.54.21.72.1.18.27.3.51.37.24.07.56.1.97.1h.61v3.64h-.61Zm.61,0v-3.64c.11,0,.2.17.26.5.07.33.1.76.1,1.3s-.03,1-.1,1.33c-.07.34-.15.5-.26.5Z"/>
    <path class="cls-2" d="m81.23,54.04c-.11,0-.2-.17-.26-.5-.07-.34-.1-.78-.1-1.33s.03-.97.1-1.3c.07-.33.15-.5.26-.5v3.64Zm0,0v-3.64h2.65v-12.28h3.11v15.91h-5.76Z"/>
    <path class="cls-2" d="m89.23,54.04v-15.91h3.13v15.91h-3.13Z"/>
  </g>
  <g>
    <path class="cls-2" d="m127.85,63.01c4.5,0,8.26-3.21,9.12-7.45h-18.24c.86,4.24,4.63,7.45,9.12,7.45Z"/>
    <path class="cls-2" d="m145.23,30.74c-9.58,0-15.2-4.83-15.2-14.42,0-1.56.43-3.28,1.13-4.86.63-1.43-.38-3.04-1.94-3.05-.65,0-1.18,0-1.36,0-9.6,0-17.38,7.78-17.38,17.38v6.92c0,4.91-2.15,9.55-5.93,12.74-1.37,1.17-1.91,3.09-1.22,4.9s2.45,2.74,4.29,2.74h40.43c2.1,0,4.08-1.35,4.53-3.4.35-1.62-.22-3.24-1.47-4.3-3.61-3.03-5.7-9.24-5.84-13.94"/>
    <circle class="cls-1" cx="144.74" cy="16.36" r="10.45"/>
  </g>
</svg>