<?xml version="1.0" encoding="UTF-8"?>
<svg id="Layer_1" data-name="Layer 1" xmlns="http://www.w3.org/2000/svg" viewBox="0 0 164 68.92">
  <defs>
    <style>
      .cls-1 {
        fill: #fff;
      }

      .cls-1, .cls-2 {
        stroke-width: 0px;
      }

      .cls-2 {
        fill: #717988;
      }
    </style>
  </defs>
  <g>
    <path class="cls-2" d="m15.37,26.84c-.88,0-1.72-.17-2.53-.51s-1.53-.85-2.15-1.52c-.62-.67-1.12-1.5-1.48-2.47-.37-.98-.55-2.1-.55-3.38,0-.47.02-.92.07-1.35.05-.43.12-.86.21-1.3l3.03.58c-.07.34-.12.67-.14,1.01-.02.34-.04.66-.04.97,0,.94.12,1.72.37,2.36.25.64.63,1.12,1.15,1.44.52.32,1.17.49,1.94.49s1.45-.16,2.02-.48c.56-.32,1-.8,1.3-1.44.31-.64.46-1.44.46-2.39V7.13h3.12v11.72c0,1.3-.18,2.44-.55,3.43-.37.99-.87,1.82-1.5,2.5-.64.68-1.36,1.19-2.17,1.54-.81.35-1.66.52-2.55.52Z"/>
    <path class="cls-2" d="m29.11,23.04c-1.08,0-2.02-.22-2.81-.67-.79-.44-1.41-1.04-1.84-1.77-.44-.74-.66-1.55-.66-2.44,0-.72.14-1.38.41-1.98.28-.6.66-1.12,1.14-1.57.49-.45,1.05-.8,1.69-1.05s1.33-.38,2.08-.38,1.42.11,2.11.32c.68.21,1.29.43,1.82.67l-1.26,3.22c-1.01-.6-1.9-.9-2.66-.9-.46,0-.85.08-1.17.25s-.58.38-.76.64c-.18.26-.27.53-.27.8,0,.25.08.5.24.74s.41.44.73.58c.32.15.73.23,1.21.23h2.95v3.31h-2.95Zm-4.5,5.24v-3.64h3.08c.86,0,1.45-.12,1.77-.37.32-.25.48-.59.48-1.04v-9.07h3.11v9.07c0,1.03-.22,1.93-.66,2.68-.44.76-1.06,1.34-1.86,1.75-.8.41-1.75.61-2.84.61h-3.08Z"/>
    <path class="cls-2" d="m35.3,23.04V7.13h3.13v15.91h-3.13Z"/>
    <path class="cls-2" d="m40.3,23.04v-3.64h8.69v3.64h-8.69Zm6.71,0c-.01-1.27-.23-2.4-.65-3.38-.42-.98-1.03-1.81-1.84-2.48s-1.79-1.14-2.95-1.41l.67-3.38c1.62.37,3.02,1.05,4.19,2.04,1.17.99,2.08,2.22,2.73,3.68.65,1.46.98,3.11.99,4.93h-3.13Zm1.03,0v-3.64h3.46v3.64h-3.46Zm3.46,0v-3.64c.1,0,.18.17.25.5.07.33.11.76.11,1.3s-.04,1-.11,1.33c-.07.34-.16.5-.25.5Z"/>
    <path class="cls-2" d="m51.5,23.04c-.11,0-.2-.17-.26-.5-.07-.34-.1-.78-.1-1.33s.03-.97.1-1.3c.07-.33.15-.5.26-.5v3.64Zm0,0v-3.64h4.23v3.64h-4.23Zm4.23,0v-3.64c.11,0,.19.17.26.5.07.33.1.76.1,1.3s-.03,1-.1,1.33c-.07.34-.15.5-.26.5Z"/>
    <path class="cls-2" d="m55.73,23.04c-.11,0-.2-.17-.26-.5-.07-.34-.1-.78-.1-1.33s.03-.97.1-1.3c.07-.33.15-.5.26-.5v3.64Zm0,0v-3.64h4.23v3.64h-4.23Zm4.23,0v-3.64c.11,0,.19.17.26.5.07.33.1.76.1,1.3s-.03,1-.1,1.33c-.07.34-.15.5-.26.5Z"/>
    <path class="cls-2" d="m59.96,23.04c-.11,0-.2-.17-.26-.5-.07-.34-.1-.78-.1-1.33s.03-.97.1-1.3c.07-.33.15-.5.26-.5v3.64Zm0,0v-3.64h4.23v3.64h-4.23Zm4.23,0v-3.64c.11,0,.19.17.26.5.07.33.1.76.1,1.3s-.03,1-.1,1.33c-.07.34-.15.5-.26.5Z"/>
    <path class="cls-2" d="m64.19,23.04c-.11,0-.2-.17-.26-.5-.07-.34-.1-.78-.1-1.33s.03-.97.1-1.3c.07-.33.15-.5.26-.5v3.64Zm0,0v-3.64h4.23v3.64h-4.23Zm4.23,0v-3.64c.11,0,.19.17.26.5.07.33.1.76.1,1.3s-.03,1-.1,1.33c-.07.34-.15.5-.26.5Z"/>
    <path class="cls-2" d="m68.42,23.04c-.11,0-.2-.17-.26-.5-.07-.34-.1-.78-.1-1.33s.03-.97.1-1.3c.07-.33.15-.5.26-.5v3.64Zm0,0v-3.64h4.23v3.64h-4.23Zm4.23,0v-3.64c.11,0,.19.17.26.5.07.33.1.76.1,1.3s-.03,1-.1,1.33c-.07.34-.15.5-.26.5Z"/>
    <path class="cls-2" d="m72.65,23.04c-.11,0-.2-.17-.26-.5-.07-.34-.1-.78-.1-1.33s.03-.97.1-1.3c.07-.33.15-.5.26-.5v3.64Zm0,0v-3.64h4.23v3.64h-4.23Zm4.23,0v-3.64c.11,0,.19.17.26.5.07.33.1.76.1,1.3s-.03,1-.1,1.33c-.07.34-.15.5-.26.5Z"/>
    <path class="cls-2" d="m76.88,23.04c-.11,0-.2-.17-.26-.5-.07-.34-.1-.78-.1-1.33s.03-.97.1-1.3c.07-.33.15-.5.26-.5v3.64Zm0,0v-3.64h4.23v3.64h-4.23Zm4.23,0v-3.64c.11,0,.19.17.26.5.07.33.1.76.1,1.3s-.03,1-.1,1.33c-.07.34-.15.5-.26.5Z"/>
    <path class="cls-2" d="m81.11,23.04c-.11,0-.2-.17-.26-.5-.07-.34-.1-.78-.1-1.33s.03-.97.1-1.3c.07-.33.15-.5.26-.5v3.64Zm0,0v-3.64h11.74l-.67,3.64h-11.07Zm7.97-2.41v-2.43c0-.38-.12-.73-.36-1.03-.24-.3-.59-.54-1.04-.71s-1.02-.26-1.69-.26c-.47,0-.95.05-1.44.16-.49.11-.92.23-1.28.38l-1.37-3.02c.62-.38,1.28-.67,1.98-.86.7-.19,1.4-.29,2.12-.29.82,0,1.59.12,2.33.37.74.25,1.4.61,1.99,1.09.59.48,1.05,1.07,1.39,1.76s.5,1.5.5,2.41v2.43h-3.13Zm-2.36,7.85c-.5,0-.92-.16-1.24-.49s-.49-.74-.49-1.24.16-.92.49-1.24.74-.49,1.24-.49.93.16,1.25.49c.32.32.48.74.48,1.24s-.16.92-.48,1.24c-.32.32-.74.49-1.25.49Z"/>
    <path class="cls-2" d="m14.22,54.04c-1.03,0-1.93-.15-2.69-.44-.76-.29-1.39-.7-1.88-1.21-.49-.51-.86-1.08-1.1-1.73-.24-.64-.36-1.32-.36-2.03,0-.65.1-1.3.3-1.96.2-.66.49-1.29.87-1.89l2.41,1.1c-.19.4-.34.78-.43,1.14s-.14.72-.14,1.05c0,.46.1.86.31,1.21.2.35.53.63.96.82s.99.29,1.67.29h7.63v-5.81h3.11v9.45h-10.66Zm.76-10.3c-.4,0-.72-.13-.98-.38-.26-.25-.39-.58-.39-.97s.13-.74.39-1c.26-.26.58-.39.98-.39s.74.13,1,.39c.26.26.39.59.39,1s-.13.72-.39.97-.59.38-1,.38Zm3.13,0c-.4,0-.72-.13-.98-.38s-.39-.58-.39-.97.13-.74.39-1c.26-.26.58-.39.98-.39s.74.13.99.39c.25.26.38.59.38,1s-.13.72-.38.97-.58.38-.99.38Z"/>
    <path class="cls-2" d="m27.29,54.04v-15.91h3.13v15.91h-3.13Z"/>
    <path class="cls-2" d="m31.48,55.79c.62-.02,1.11-.1,1.45-.22.34-.12.58-.29.72-.51.14-.22.21-.5.21-.84v-9.63h3.13v9.63c0,.98-.2,1.84-.6,2.57-.4.73-.97,1.31-1.7,1.73-.73.42-1.61.66-2.63.72l-.58-3.46Z"/>
    <path class="cls-2" d="m39.22,54.04v-15.91h3.13v15.91h-3.13Zm2.99,0v-3.64h2.09v3.64h-2.09Zm2.09,0v-3.64c.1,0,.18.17.25.5s.11.76.11,1.3-.04,1-.11,1.33-.16.5-.25.5Z"/>
    <path class="cls-2" d="m44.3,54.04c-.11,0-.2-.17-.26-.5-.07-.34-.1-.78-.1-1.33s.03-.97.1-1.3c.07-.33.15-.5.26-.5v3.64Zm0,0v-3.64h1.03c.46,0,.8-.04,1.04-.14.24-.09.41-.24.5-.46.1-.22.14-.52.14-.92v-4.3h3.13v4.3c0,1.07-.19,1.99-.58,2.75-.39.77-.94,1.36-1.66,1.76-.71.41-1.58.62-2.58.63h-1.03Zm4.05,5.44c-.5,0-.92-.16-1.24-.49-.32-.32-.49-.74-.49-1.24s.16-.92.49-1.24c.32-.32.74-.49,1.24-.49s.93.16,1.25.49.48.74.48,1.24-.16.92-.48,1.24-.74.49-1.25.49Zm3.49-5.44c-1.01,0-1.87-.2-2.59-.61-.72-.41-1.27-1-1.66-1.77-.38-.77-.58-1.7-.58-2.76h3.13c0,.4.04.7.14.92.09.22.26.37.5.46.25.09.6.14,1.05.14h.61v3.64h-.61Zm.61,0v-3.64c.11,0,.19.17.26.5.07.33.1.76.1,1.3s-.03,1-.1,1.33c-.07.34-.15.5-.26.5Z"/>
    <path class="cls-2" d="m52.45,54.04c-.11,0-.2-.17-.26-.5-.07-.34-.1-.78-.1-1.33s.03-.97.1-1.3c.07-.33.15-.5.26-.5v3.64Zm0,0v-3.64h1.03c.46,0,.8-.04,1.04-.14.24-.09.41-.24.5-.46.1-.22.14-.52.14-.92v-4.3h3.13v4.3c0,1.07-.19,1.99-.58,2.75-.39.77-.94,1.36-1.66,1.76-.71.41-1.58.62-2.58.63h-1.03Zm2.5-11.07c-.4,0-.72-.13-.98-.38-.26-.25-.39-.58-.39-.97s.13-.74.39-1c.26-.26.58-.39.98-.39s.74.13,1,.39.39.59.39,1-.13.72-.39.97-.59.38-1,.38Zm5.04,11.07c-1.01,0-1.87-.2-2.59-.61-.72-.41-1.27-1-1.66-1.77-.38-.77-.58-1.7-.58-2.76h3.13c0,.4.04.7.14.92.09.22.26.37.5.46.25.09.6.14,1.05.14h.61v3.64h-.61Zm-1.91-11.07c-.4,0-.72-.13-.98-.38-.26-.25-.39-.58-.39-.97s.13-.74.39-1c.26-.26.58-.39.98-.39s.74.13.99.39.38.59.38,1-.13.72-.38.97-.58.38-.99.38Zm2.52,11.07v-3.64c.11,0,.19.17.26.5.07.33.1.76.1,1.3s-.03,1-.1,1.33c-.07.34-.15.5-.26.5Z"/>
    <path class="cls-2" d="m60.61,54.04c-.11,0-.2-.17-.26-.5-.07-.34-.1-.78-.1-1.33s.03-.97.1-1.3c.07-.33.15-.5.26-.5v3.64Zm0,0v-3.64h11.74l-.67,3.64h-11.07Zm7.97-2.41v-2.43c0-.38-.12-.73-.36-1.03-.24-.3-.59-.54-1.04-.71s-1.02-.26-1.69-.26c-.47,0-.95.05-1.44.16-.49.11-.92.23-1.28.38l-1.37-3.02c.62-.38,1.28-.67,1.98-.86.7-.19,1.4-.29,2.12-.29.82,0,1.59.12,2.33.37.74.25,1.4.61,1.99,1.09.59.48,1.05,1.07,1.39,1.76s.5,1.5.5,2.41v2.43h-3.13Zm-3.1-10.03c-.5,0-.92-.16-1.24-.49s-.49-.74-.49-1.24.16-.92.49-1.24.74-.49,1.24-.49.93.16,1.25.49.48.74.48,1.24-.16.92-.48,1.24-.74.49-1.25.49Z"/>
    <path class="cls-2" d="m74.45,54.04v-3.64h12.19v3.64h-12.19Zm2.56,0v-11.11h3.13v11.11h-3.13Zm6.5,0v-15.91h3.13v15.91h-3.13Z"/>
    <path class="cls-2" d="m89.23,54.04v-15.91h3.13v15.91h-3.13Z"/>
  </g>
  <g>
    <g id="Layer_3" data-name="Layer 3">
      <path class="cls-2" d="m149.97,7.56h-2.35v-1.95c0-1.08-.87-1.95-1.95-1.95s-1.95.87-1.95,1.95v1.95h-11.7v-1.95c0-1.08-.87-1.95-1.95-1.95s-1.95.87-1.95,1.95v1.95h-11.7v-1.95c0-1.08-.87-1.95-1.95-1.95s-1.95.87-1.95,1.95v1.95h-2.35c-4.08,0-7.39,3.31-7.4,7.4v39.79c0,4.08,3.31,7.39,7.4,7.4h39.79c4.08,0,7.39-3.31,7.4-7.4V14.96c0-4.08-3.31-7.39-7.4-7.4Z"/>
    </g>
    <path class="cls-1" d="m116.53,25.88c-.26,0-.51-.1-.71-.29l-3.15-3.15c-.39-.39-.39-1.02,0-1.41s1.02-.39,1.41,0l2.44,2.44,6.19-6.19c.39-.39,1.02-.39,1.41,0s.39,1.02,0,1.41l-6.9,6.9c-.2.2-.45.29-.71.29Z"/>
    <path class="cls-1" d="m116.53,39.58c-.27,0-.52-.11-.71-.29l-3.15-3.15c-.39-.39-.39-1.02,0-1.41s1.02-.39,1.41,0l2.44,2.44,6.19-6.19c.39-.39,1.02-.39,1.41,0s.39,1.02,0,1.41l-6.9,6.9c-.19.19-.44.29-.71.29Z"/>
    <path class="cls-1" d="m116.53,53.27c-.27,0-.52-.11-.71-.29l-3.15-3.15c-.39-.39-.39-1.02,0-1.41s1.02-.39,1.41,0l2.44,2.44,6.19-6.19c.39-.39,1.02-.39,1.41,0s.39,1.02,0,1.41l-6.9,6.9c-.19.19-.44.29-.71.29Z"/>
    <path class="cls-1" d="m148.98,50.67h-18.91c-.55,0-1-.45-1-1s.45-1,1-1h18.91c.55,0,1,.45,1,1s-.45,1-1,1Z"/>
    <path class="cls-1" d="m148.98,37.16h-18.91c-.55,0-1-.45-1-1s.45-1,1-1h18.91c.55,0,1,.45,1,1s-.45,1-1,1Z"/>
    <path class="cls-1" d="m148.98,23.65h-18.91c-.55,0-1-.45-1-1s.45-1,1-1h18.91c.55,0,1,.45,1,1s-.45,1-1,1Z"/>
  </g>
</svg>