<?xml version="1.0" encoding="UTF-8"?>
<svg id="_ëîé_7" data-name="‘ëîé_7" xmlns="http://www.w3.org/2000/svg" viewBox="0 0 52.61 54.11">
  <defs>
    <style>
      .cls-1 {
        fill: #004884;
        stroke-width: 0px;
      }
    </style>
  </defs>
  <g id="Layer_2" data-name="Layer 2">
    <path class="cls-1" d="m24.47,6.39v28.14h-12.85c-6.42,0-11.62-5.2-11.62-11.62v-4.89C0,11.6,5.2,6.39,11.62,6.39h12.85Z"/>
    <path class="cls-1" d="m50.83.81c-1.12-.8-2.55-1.02-3.86-.58l-20.07,6.68v27.12l20.07,6.68c.44.15.89.22,1.35.22,2.36,0,4.28-1.91,4.28-4.28,0,0,0,0,0,0V4.28c0-1.38-.66-2.67-1.78-3.47h0Z"/>
    <path class="cls-1" d="m27.29,51.13c-2.65,3.38-7.54,3.98-10.92,1.33-1.37-1.07-2.34-2.56-2.76-4.25l-2.81-11.28c.28.04.55.06.83.05h15.2l1.86,7.46c.59,2.32.07,4.79-1.39,6.68h0Z"/>
  </g>
</svg>