<?xml version="1.0" encoding="UTF-8"?>
<svg id="_ëîé_7" data-name="‘ëîé_7" xmlns="http://www.w3.org/2000/svg" viewBox="0 0 70.47 56.33">
  <defs>
    <style>
      .cls-1 {
        fill: #004884;
        stroke-width: 0px;
      }
    </style>
  </defs>
  <g id="_20" data-name=" 20">
    <path class="cls-1" d="m35.26,0C15.86,0,.05,12.64.05,28.17c.13,6.88,3.1,13.41,8.2,18.03l-6.41,3.52c-1.71.92-2.35,3.06-1.43,4.77.62,1.16,1.84,1.87,3.15,1.85h31.69c19.4,0,35.21-12.64,35.21-28.17S54.66,0,35.26,0h0Zm13.06,27.14l-7.04,7.04c-1.37,1.38-3.6,1.39-4.98.02,0,0-.01-.01-.02-.02l-4.54-4.58-4.54,4.58c-1.38,1.38-3.62,1.38-5,0-1.38-1.38-1.38-3.62,0-5l7.04-7.04c1.37-1.38,3.6-1.39,4.98-.02,0,0,.01.01.02.02l4.54,4.58,4.54-4.58c1.38-1.38,3.62-1.38,5,0,1.38,1.38,1.38,3.62,0,5Z"/>
  </g>
</svg>