<?xml version="1.0" encoding="UTF-8"?><svg id="_ëîé_7" xmlns="http://www.w3.org/2000/svg" width="53.56" height="59.06" viewBox="0 0 53.56 59.06"><defs><style>.cls-1{fill:#004884;fill-rule:evenodd;stroke-width:0px;}</style></defs><g id="Icon"><path class="cls-1" d="m53.56,48.07h-13.05c-4.17,0-7.55-3.38-7.55-7.55v-5.49c0-4.17,3.38-7.55,7.55-7.55h13.05v-3.43c0-2-.8-3.93-2.21-5.34-1.42-1.41-3.34-2.21-5.34-2.21H7.55c-2,0-3.93.8-5.34,2.21-1.41,1.42-2.21,3.34-2.21,5.34v27.47c0,2,.8,3.93,2.21,5.34,1.42,1.41,3.34,2.21,5.34,2.21h38.46c2,0,3.93-.8,5.34-2.21,1.41-1.42,2.21-3.34,2.21-5.34v-3.43Zm0-16.48v12.36h-13.05c-1.9,0-3.43-1.54-3.43-3.43v-5.49c0-1.9,1.54-3.43,3.43-3.43h13.05Zm-11.67,3.43c1.52,0,2.75,1.23,2.75,2.75s-1.23,2.75-2.75,2.75-2.75-1.23-2.75-2.75,1.23-2.75,2.75-2.75Z"/><path class="cls-1" d="m38.01,13.74h8c.52,0,1.05.04,1.56.12l1.3-2.8c.48-1.03.04-2.26-.99-2.74L30.45.19c-1.03-.48-2.26-.03-2.74,1l-1.48,3.16,9.06,4.22c2.01.94,3.06,3.08,2.71,5.16h0Z"/><path class="cls-1" d="m9.41,13.74h25.76c.43-1.02-.02-2.2-1.03-2.67L16.71,2.94c-1.03-.48-2.26-.03-2.74,1l-4.57,9.8Z"/></g></svg>