<?xml version="1.0" encoding="UTF-8"?>
<svg id="_ëîé_7" data-name="‘ëîé_7" xmlns="http://www.w3.org/2000/svg" viewBox="0 0 54.48 53.65">
  <defs>
    <style>
      .cls-1 {
        fill: #004884;
        stroke-width: 0px;
      }
    </style>
  </defs>
  <path class="cls-1" d="m46.95,0H7.75C3.42,0,0,3.86,0,8.74v36.17c0,4.88,3.42,8.74,7.75,8.74h38.97c4.33,0,7.75-3.86,7.75-8.74V8.74c.23-4.88-3.19-8.74-7.52-8.74Zm-28.03,6.84c3.65,0,6.38,2.96,6.38,6.38,0,3.65-2.96,6.38-6.38,6.38s-6.38-2.73-6.38-6.38c0-3.42,2.96-6.38,6.38-6.38ZM7.52,31.45c.91-3.65,3.88-6.84,7.52-7.98,1.14.46,2.51.68,3.87.68s2.74-.23,3.88-.68c1.82.46,3.19,1.59,4.56,2.73,1.37,1.37,2.51,3.19,2.96,5.24.46,1.59-.68,3.19-2.28,3.19H9.8c-1.59,0-2.73-1.6-2.28-3.19Zm38.04,14.29H9.33c-1.17,0-2.11-.95-2.11-2.11s.95-2.11,2.11-2.11h36.23c1.17,0,2.11.95,2.11,2.11s-.95,2.11-2.11,2.11Zm.48-19.31h-9.12c-1.14,0-2.28-1.14-2.28-2.28,0-1.37,1.14-2.28,2.28-2.28h9.12c1.37,0,2.28.91,2.28,2.28,0,1.14-1.14,2.28-2.28,2.28Zm0-9.12h-9.12c-1.14,0-2.28-.91-2.28-2.28,0-1.14,1.14-2.28,2.28-2.28h9.12c1.37,0,2.28,1.14,2.28,2.28,0,1.37-1.14,2.28-2.28,2.28Z"/>
</svg>