<?xml version="1.0" encoding="UTF-8"?>
<svg id="_ëîé_7" data-name="‘ëîé_7" xmlns="http://www.w3.org/2000/svg" viewBox="0 0 64.01 69.98">
  <defs>
    <style>
      .cls-1 {
        fill: #004884;
      }

      .cls-1, .cls-2 {
        stroke-width: 0px;
      }

      .cls-2 {
        fill: #fff;
      }
    </style>
  </defs>
  <g>
    <path class="cls-1" d="m15.53,27c.58,3.77,3.49,8.57,8.28,10.26,1.96.69,4.11.7,6.08-.01,4.71-1.7,7.71-6.49,8.31-10.25.63-.05,1.46-.94,2.36-4.11,1.23-4.34-.08-4.98-1.19-4.88.21-.59.37-1.2.47-1.78,1.87-11.25-3.67-11.63-3.67-11.63,0,0-.92-1.77-3.34-3.1-1.62-.96-3.88-1.7-6.84-1.45-.96.04-1.87.24-2.73.51h0c-1.09.37-2.1.91-3.01,1.54-1.11.7-2.16,1.57-3.09,2.56-1.46,1.5-2.77,3.44-3.34,5.85-.47,1.81-.37,3.69.03,5.72h0c.11.59.26,1.19.47,1.78-1.11-.11-2.41.54-1.19,4.88.91,3.16,1.74,4.05,2.37,4.1Z"/>
    <path class="cls-1" d="m48.61,41.76c-6.74-1.71-12.21-5.56-12.21-5.56l-4.27,13.52-.8,2.54v-.04s-.71,2.16-.71,2.16l-2.25-6.4c5.54-7.73-1.12-7.65-1.49-7.63-.37-.01-7.03-.09-1.49,7.63l-2.25,6.4-.7-2.16v.04s-.82-2.54-.82-2.54l-4.29-13.52s-5.47,3.85-12.21,5.56C.09,43.03-.15,48.84.05,51.7c0,0,.29,3.89.58,5.6,0,0,9.81,6.37,26.24,6.38,16.43,0,26.24-6.38,26.24-6.38.29-1.71.58-5.6.58-5.6.18-2.86-.05-8.66-5.08-9.94Z"/>
  </g>
  <g>
    <path class="cls-1" d="m44.24,67.98c-1.22,0-2.38-.48-3.24-1.34l-7.51-7.51c-.87-.87-1.34-2.02-1.34-3.24s.48-2.38,1.34-3.24c.87-.87,2.02-1.34,3.24-1.34s2.38.48,3.24,1.34l4.26,4.26,9.95-9.95c.87-.87,2.02-1.34,3.24-1.34s2.38.48,3.24,1.34c1.79,1.79,1.79,4.7,0,6.49l-13.19,13.19c-.87.87-2.02,1.34-3.24,1.34Z"/>
    <path class="cls-2" d="m57.43,47.61c.66,0,1.32.25,1.83.76,1.01,1.01,1.01,2.65,0,3.66l-13.19,13.19c-.49.49-1.14.76-1.83.76s-1.34-.27-1.83-.76l-7.51-7.51c-1.01-1.01-1.01-2.65,0-3.66.51-.51,1.17-.76,1.83-.76s1.32.25,1.83.76l5.68,5.68,11.36-11.36c.51-.51,1.17-.76,1.83-.76m0-4c-1.76,0-3.41.69-4.66,1.93l-8.54,8.54-2.85-2.85c-1.24-1.24-2.9-1.93-4.66-1.93s-3.41.69-4.66,1.93c-1.24,1.24-1.93,2.9-1.93,4.66s.69,3.41,1.93,4.66l7.51,7.51c1.24,1.24,2.9,1.93,4.66,1.93s3.41-.69,4.66-1.93l13.19-13.19c2.57-2.57,2.57-6.75,0-9.32-1.24-1.24-2.9-1.93-4.66-1.93h0Z"/>
  </g>
</svg>