<?xml version="1.0" encoding="UTF-8"?>
<svg id="_ëîé_7" data-name="‘ëîé_7" xmlns="http://www.w3.org/2000/svg" viewBox="0 0 58.15 54.52">
  <defs>
    <style>
      .cls-1 {
        fill: #004884;
        stroke-width: 0px;
      }
    </style>
  </defs>
  <path class="cls-1" d="m56.45,6.81h-1.7v35.78c0,2.82-2.29,5.11-5.11,5.11h-15.74c-.7,1.98-2.6,3.41-4.82,3.41s-4.12-1.42-4.82-3.41h-15.62c-2.87,0-5.22-2.35-5.22-5.22V6.81h-1.7c-.94,0-1.7.76-1.7,1.7v34.22c0,4.62,3.75,8.37,8.37,8.37h12.48c.7,1.98,2.6,3.41,4.82,3.41h6.81c2.22,0,4.12-1.42,4.82-3.41h12.7c4.5,0,8.15-3.65,8.15-8.15V8.52c0-.94-.76-1.7-1.7-1.7Z"/>
  <path class="cls-1" d="m27.37,43.05V3.97c-2.36-1.97-6.14-3.97-11.93-3.97-.94,0-1.7.76-1.7,1.7v34.07c0,.94.76,1.7,1.7,1.7,7.88,0,11.17,4.36,11.93,5.57Z"/>
  <path class="cls-1" d="m49.52,44.3c.94,0,1.7-.76,1.7-1.7V5.11c0-.94-.76-1.7-1.7-1.7h-13.63c-1.92,0-3.68.67-5.11,1.75v40.84c0-.94.76-1.7,1.7-1.7h17.04Z"/>
  <path class="cls-1" d="m8.63,3.41c-.94,0-1.7.76-1.7,1.7v37.48c0,.94.76,1.7,1.7,1.7h15.43c-.95-1.16-3.46-3.41-8.61-3.41-2.82,0-5.11-2.29-5.11-5.11V3.41h-1.7Z"/>
</svg>