<?xml version="1.0" encoding="UTF-8"?><svg id="_ëîé_7" xmlns="http://www.w3.org/2000/svg" width="57.64" height="57.49" viewBox="0 0 57.64 57.49"><defs><style>.cls-1{fill:#004884;fill-rule:evenodd;stroke-width:0px;}</style></defs><path class="cls-1" d="m40.1,22.62c-.56-.03-1.12-.03-1.67,0-1.93,7.75-7.98,13.8-15.73,15.73-.03.56-.03,1.12,0,1.67,0,9.65,7.82,17.47,17.47,17.47s17.47-7.82,17.47-17.47-7.82-17.47-17.47-17.47l-.07.07Zm5.56,20.15l-2.9,2.9-2.65-2.65-2.7,2.65-2.9-2.9,2.68-2.65-2.68-2.68,2.9-2.9,2.68,2.68,2.65-2.68,2.9,2.9-2.65,2.68,2.66,2.65Z"/><path class="cls-1" d="m17.46,0C7.81,0,0,7.83,0,17.48c0,9.65,7.83,17.47,17.48,17.46,9,0,16.52-6.84,17.38-15.8.03-.56.03-1.12,0-1.67C34.85,7.85,27.08.05,17.46,0h0Zm.52,21.86c-.39.39-.91.6-1.46.59-.54,0-1.06-.21-1.44-.59l-3.92-3.87,2.9-2.9,2.43,2.43,4.37-4.41,2.9,2.9-5.78,5.85Z"/></svg>