<?xml version="1.0" encoding="UTF-8"?>
<svg id="_ëîé_7" data-name="‘ëîé_7" xmlns="http://www.w3.org/2000/svg" viewBox="0 0 63.04 63.04">
  <defs>
    <style>
      .cls-1 {
        fill: #004884;
        stroke-width: 0px;
      }
    </style>
  </defs>
  <path class="cls-1" d="m55.41,10.47c0-3.73-3.04-6.77-6.77-6.77h-1.35v5.54c0,1.02-.83,1.85-1.85,1.85s-1.85-.83-1.85-1.85V3.69h-8.13v5.54c0,1.02-.83,1.85-1.85,1.85s-1.85-.83-1.85-1.85V3.69h-8.13v5.54c0,1.02-.83,1.85-1.85,1.85s-1.85-.83-1.85-1.85V3.69h-8.13v5.54c0,1.02-.83,1.85-1.85,1.85s-1.85-.83-1.85-1.85V3.69h-1.35C3.04,3.69,0,6.73,0,10.47v5.54h55.41v-5.54Z"/>
  <path class="cls-1" d="m11.82,1.85c0-1.02-.83-1.85-1.85-1.85s-1.85.83-1.85,1.85v1.85h3.69v-1.85Z"/>
  <path class="cls-1" d="m47.28,1.85c0-1.02-.83-1.85-1.85-1.85s-1.85.83-1.85,1.85v1.85h3.69v-1.85Z"/>
  <path class="cls-1" d="m35.46,1.85c0-1.02-.83-1.85-1.85-1.85s-1.85.83-1.85,1.85v1.85h3.69v-1.85Z"/>
  <path class="cls-1" d="m23.64,1.85c0-1.02-.83-1.85-1.85-1.85s-1.85.83-1.85,1.85v1.85h3.69v-1.85Z"/>
  <path class="cls-1" d="m49.5,32.26c2.08,0,4.07.37,5.91,1.04v-13.6H0v27.71c0,3.06,2.49,5.54,5.54,5.54h27.07c-.23-1.11-.35-2.27-.35-3.45,0-9.51,7.73-17.24,17.24-17.24Zm-6.9-6.1h3.08c1.02,0,1.85.83,1.85,1.85s-.83,1.85-1.85,1.85h-3.08c-1.02,0-1.85-.83-1.85-1.85s.83-1.85,1.85-1.85Zm-10.96,0h3.08c1.02,0,1.85.83,1.85,1.85s-.83,1.85-1.85,1.85h-3.08c-1.02,0-1.85-.83-1.85-1.85s.83-1.85,1.85-1.85Zm-18.84,20.32h-3.08c-1.02,0-1.85-.83-1.85-1.85s.83-1.85,1.85-1.85h3.08c1.02,0,1.85.83,1.85,1.85s-.83,1.85-1.85,1.85Zm0-8.31h-3.08c-1.02,0-1.85-.83-1.85-1.85s.83-1.85,1.85-1.85h3.08c1.02,0,1.85.83,1.85,1.85s-.83,1.85-1.85,1.85Zm10.96,8.31h-3.08c-1.02,0-1.85-.83-1.85-1.85s.83-1.85,1.85-1.85h3.08c1.02,0,1.85.83,1.85,1.85s-.83,1.85-1.85,1.85Zm0-8.31h-3.08c-1.02,0-1.85-.83-1.85-1.85s.83-1.85,1.85-1.85h3.08c1.02,0,1.85.83,1.85,1.85s-.83,1.85-1.85,1.85Zm0-8.31h-3.08c-1.02,0-1.85-.83-1.85-1.85s.83-1.85,1.85-1.85h3.08c1.02,0,1.85.83,1.85,1.85s-.83,1.85-1.85,1.85Zm6.03,6.46c0-1.02.83-1.85,1.85-1.85h3.08c1.02,0,1.85.83,1.85,1.85s-.83,1.85-1.85,1.85h-3.08c-1.02,0-1.85-.83-1.85-1.85Z"/>
  <path class="cls-1" d="m49.5,35.96c-7.47,0-13.54,6.08-13.54,13.54s6.08,13.54,13.54,13.54,13.54-6.08,13.54-13.54-6.08-13.54-13.54-13.54Zm6.16,15.39h-6.16c-1.02,0-1.85-.83-1.85-1.85v-6.16c0-1.02.83-1.85,1.85-1.85s1.85.83,1.85,1.85v4.31h4.31c1.02,0,1.85.83,1.85,1.85s-.83,1.85-1.85,1.85Z"/>
</svg>