<?xml version="1.0" encoding="UTF-8"?>
<svg id="_ëîé_7" data-name="‘ëîé_7" xmlns="http://www.w3.org/2000/svg" viewBox="0 0 54.41 48.97">
  <defs>
    <style>
      .cls-1, .cls-2 {
        fill: #004884;
        stroke-width: 0px;
      }

      .cls-2 {
        fill-rule: evenodd;
      }
    </style>
  </defs>
  <path class="cls-2" d="m0,8.16C0,3.65,3.65,0,8.16,0h27.21C36.87,0,38.09,1.22,38.09,2.72v33.33h-.09c-.3,1.17-1.37,2.04-2.63,2.04v5.44c1.5,0,2.72,1.22,2.72,2.72s-1.22,2.72-2.72,2.72H8.16c-4.51,0-8.16-3.65-8.16-8.16V8.16Zm29.93,29.93H8.16c-1.5,0-2.72,1.22-2.72,2.72s1.22,2.72,2.72,2.72h21.77v-5.44ZM10.88,8.16c-1.5,0-2.72,1.22-2.72,2.72v10.88c0,1.5,1.22,2.72,2.72,2.72h16.32c1.5,0,2.72-1.22,2.72-2.72v-10.88c0-1.5-1.22-2.72-2.72-2.72H10.88Z"/>
  <path class="cls-1" d="m46.25,0C44.4,0,42.98,1.05,42.12,2.24c-.86,1.2-1.31,2.71-1.31,4.26v32.17c0,.45.11.89.33,1.29l4.08,7.57c.47.88,1.39,1.43,2.4,1.43s1.92-.55,2.4-1.43l4.08-7.57c.21-.4.33-.84.33-1.29V6.51c0-1.55-.45-3.07-1.31-4.26-.86-1.19-2.28-2.24-4.13-2.24h-2.72Z"/>
</svg>