<?xml version="1.0" encoding="UTF-8"?>
<svg id="_ëîé_7" data-name="‘ëîé_7" xmlns="http://www.w3.org/2000/svg" viewBox="0 0 47.33 51.82">
  <defs>
    <style>
      .cls-1 {
        fill: #004884;
        stroke-width: 0px;
      }
    </style>
  </defs>
  <path class="cls-1" d="m22.53,51.82c4.08,0,7.49-2.91,8.28-6.76H14.25c.78,3.85,4.2,6.76,8.28,6.76Z"/>
  <path class="cls-1" d="m38.3,22.53c-8.69,0-13.8-4.39-13.8-13.08,0-1.42.39-2.98,1.03-4.41.57-1.3-.35-2.76-1.76-2.77-.59,0-1.07,0-1.24,0-8.71,0-15.77,7.06-15.77,15.77v6.28c0,4.46-1.95,8.67-5.38,11.56-1.24,1.06-1.73,2.81-1.11,4.45s2.22,2.49,3.9,2.49h36.69c1.9,0,3.7-1.22,4.11-3.08.32-1.47-.2-2.94-1.34-3.9-3.28-2.75-5.17-8.38-5.3-12.65"/>
  <circle class="cls-1" cx="37.85" cy="9.48" r="9.48"/>
</svg>