<?xml version="1.0" encoding="utf-8"?>
<!-- Generator: Adobe Illustrator 28.0.0, SVG Export Plug-In . SVG Version: 6.00 Build 0)  -->
<svg version="1.1" id="Layer_1" xmlns="http://www.w3.org/2000/svg" xmlns:xlink="http://www.w3.org/1999/xlink" x="0px" y="0px"
	 viewBox="0 0 1068 440" style="enable-background:new 0 0 1068 440;" xml:space="preserve">
<style type="text/css">
	.st0{clip-path:url(#SVGID_00000167355236324154907950000012082753306404193688_);}
	.st1{fill:none;stroke:#FFFFFF;stroke-miterlimit:10;stroke-opacity:0.2;}
	.st2{fill:none;stroke:#FFFFFF;stroke-miterlimit:10;stroke-opacity:0.2;stroke-dasharray:4,4;}
	.st3{fill:none;stroke:#FFFFFF;stroke-miterlimit:10;stroke-opacity:0.2;stroke-dasharray:4.03,4.03;}
	.st4{fill:none;stroke:#FFFFFF;stroke-miterlimit:10;stroke-opacity:0.2;stroke-dasharray:4.04,4.04;}
	.st5{fill:none;stroke:#FFFFFF;stroke-miterlimit:10;stroke-opacity:0.2;stroke-dasharray:3.99,3.99;}
</style>
<g>
	<defs>
		<rect id="SVGID_1_" y="0" width="1068" height="440"/>
	</defs>
	<clipPath id="SVGID_00000078016519697018488000000004784452117681480379_">
		<use xlink:href="#SVGID_1_"  style="overflow:visible;"/>
	</clipPath>
	<g style="clip-path:url(#SVGID_00000078016519697018488000000004784452117681480379_);">
		<path class="st1" d="M688.3,2c0.3-0.6,0.6-1.2,0.8-1.8"/>
		<path class="st2" d="M1064.1,379.2c-35.7,16.1-75.2,25-116.9,25c-157.2,0-284.6-127.2-284.6-284.2c0-40.7,8.6-79.4,24-114.4"/>
		<path class="st1" d="M1067.8,377.6c-0.6,0.3-1.2,0.6-1.8,0.8"/>
		<path class="st1" d="M455.5,2.1c0.2-0.6,0.3-1.3,0.5-1.9"/>
		<path class="st3" d="M553.3,436.6C483.4,350,441.6,239.9,441.6,120.1c0-39.2,4.5-77.4,12.9-114"/>
		<path class="st1" d="M555.8,439.7c-0.4-0.5-0.8-1-1.3-1.5"/>
		<path class="st1" d="M233.1,2.2c0.1-0.7,0.2-1.3,0.3-2"/>
		<path class="st4" d="M296.2,436.1c-46.6-95.5-72.7-202.7-72.7-316c0-38.8,3.1-76.8,8.9-113.9"/>
		<path class="st1" d="M298,439.7c-0.3-0.6-0.6-1.2-0.9-1.8"/>
		<path class="st1" d="M7.8,2.2c0.1-0.7,0.2-1.3,0.2-2"/>
		<path class="st5" d="M54.6,435.9C19.6,337.2,0.5,230.8,0.5,120.1c0-38.6,2.3-76.6,6.8-113.9"/>
		<path class="st1" d="M56,439.7c-0.2-0.6-0.5-1.2-0.7-1.9"/>
	</g>
</g>
</svg>
