<?xml version="1.0" encoding="utf-8"?>
<!-- Generator: Adobe Illustrator 28.0.0, SVG Export Plug-In . SVG Version: 6.00 Build 0)  -->
<svg version="1.1" id="Layer_1" xmlns="http://www.w3.org/2000/svg" xmlns:xlink="http://www.w3.org/1999/xlink" x="0px" y="0px"
	 viewBox="0 0 23 20" style="enable-background:new 0 0 23 20;" xml:space="preserve">
<style type="text/css">
	.st0{fill-rule:evenodd;clip-rule:evenodd;fill:#FFFFFF;}
</style>
<path class="st0" d="M22.3,5.4c0-3-2.4-5.4-5.4-5.4H5.4C2.4,0,0,2.4,0,5.4v9.1c0,3,2.4,5.4,5.4,5.4h11.4c3,0,5.4-2.4,5.4-5.4
	L22.3,5.4L22.3,5.4z M20.1,5.6c0-2-1.6-3.5-3.5-3.5H5.7c-2,0-3.5,1.6-3.5,3.5v8.6c0,2,1.6,3.5,3.5,3.5h10.8c1.9,0,3.5-1.6,3.5-3.5
	L20.1,5.6L20.1,5.6z"/>
<path class="st0" d="M4.3,6.4c0,0,2.5,2,4.4,3.6c1.5,1.2,3.6,1.2,5.1,0c1.8-1.6,4.3-3.6,4.3-3.6c0.2-0.3,0.3-0.7,0-1.1
	C17.8,5,17.4,5,17,5.2c0,0-2.5,2-4.3,3.6c-0.8,0.7-2.1,0.7-3,0C7.8,7.3,5.2,5.2,5.2,5.2C4.9,4.9,4.4,5,4.1,5.2
	C3.8,5.6,3.9,6.2,4.3,6.4z"/>
</svg>
