<svg xmlns="http://www.w3.org/2000/svg" version="1.1" xmlns:xlink="http://www.w3.org/1999/xlink" width="512" height="512" x="0" y="0" viewBox="0 0 512 512" style="enable-background:new 0 0 512 512" xml:space="preserve" class=""><g><path d="M255.996 507.95h-.101c-39.946-.016-79.551-9.446-115.043-27.337L31.445 505.5c-6.675 1.516-13.668-.488-18.527-5.313s-6.91-11.8-5.441-18.488l23.707-107.758C10.816 336.328.063 295.133.004 254.285c-.004-.14-.004-.281-.004-.418.027-67.691 26.797-131.441 75.371-179.504C123.836 26.41 187.981 0 255.992 0 324.156.027 388.2 26.46 436.344 74.426c48.812 48.633 75.68 112.433 75.656 179.644-.02 50.793-15.25 99.883-44.043 141.957-6.238 9.118-18.684 11.45-27.8 5.211-9.114-6.238-11.45-18.683-5.212-27.8 24.223-35.399 37.035-76.68 37.055-119.383.02-56.496-22.668-110.227-63.887-151.293C367.516 62.312 313.488 40.023 255.984 40 137.066 40 40.25 135.742 40 253.508c0 .129.004.254.004.379-.016 36.453 10.238 73.414 29.648 106.886a19.987 19.987 0 0 1 2.23 14.332L53.317 459.5l85.84-19.527a20.04 20.04 0 0 1 13.98 1.925c31.364 17.028 66.9 26.036 102.766 26.051h.09a216.39 216.39 0 0 0 110.77-30.496c9.484-5.66 21.761-2.555 27.418 6.934s2.554 21.761-6.934 27.422a256.405 256.405 0 0 1-131.254 36.14zm-56.484-355.731c-4.387-9.719-9.004-10.051-13.176-10.219h-11.223c-3.906 0-10.25 1.46-15.613 7.3-5.367 5.84-20.496 19.958-20.496 48.673s20.984 56.464 23.91 60.363c2.93 3.89 40.512 64.7 100.027 88.094 49.465 19.441 59.532 15.574 70.266 14.597 10.738-.968 34.648-14.113 39.523-27.742 4.883-13.625 4.883-25.305 3.418-27.746-1.46-2.43-5.367-3.89-11.222-6.809-5.86-2.918-34.559-17.28-39.926-19.226-5.367-1.945-9.27-2.918-13.176 2.926-3.906 5.836-15.406 19.332-18.824 23.222-3.414 3.903-6.832 4.387-12.688 1.47-5.855-2.93-24.523-9.2-46.894-29.079-17.41-15.473-29.488-35.2-32.906-41.043-3.418-5.836-.367-9 2.57-11.91 2.629-2.613 6.188-6.188 9.117-9.594 2.922-3.406 3.758-5.84 5.707-9.734 1.953-3.895.977-7.301-.484-10.223-1.465-2.918-12.707-31.781-17.914-43.32" fill="#ffffff" opacity="1" data-original="#000000" class=""></path></g></svg>