<svg version="1.1" id="Layer_1" xmlns="http://www.w3.org/2000/svg" xmlns:xlink="http://www.w3.org/1999/xlink" x="0px" y="0px"
	 width="100%" viewBox="0 0 551 202" enable-background="new 0 0 551 202" xml:space="preserve">
<path fill="#FEFEFF" opacity="1.000000" stroke="none" 
	d="
M346.000000,203.000000 
	C230.666672,203.000000 115.833336,203.000000 1.000000,203.000000 
	C1.000000,135.666672 1.000000,68.333336 1.000000,1.000000 
	C184.666672,1.000000 368.333344,1.000000 552.000000,1.000000 
	C552.000000,68.333336 552.000000,135.666672 552.000000,203.000000 
	C483.500000,203.000000 415.000000,203.000000 346.000000,203.000000 
M539.023865,122.023491 
	C539.023865,122.023491 539.051636,122.104347 539.641602,122.089294 
	C539.814270,121.758926 539.986938,121.428558 540.075806,121.070892 
	C540.075806,121.070892 540.080139,121.158897 540.693115,121.081673 
	C540.907043,120.740707 541.120972,120.399750 541.846191,119.681107 
	C543.264343,118.346970 544.682434,117.012833 546.302856,115.488388 
	C541.375183,110.625221 536.872253,105.948532 532.122742,101.537354 
	C517.755127,88.193336 496.223022,84.551659 479.426270,94.539757 
	C470.223511,100.012138 462.911163,108.663612 454.104218,116.095528 
	C442.637543,124.845428 431.628693,124.199745 421.467224,114.162636 
	C417.673004,110.414879 413.943115,106.601479 410.123199,102.880318 
	C400.306854,93.317818 388.527344,88.742867 374.827789,89.170250 
	C355.393646,89.776550 343.293915,102.339714 331.373505,115.689400 
	C332.511719,116.931465 333.472839,118.063194 334.519135,119.109741 
	C356.082306,140.678482 377.608459,162.284546 399.239044,183.785568 
	C421.616638,206.029083 455.771576,205.987762 478.157501,183.749405 
	C497.074036,164.957535 515.940125,146.114777 534.794617,127.260681 
	C536.045837,126.009529 537.009644,124.471085 538.068604,123.034775 
	C538.068604,123.034775 538.042664,123.076797 538.641174,123.075890 
	C538.794739,122.736748 538.948303,122.397614 539.023865,122.023491 
M277.567505,138.698639 
	C297.338043,137.827774 308.334076,118.637032 300.035797,99.486099 
	C295.468536,88.945686 285.216949,82.850182 274.465118,84.282005 
	C262.781219,85.837952 254.068146,94.592422 252.621231,106.297714 
	C252.315125,108.773987 252.378143,111.305084 251.951797,113.755356 
	C251.082245,118.753029 248.645889,120.867607 243.716263,120.206871 
	C239.247925,119.607964 234.884094,118.229248 231.542938,117.445152 
	C234.722870,109.926994 238.366089,103.372887 240.237015,96.346848 
	C242.372482,88.327507 238.637329,83.422302 230.493179,82.065643 
	C214.167191,79.346046 198.105225,82.379951 181.490784,84.291565 
	C183.034470,89.509186 184.170547,94.196335 185.872910,98.667908 
	C186.514908,100.354233 188.270981,101.832787 189.858170,102.903572 
	C195.281998,106.562752 200.856476,109.998611 206.373489,113.519669 
	C206.213074,114.294884 206.052673,115.070107 205.892258,115.845322 
	C197.629593,117.382828 189.412659,119.351448 181.080673,120.235710 
	C177.953140,120.567635 174.348297,118.784843 171.345322,117.225952 
	C168.440109,115.717804 167.832642,113.327415 169.376007,109.727066 
	C171.297012,105.245796 172.607010,100.214890 172.834229,95.358337 
	C173.240295,86.678413 167.541275,82.302269 159.579346,85.398865 
	C154.958328,87.196098 150.619385,90.532036 147.065552,94.087242 
	C140.071747,101.083794 136.594818,110.105293 134.814514,119.645370 
	C123.461617,121.411766 120.467018,119.162483 119.105721,108.093704 
	C118.719673,104.954697 118.454475,101.792244 117.886948,98.685646 
	C115.812317,87.329239 108.430534,78.746826 99.102707,76.936714 
	C95.378357,82.454063 91.595863,88.057533 87.605797,93.968529 
	C89.346321,94.916435 90.730362,95.464333 91.874710,96.329330 
	C96.631317,99.924774 101.783051,103.159019 105.911926,107.383751 
	C111.466866,113.067673 109.562820,118.409882 101.693863,119.702362 
	C96.108879,120.619698 90.220200,121.551277 85.087440,117.179459 
	C83.452377,121.168404 78.712326,123.365952 80.771843,128.513779 
	C82.498260,132.829010 85.691757,135.191742 89.994843,136.055984 
	C99.235138,137.911835 108.178497,137.916916 115.594810,130.431885 
	C120.155891,137.959808 127.599083,136.896301 134.343399,137.076996 
	C137.291321,151.583496 142.937943,157.252808 154.029312,157.205231 
	C165.083435,157.157837 170.711227,151.373199 173.709229,136.809174 
	C188.745590,137.919434 202.556808,133.721390 215.814346,126.892883 
	C217.120178,126.220306 219.820679,127.031525 221.260315,128.034576 
	C233.758301,136.742554 246.686279,140.910553 259.457916,133.529541 
	C266.098572,135.517822 271.407501,137.107346 277.567505,138.698639 
M432.923218,85.921875 
	C439.322693,87.944397 445.429474,87.032242 450.186066,82.438286 
	C461.676147,71.341011 472.799194,59.863724 483.678650,48.933056 
	C468.472900,33.674122 453.353058,18.501392 438.687469,3.784505 
	C423.823944,18.638357 408.675293,33.777172 392.986359,49.455948 
	C393.849701,50.114365 395.165009,50.906929 396.223969,51.957840 
	C406.274170,61.931381 416.233490,71.997169 426.348358,81.904274 
	C427.966461,83.489189 430.225128,84.420174 432.923218,85.921875 
M41.906731,110.513466 
	C48.028313,109.344765 54.155514,108.204285 60.267475,106.987289 
	C61.770252,106.688049 64.143677,106.548660 64.548660,105.638229 
	C67.022232,100.077431 69.043823,94.315582 71.527733,87.803772 
	C58.653328,88.768356 47.023556,90.716370 38.082634,99.481537 
	C35.036640,102.467659 32.689560,106.818703 31.545422,110.966042 
	C28.553886,121.809929 33.249516,129.162521 44.067070,131.983521 
	C46.482342,132.613373 48.998901,132.925308 51.336285,133.756378 
	C52.695618,134.239716 53.791428,135.464188 55.005814,136.355179 
	C53.756538,137.317368 52.526222,139.082092 51.254929,139.112122 
	C42.689117,139.314468 34.112267,139.237442 25.545374,139.010162 
	C24.211983,138.974792 22.790833,137.869568 21.617105,136.984711 
	C17.495489,133.877502 17.062504,129.782501 20.327581,125.737656 
	C21.144735,124.725349 22.053324,123.786850 22.953783,122.776390 
	C21.395668,120.389656 19.966305,118.200142 18.511379,115.971474 
	C9.723861,120.775902 5.026310,127.626877 5.507496,137.552612 
	C5.978745,147.273392 10.543184,154.545151 19.458826,158.292633 
	C23.949390,160.180130 29.074923,161.217300 33.958241,161.393372 
	C52.951668,162.078201 64.715446,151.918594 66.651291,133.782578 
	C67.766823,123.331703 63.206848,117.170044 52.890633,115.428955 
	C49.943001,114.931488 46.914776,114.930122 43.945187,114.537361 
	C42.074982,114.290001 40.055431,113.880234 41.906731,110.513466 
M51.448677,176.735367 
	C54.109039,172.780823 53.573986,169.167313 49.988644,166.177979 
	C46.617569,163.367294 43.316986,164.052200 38.605392,168.190781 
	C33.730988,163.875351 29.848227,163.397263 26.493204,166.699371 
	C23.603857,169.543152 23.410624,173.989044 26.043028,177.056732 
	C29.318914,180.874298 33.179359,180.600510 38.843410,176.148926 
	C43.932945,180.734924 45.671131,180.901184 51.448677,176.735367 
z"/>
<path fill="#28AAE1" opacity="1.000000" stroke="none" 
	d="
M538.107178,123.066292 
	C537.009644,124.471085 536.045837,126.009529 534.794617,127.260681 
	C515.940125,146.114777 497.074036,164.957535 478.157501,183.749405 
	C455.771576,205.987762 421.616638,206.029083 399.239044,183.785568 
	C377.608459,162.284546 356.082306,140.678482 334.519135,119.109741 
	C333.472839,118.063194 332.511719,116.931465 331.373505,115.689400 
	C343.293915,102.339714 355.393646,89.776550 374.827789,89.170250 
	C388.527344,88.742867 400.306854,93.317818 410.123199,102.880318 
	C413.943115,106.601479 417.673004,110.414879 421.467224,114.162636 
	C431.628693,124.199745 442.637543,124.845428 454.729065,116.161148 
	C460.152435,120.564751 464.787506,125.101608 469.778656,129.205353 
	C488.657257,144.727402 510.402924,144.603989 529.293518,129.159180 
	C532.049561,126.905830 535.160461,125.086456 538.107178,123.066292 
z"/>
<path fill="#05369A" opacity="1.000000" stroke="none" 
	d="
M277.141968,138.697754 
	C271.407501,137.107346 266.098572,135.517822 259.457916,133.529541 
	C246.686279,140.910553 233.758301,136.742554 221.260315,128.034576 
	C219.820679,127.031525 217.120178,126.220306 215.814346,126.892883 
	C202.556808,133.721390 188.745590,137.919434 173.709229,136.809174 
	C170.711227,151.373199 165.083435,157.157837 154.029312,157.205231 
	C142.937943,157.252808 137.291321,151.583496 134.343399,137.076996 
	C127.599083,136.896301 120.155891,137.959808 115.594810,130.431885 
	C108.178497,137.916916 99.235138,137.911835 89.994843,136.055984 
	C85.691757,135.191742 82.498260,132.829010 80.771843,128.513779 
	C78.712326,123.365952 83.452377,121.168404 85.087440,117.179459 
	C90.220200,121.551277 96.108879,120.619698 101.693863,119.702362 
	C109.562820,118.409882 111.466866,113.067673 105.911926,107.383751 
	C101.783051,103.159019 96.631317,99.924774 91.874710,96.329330 
	C90.730362,95.464333 89.346321,94.916435 87.605797,93.968529 
	C91.595863,88.057533 95.378357,82.454063 99.102707,76.936714 
	C108.430534,78.746826 115.812317,87.329239 117.886948,98.685646 
	C118.454475,101.792244 118.719673,104.954697 119.105721,108.093704 
	C120.467018,119.162483 123.461617,121.411766 134.814514,119.645370 
	C136.594818,110.105293 140.071747,101.083794 147.065552,94.087242 
	C150.619385,90.532036 154.958328,87.196098 159.579346,85.398865 
	C167.541275,82.302269 173.240295,86.678413 172.834229,95.358337 
	C172.607010,100.214890 171.297012,105.245796 169.376007,109.727066 
	C167.832642,113.327415 168.440109,115.717804 171.345322,117.225952 
	C174.348297,118.784843 177.953140,120.567635 181.080673,120.235710 
	C189.412659,119.351448 197.629593,117.382828 205.892258,115.845322 
	C206.052673,115.070107 206.213074,114.294884 206.373489,113.519669 
	C200.856476,109.998611 195.281998,106.562752 189.858170,102.903572 
	C188.270981,101.832787 186.514908,100.354233 185.872910,98.667908 
	C184.170547,94.196335 183.034470,89.509186 181.490784,84.291565 
	C198.105225,82.379951 214.167191,79.346046 230.493179,82.065643 
	C238.637329,83.422302 242.372482,88.327507 240.237015,96.346848 
	C238.366089,103.372887 234.722870,109.926994 231.542938,117.445152 
	C234.884094,118.229248 239.247925,119.607964 243.716263,120.206871 
	C248.645889,120.867607 251.082245,118.753029 251.951797,113.755356 
	C252.378143,111.305084 252.315125,108.773987 252.621231,106.297714 
	C254.068146,94.592422 262.781219,85.837952 274.465118,84.282005 
	C285.216949,82.850182 295.468536,88.945686 300.035797,99.486099 
	C308.334076,118.637032 297.338043,137.827774 277.141968,138.697754 
M272.666016,102.938873 
	C268.316742,103.707069 264.818970,106.046761 264.990997,110.561058 
	C265.099945,113.420258 266.778015,117.319321 269.015198,118.688393 
	C271.250946,120.056595 275.816986,119.953873 277.966705,118.472244 
	C280.141388,116.973404 281.710175,112.936836 281.563232,110.115059 
	C281.340302,105.832855 278.043945,103.227051 272.666016,102.938873 
M154.532394,128.179871 
	C154.018219,128.594727 153.565094,129.153366 152.980209,129.401611 
	C148.412857,131.340225 149.416336,134.791656 150.803955,138.067337 
	C152.475586,142.013412 155.952591,143.231720 159.807007,142.277802 
	C163.918579,141.260239 164.231720,137.926208 163.490005,134.333542 
	C162.662628,130.325974 161.895432,126.306007 161.073959,122.149361 
	C159.170853,123.926437 157.137741,125.824913 154.532394,128.179871 
M220.724274,97.620270 
	C216.478104,97.620270 212.231949,97.620270 207.985779,97.620270 
	C207.848053,98.035835 207.710327,98.451401 207.572601,98.866959 
	C210.743881,101.849777 213.915176,104.832588 218.363953,109.016983 
	C219.487396,104.571777 220.285156,101.415207 220.724274,97.620270 
M157.941696,104.194527 
	C151.955414,103.923988 148.286942,109.262558 149.321976,117.406937 
	C151.867661,115.818985 154.470047,114.635315 156.500000,112.813744 
	C158.828827,110.723984 161.148926,108.188576 157.941696,104.194527 
z"/>
<path fill="#28AAE1" opacity="1.000000" stroke="none" 
	d="
M432.555420,85.787674 
	C430.225128,84.420174 427.966461,83.489189 426.348358,81.904274 
	C416.233490,71.997169 406.274170,61.931381 396.223969,51.957840 
	C395.165009,50.906929 393.849701,50.114365 392.986359,49.455948 
	C408.675293,33.777172 423.823944,18.638357 438.687469,3.784505 
	C453.353058,18.501392 468.472900,33.674122 483.678650,48.933056 
	C472.799194,59.863724 461.676147,71.341011 450.186066,82.438286 
	C445.429474,87.032242 439.322693,87.944397 432.555420,85.787674 
z"/>
<path fill="#01349A" opacity="1.000000" stroke="none" 
	d="
M538.087891,123.050537 
	C535.160461,125.086456 532.049561,126.905830 529.293518,129.159180 
	C510.402924,144.603989 488.657257,144.727402 469.778656,129.205353 
	C464.787506,125.101608 460.152435,120.564751 455.050140,116.054169 
	C462.911163,108.663612 470.223511,100.012138 479.426270,94.539757 
	C496.223022,84.551659 517.755127,88.193336 532.122742,101.537354 
	C536.872253,105.948532 541.375183,110.625221 546.302856,115.488388 
	C544.682434,117.012833 543.264343,118.346970 541.283691,119.925369 
	C540.507507,120.499382 540.293823,120.829140 540.080139,121.158890 
	C540.080139,121.158897 540.075806,121.070892 539.828308,121.111099 
	C539.404419,121.468994 539.228027,121.786674 539.051636,122.104355 
	C539.051636,122.104347 539.023865,122.023491 538.770752,122.062119 
	C538.359375,122.426094 538.200989,122.751434 538.042603,123.076790 
	C538.042664,123.076797 538.068604,123.034775 538.087891,123.050537 
z"/>
<path fill="#05369A" opacity="1.000000" stroke="none" 
	d="
M41.628059,110.811920 
	C40.055431,113.880234 42.074982,114.290001 43.945187,114.537361 
	C46.914776,114.930122 49.943001,114.931488 52.890633,115.428955 
	C63.206848,117.170044 67.766823,123.331703 66.651291,133.782578 
	C64.715446,151.918594 52.951668,162.078201 33.958241,161.393372 
	C29.074923,161.217300 23.949390,160.180130 19.458826,158.292633 
	C10.543184,154.545151 5.978745,147.273392 5.507496,137.552612 
	C5.026310,127.626877 9.723861,120.775902 18.511379,115.971474 
	C19.966305,118.200142 21.395668,120.389656 22.953783,122.776390 
	C22.053324,123.786850 21.144735,124.725349 20.327581,125.737656 
	C17.062504,129.782501 17.495489,133.877502 21.617105,136.984711 
	C22.790833,137.869568 24.211983,138.974792 25.545374,139.010162 
	C34.112267,139.237442 42.689117,139.314468 51.254929,139.112122 
	C52.526222,139.082092 53.756538,137.317368 55.005814,136.355179 
	C53.791428,135.464188 52.695618,134.239716 51.336285,133.756378 
	C48.998901,132.925308 46.482342,132.613373 44.067070,131.983521 
	C33.249516,129.162521 28.553886,121.809929 31.545422,110.966042 
	C32.689560,106.818703 35.036640,102.467659 38.082634,99.481537 
	C47.023556,90.716370 58.653328,88.768356 71.527733,87.803772 
	C69.043823,94.315582 67.022232,100.077431 64.548660,105.638229 
	C64.143677,106.548660 61.770252,106.688049 60.267475,106.987289 
	C54.155514,108.204285 48.028313,109.344765 41.628059,110.811920 
z"/>
<path fill="#08379B" opacity="1.000000" stroke="none" 
	d="
M51.187271,177.020020 
	C45.671131,180.901184 43.932945,180.734924 38.843410,176.148926 
	C33.179359,180.600510 29.318914,180.874298 26.043028,177.056732 
	C23.410624,173.989044 23.603857,169.543152 26.493204,166.699371 
	C29.848227,163.397263 33.730988,163.875351 38.605392,168.190781 
	C43.316986,164.052200 46.617569,163.367294 49.988644,166.177979 
	C53.573986,169.167313 54.109039,172.780823 51.187271,177.020020 
z"/>
<path fill="#28AAE1" opacity="1.000000" stroke="none" 
	d="
M540.386597,121.120285 
	C540.293823,120.829140 540.507507,120.499382 541.028076,120.114204 
	C541.120972,120.399750 540.907043,120.740707 540.386597,121.120285 
z"/>
<path fill="#28AAE1" opacity="1.000000" stroke="none" 
	d="
M539.346619,122.096832 
	C539.228027,121.786674 539.404419,121.468994 539.870178,121.124756 
	C539.986938,121.428558 539.814270,121.758926 539.346619,122.096832 
z"/>
<path fill="#28AAE1" opacity="1.000000" stroke="none" 
	d="
M538.341919,123.076340 
	C538.200989,122.751434 538.359375,122.426094 538.809814,122.079613 
	C538.948303,122.397614 538.794739,122.736748 538.341919,123.076340 
z"/>
<path fill="#F8FAFC" opacity="1.000000" stroke="none" 
	d="
M273.063568,102.934891 
	C278.043945,103.227051 281.340302,105.832855 281.563232,110.115059 
	C281.710175,112.936836 280.141388,116.973404 277.966705,118.472244 
	C275.816986,119.953873 271.250946,120.056595 269.015198,118.688393 
	C266.778015,117.319321 265.099945,113.420258 264.990997,110.561058 
	C264.818970,106.046761 268.316742,103.707069 273.063568,102.934891 
z"/>
<path fill="#F3F5FA" opacity="1.000000" stroke="none" 
	d="
M154.818512,127.951630 
	C157.137741,125.824913 159.170853,123.926437 161.073959,122.149361 
	C161.895432,126.306007 162.662628,130.325974 163.490005,134.333542 
	C164.231720,137.926208 163.918579,141.260239 159.807007,142.277802 
	C155.952591,143.231720 152.475586,142.013412 150.803955,138.067337 
	C149.416336,134.791656 148.412857,131.340225 152.980209,129.401611 
	C153.565094,129.153366 154.018219,128.594727 154.818512,127.951630 
z"/>
<path fill="#ECF0F7" opacity="1.000000" stroke="none" 
	d="
M220.903595,97.939453 
	C220.285156,101.415207 219.487396,104.571777 218.363953,109.016983 
	C213.915176,104.832588 210.743881,101.849777 207.572601,98.866959 
	C207.710327,98.451401 207.848053,98.035835 207.985779,97.620270 
	C212.231949,97.620270 216.478104,97.620270 220.903595,97.939453 
z"/>
<path fill="#EFF2F9" opacity="1.000000" stroke="none" 
	d="
M158.242905,104.428215 
	C161.148926,108.188576 158.828827,110.723984 156.500000,112.813744 
	C154.470047,114.635315 151.867661,115.818985 149.321976,117.406937 
	C148.286942,109.262558 151.955414,103.923988 158.242905,104.428215 
z"/>
</svg>