<?xml version="1.0" encoding="utf-8"?>
<!-- Generator: Adobe Illustrator 28.0.0, SVG Export Plug-In . SVG Version: 6.00 Build 0)  -->
<svg version="1.1" id="Layer_1" xmlns="http://www.w3.org/2000/svg" xmlns:xlink="http://www.w3.org/1999/xlink" x="0px" y="0px"
	 viewBox="0 0 550.6 201.9" style="enable-background:new 0 0 550.6 201.9;" xml:space="preserve">
<style type="text/css">
	.st0{fill:#003399;}
	.st1{fill:#27AAE1;}
</style>
<path class="st0" d="M544.9,114.6L525.7,130c-13.8,11.1-33.1,13-48.5,4.2c-0.5-0.3-1-0.6-1.5-0.9c-6.7-4.1-13-9.3-18.4-14.6
	c-0.1-0.1-0.2-0.2-0.2-0.2l-3.9-3.9l12.9-12.9c18.2-18.2,47.8-18.2,66,0L544.9,114.6z"/>
<g>
	<path class="st0" d="M20.9,170.6c-4,0-7.4,3.3-7.4,7.3s3.6,7.7,7.4,7.7c1.7,0,4-1,5.3-2.4c1.3-1.3,2.1-3.3,2.1-5.3s-0.9-4-2.1-5.3
		C24.8,171.2,22.6,170.6,20.9,170.6L20.9,170.6z"/>
	<path class="st0" d="M38.5,170.6c-4,0-7.4,3.3-7.4,7.3s3.6,7.7,7.4,7.7c1.7,0,4-1,5.3-2.4c1.3-1.3,2.1-3.3,2.1-5.3s-0.9-4-2.1-5.3
		C42.5,171.2,40.2,170.6,38.5,170.6L38.5,170.6z"/>
	<path class="st0" d="M60.4,83.3c1.7,0,4-1,5.3-2.4c1.3-1.3,2.1-3.3,2.1-5.3s-0.9-4-2.1-5.3c-1.3-1.4-3.6-2-5.3-2
		c-4,0-7.4,3.3-7.4,7.3S56.6,83.3,60.4,83.3L60.4,83.3z"/>
	<path class="st0" d="M78.1,83.3c1.7,0,4-1,5.3-2.4c1.3-1.3,2.1-3.3,2.1-5.3s-0.9-4-2.1-5.3c-1.3-1.4-3.6-2-5.3-2
		c-4,0-7.4,3.3-7.4,7.3S74.3,83.3,78.1,83.3L78.1,83.3z"/>
	<path class="st0" d="M165.3,115.1c0.3-1.3,0.4-2.6,0.4-4c0.1-1.4-0.4-3.3-0.7-5c-0.7-3.6-0.7-7.6-2.1-10.8l-8.3,1.6l-5.4,1.4
		c0.9,2.9,1.3,5.4,1.7,8.1c0.1,0.4,0.1,1,0.3,1.4c0.1,1.4,0.1,2.9,0,4c0,1-0.3,2.1-0.3,3c-0.9,0-1.7,0.1-2.6,0.1
		c-1.7,0.1-3.3,0-5.1-0.4c-0.6-0.1-1.1-0.3-1.9-0.6c0.7-2.1,1.6-4.7,2.3-7.4l-8.4-2.4l-4-1.6c-1.3,3.6-2.1,6.3-2.9,8.3
		c-0.7,1.9-1.3,3.3-1.7,4.1c-1,0-2,0.4-4,0.3c-1.7,0.1-3.4,0-5-0.4c-1.9-0.4-3.7-1-5.1-1.6c0.9-1.9,1.7-4,2.6-6.3l-8-3.4l-4.1-2
		c-1.1,2.1-2,3.9-2.6,5.1c-1.4,3-1.9,4.7-3.3,7.8c-2,0.4-3.4,0.9-7,0.9c-2.9-0.1-6.3-0.7-7.8-1.6c-3.1-2.1-3.7-9.1-3.7-12.7
		c0-2.6,0.1-5.4,0-8.6h-5.4c-3.3,0-6.7,0-10,0.4c-0.7,0.1-1.6,0.3-2.3,0.4c-3.3,0.7-6.3,1-8.1,2c-1.6,0.9-3.3,1.6-4.6,2.3
		c-1,0.4-1.9,0.9-2.4,1.1c-2.6,1.7-4.3,3-5.5,4.6c-1.7,2.4-2.9,3.6-4.1,5.3c-1,1.6-1.6,2.7-1.9,4.1c-0.3,0.6-0.4,1.3-0.6,2.1
		c-0.1,1.4-0.3,2.6-0.3,4v2.1c-0.9,5.3,0.6,8.8,2.3,11.4c0.6,0.9,1.3,1.6,2.1,2.3c1.7,1.1,4,1.9,6.5,2.7c2.4,0.4,4.8,1,7.3,1.4
		c0.6,0.1,1.3,0.3,2,0.4c-1.4,1.3-3.7,1.7-5.7,2.7c-2.3,0.7-4.6,0.9-8,1.7c-2.4,0.1-5.8,0.1-8.8,0.1h-2.4c-2.3-0.1-4.1-0.4-6.5-1
		c-2.1-0.1-4.4-2.3-5.5-4.3c-1.9-2.3-3-6-3-9c0.9-4.4,1.9-8.7,2.7-13.1l-11.1-3c-0.7,2.7-1.9,5.3-2.6,8.4c-0.4,1-1.6,7.1-1.6,8.1
		c0,1.1,0,2.3,0.1,3.6c0,1.9,0,3.3,0.1,4.7c0,1,0.1,1.9,0.1,2.9c0.7,6.1,2,9,6.4,13.4c1.4,1.3,2.7,2.7,5.1,4.3l6.4,2.1
		c2,1,5.1,1.1,7.3,1c3.3,0,6.1,0,9.4-0.4c3.9,0,7.4-1.9,10.7-3.6c2.7-1.1,5.1-3,7.4-4.7c3.6-2.3,8.1-8,9.4-12.1
		c1-2.1,1.3-3.9,1.4-5.7c0-0.6,0-1.3,0.1-2c0.3-2,0.3-3.7,0-5c-0.3-1.4-0.7-2.4-1.6-3.3c-0.7-0.4-1.4-1-2.3-1.4
		c-5.3-3-10.1-2.1-15.4-4.3c-1.3-0.7-2.1-1.4-2-2.6c0.3-1.6,0.9-3.4,1.6-4.7c2.3-0.7,4.8-0.9,7.3-1c1.9-0.1,3.7-0.3,5.4-0.4
		c0.9-0.1,1.9-0.3,2.7-0.3c2.5-0.2,4.7-0.4,7.1-0.4c0,1.7,0.2,3.4,0.5,5c0.3,3,1.7,7,3.1,9.7c2.6,3.9,3.6,4.8,7.4,7.1l1.7,0.9
		c1.4,0.7,3,1.1,5.1,1.1c3.4,0,9.5-0.9,12.5-2.4c2.1-1.1,5.1-4.1,6.7-6.3c5.1,4.6,10.8,7.5,17.7,9c3.1,0.1,5.7-0.7,8-1.7
		c1.3-1.3,2.4-2.4,3.6-3.9c2.4,2.4,4.4,3.7,7.7,4.8c1.6,0.4,3.1,0.6,4.4,0.6c1,0,2-0.1,3-0.4c1.7-0.3,3.3-0.9,4.4-1.7
		c1.1-0.7,2.4-1.3,3.6-2c1-0.7,2-1.6,2.6-2.6c1.7-2.1,3-4.6,3.9-7.3C164.4,118.5,165,116.7,165.3,115.1L165.3,115.1z"/>
	<path class="st0" d="M192.6,116.2c-1.3-6-1-8-3.1-14.4c-0.6-1.9-1.7-4.4-2.6-7.4l-12.8,3.9c0.4,1.1,1.6,3.6,2.3,7
		c0.6,2.6,1.7,5.7,2.7,8.8c0.9,2.4,1.4,6,1.9,8.5c0.3,1.3,0.3,2.7,0.3,3.9c0,1.9-0.7,4.3-1,6.3c-0.6,0.9-1.1,1.6-1.7,2.3
		c-1.3,1.4-2.7,2.7-4.6,4c-0.4,0.1-1,0.4-1.4,0.6c-3,1.3-6.7,2.1-11.4,1.7l-0.4,12.7c1.9,1.9,7.3,2.9,11.7,2.9c5,0,10-1.9,13.1-5.8
		c0.3-0.3,0.4-0.6,0.7-0.9c1.9-2.6,2.7-4.3,4-7.1c1.4-2.7,2.3-5.1,2.6-7.8c0.4-4,0.6-7.4,0.3-11.1
		C193.3,121.5,193.1,119.1,192.6,116.2L192.6,116.2z"/>
	<path class="st0" d="M298.3,100.1c-1-2.7-1.8-5.8-3-7.3c-3.7-4.7-7.4-6.8-13.5-7.1c-2.4,0-5,0.6-7.1,2.3c-2.9,1.3-8.7,7.7-9.8,10.5
		c-1.6,2.3-3.3,5.6-4.6,7.8c-1,3.3-2.4,5.7-3.3,8.5c-1.9,0.3-3.3,0.4-5.1,0.4c-4.4,0-8.1-1-10.4-6.4l-6.1-15.8l-2.4-7.3l-3.6-7.1
		l-12.5,7.8l6.7,13.4l5.7,13c-1.1,0.7-3.1,1.1-5.3,1.6c-3,0.6-6,0.9-8,0.6c-1.3-0.1-12.4-1.1-14.7-1.4l-3.4,12.5
		c1.1,2.7,4.4,4.4,7.3,5.5c3,1.6,6.5,1.9,10,2.1c4.3,0,8.3-1.1,12.2-2.7c1.6-1.3,2.7-3.3,4.8-5.4c0.7-0.9,1.3-1.6,1.9-2.3
		c3.1,5.8,6.1,10.4,13.5,10.4l0,0l0,0l0,0c3.7,0,6.5-1.1,9.1-2.6c2.3-1.7,4.3-3.9,5.7-5.8c0.6-0.7,1.1-1.4,1.6-2.3l3.1,1.4l7.1,2.6
		l8.1,2.7l7.1,2l3.1-0.6c0.7-1.3,1.3-3.7,2.7-6.1c1-2.4,1.7-6.3,2.7-8.5c0.6-2.4,0.7-5.5,1-7.8C298.7,106.1,298.6,103,298.3,100.1
		L298.3,100.1z M278.1,110.6l-7-1.7c1.1-2.6,2-4.7,3.1-6c1.7-0.6,3.1-0.6,4.7-0.7c2.8,0.1,5.1,2.1,6.1,4.4c0.1,0.3,0.4,1.4,0.6,1.7
		c0.4,1,1.4,4.1,1.7,4.8L278.1,110.6L278.1,110.6z"/>
</g>
<g>
	<path class="st1" d="M450.1,80.5l33.1-33.1L437.3,1.5l-45.9,45.9l33.1,33.1C431.6,87.6,443.1,87.6,450.1,80.5L450.1,80.5z"/>
	<path class="st1" d="M525.7,130c-13.8,11.1-33.1,13-48.5,4.2c-0.5-0.3-1-0.6-1.5-0.9c-6.7-4.1-13-9.3-18.4-14.6
		c-0.1-0.1-0.2-0.2-0.2-0.2c-0.4-0.4-0.7-0.7-1.1-1.1l-2.8-2.8c-8.7,8.7-22.8,8.7-31.6,0l0,0l-12.9-12.9c-18.2-18.2-47.8-18.2-66,0
		l-12.9,12.9l45.9,45.9l0,0l22.7,22.7c21.5,21.5,56.5,21.5,78,0l22.7-22.7l45.9-45.9L525.7,130L525.7,130z"/>
</g>
</svg>
